{
.appVersion = "1009";
DisplayStrings = (
"HNHTIHLHEHDHFHOHHSHWHU\012HOSOHnGOCGH\012Hovnosnknxnyn\012HHMHOZOHE\012ni.n:n;n,\012nonoc \012h(h[{h}])(p)\012JOZEFg\012HAVH\012HMHWH\012HXHKH"
);
copyright = "Copyright ￂﾩ 2016 by William Montrose, Slￃﾡva Jevￄﾍinovￃﾡ. All rights reserved.";
date = "2016-08-04 16:37:45 +0000";
designer = "William Montrose, Slￃﾡva Jevￄﾍinovￃﾡ";
familyName = "Universal Text A";
fontMaster = (
{
alignmentZones = (
"{730, 15}",
"{670, 15}",
"{525, 15}",
"{-15, 15}",
"{-210, 15}"
);
ascender = 730;
capHeight = 670;
customParameters = (
{
name = paramArea;
value = "385";
},
{
name = paramDepth;
value = "14";
},
{
name = paramOver;
value = "3";
}
);
descender = -195;
id = "C76CAC8E-7AD6-478C-8F7E-02FEF6F1EA84";
userData = {
GSOffsetHorizontal = 19;
GSOffsetMakeStroke = 1;
GSOffsetVertical = 16;
};
weightValue = 140;
xHeight = 525;
},
{
alignmentZones = (
"{730, 15}",
"{670, 15}",
"{535, 15}",
"{-15, 15}",
"{-210, 15}"
);
ascender = 730;
capHeight = 670;
descender = -195;
id = "2D8239A6-199F-4292-A93F-56491AD13939";
weight = Bold;
weightValue = 215;
xHeight = 535;
}
);
glyphs = (
{
color = 11;
glyphname = A;
lastChange = "2017-06-02 15:03:54 +0000";
layers = (
{
background = {
paths = (
{
closed = 1;
nodes = (
"10 0 LINE",
"168 0 LINE",
"375 670 LINE",
"240 670 LINE"
);
},
{
closed = 1;
nodes = (
"312 670 LINE",
"519 0 LINE",
"677 0 LINE",
"447 670 LINE"
);
},
{
closed = 1;
nodes = (
"506 122 LINE",
"506 237 LINE",
"168 237 LINE",
"168 122 LINE"
);
}
);
};
layerId = "C76CAC8E-7AD6-478C-8F7E-02FEF6F1EA84";
paths = (
{
closed = 1;
nodes = (
"5 0 LINE",
"163 0 LINE",
"375 670 LINE",
"240 670 LINE"
);
},
{
closed = 1;
nodes = (
"312 670 LINE",
"524 0 LINE",
"682 0 LINE",
"447 670 LINE"
);
},
{
closed = 1;
nodes = (
"506 122 LINE",
"506 237 LINE",
"168 237 LINE",
"168 122 LINE"
);
}
);
width = 687;
},
{
background = {
paths = (
{
closed = 1;
nodes = (
"20 0 LINE",
"255 0 LINE",
"405 670 LINE",
"209 670 LINE"
);
},
{
closed = 1;
nodes = (
"340 670 LINE",
"490 0 LINE",
"725 0 LINE",
"536 670 LINE"
);
},
{
closed = 1;
nodes = (
"570 97 LINE",
"570 262 LINE",
"173 262 LINE",
"173 97 LINE"
);
}
);
};
layerId = "2D8239A6-199F-4292-A93F-56491AD13939";
paths = (
{
closed = 1;
nodes = (
"5 0 LINE",
"240 0 LINE",
"405 670 LINE",
"209 670 LINE"
);
},
{
closed = 1;
nodes = (
"340 670 LINE",
"505 0 LINE",
"740 0 LINE",
"536 670 LINE"
);
},
{
closed = 1;
nodes = (
"570 97 LINE",
"570 252 LINE",
"173 252 LINE",
"173 97 LINE"
);
}
);
width = 745;
}
);
unicode = 0041;
},
{
color = 11;
glyphname = B;
lastChange = "2017-06-04 12:16:23 +0000";
layers = (
{
background = {
paths = (
{
closed = 1;
nodes = (
"220 0 LINE",
"220 670 LINE",
"75 670 LINE",
"75 0 LINE"
);
},
{
closed = 1;
nodes = (
"202 386 LINE",
"202 325 LINE",
"401 325 LINE SMOOTH",
"566 325 OFFCURVE",
"627 371 OFFCURVE",
"627 499 CURVE SMOOTH",
"627 603 OFFCURVE",
"576 670 OFFCURVE",
"411 670 CURVE SMOOTH",
"202 670 LINE",
"202 550 LINE",
"383 550 LINE SMOOTH",
"450 550 OFFCURVE",
"482 537 OFFCURVE",
"482 469 CURVE SMOOTH",
"482 408 OFFCURVE",
"450 386 OFFCURVE",
"383 386 CURVE SMOOTH"
);
},
{
closed = 1;
nodes = (
"467 284 OFFCURVE",
"499 262 OFFCURVE",
"499 201 CURVE SMOOTH",
"499 133 OFFCURVE",
"467 120 OFFCURVE",
"400 120 CURVE SMOOTH",
"202 120 LINE",
"202 0 LINE",
"418 0 LINE SMOOTH",
"583 0 OFFCURVE",
"644 67 OFFCURVE",
"644 175 CURVE SMOOTH",
"644 299 OFFCURVE",
"583 345 OFFCURVE",
"418 345 CURVE SMOOTH",
"202 345 LINE",
"202 284 LINE",
"400 284 LINE SMOOTH"
);
}
);
};
layerId = "C76CAC8E-7AD6-478C-8F7E-02FEF6F1EA84";
paths = (
{
closed = 1;
nodes = (
"220 0 LINE",
"220 670 LINE",
"75 670 LINE",
"75 0 LINE"
);
},
{
closed = 1;
nodes = (
"202 388 LINE",
"202 325 LINE",
"406 325 LINE SMOOTH",
"571 325 OFFCURVE",
"632 371 OFFCURVE",
"632 499 CURVE SMOOTH",
"632 603 OFFCURVE",
"581 670 OFFCURVE",
"416 670 CURVE SMOOTH",
"202 670 LINE",
"202 552 LINE",
"385 552 LINE SMOOTH",
"452 552 OFFCURVE",
"484 537 OFFCURVE",
"484 469 CURVE SMOOTH",
"484 408 OFFCURVE",
"452 388 OFFCURVE",
"385 388 CURVE SMOOTH"
);
},
{
closed = 1;
nodes = (
"469 282 OFFCURVE",
"501 262 OFFCURVE",
"501 201 CURVE SMOOTH",
"501 133 OFFCURVE",
"469 118 OFFCURVE",
"402 118 CURVE SMOOTH",
"202 118 LINE",
"202 0 LINE",
"423 0 LINE SMOOTH",
"588 0 OFFCURVE",
"649 67 OFFCURVE",
"649 175 CURVE SMOOTH",
"649 299 OFFCURVE",
"588 345 OFFCURVE",
"423 345 CURVE SMOOTH",
"202 345 LINE",
"202 282 LINE",
"402 282 LINE SMOOTH"
);
}
);
width = 699;
},
{
background = {
paths = (
{
closed = 1;
nodes = (
"250 0 LINE",
"250 670 LINE",
"50 670 LINE",
"50 0 LINE"
);
},
{
closed = 1;
nodes = (
"232 391 LINE",
"232 325 LINE",
"348 325 LINE SMOOTH",
"516 325 OFFCURVE",
"597 371 OFFCURVE",
"597 499 CURVE SMOOTH",
"597 603 OFFCURVE",
"516 670 OFFCURVE",
"358 670 CURVE SMOOTH",
"232 670 LINE",
"232 507 LINE",
"320 507 LINE SMOOTH",
"367 507 OFFCURVE",
"389 497 OFFCURVE",
"389 449 CURVE SMOOTH",
"389 408 OFFCURVE",
"367 391 OFFCURVE",
"320 391 CURVE SMOOTH"
);
},
{
closed = 1;
nodes = (
"384 279 OFFCURVE",
"406 262 OFFCURVE",
"406 221 CURVE SMOOTH",
"406 173 OFFCURVE",
"384 163 OFFCURVE",
"337 163 CURVE SMOOTH",
"232 163 LINE",
"232 0 LINE",
"375 0 LINE SMOOTH",
"533 0 OFFCURVE",
"614 67 OFFCURVE",
"614 175 CURVE SMOOTH",
"614 299 OFFCURVE",
"533 345 OFFCURVE",
"365 345 CURVE SMOOTH",
"232 345 LINE",
"232 279 LINE",
"337 279 LINE SMOOTH"
);
}
);
};
layerId = "2D8239A6-199F-4292-A93F-56491AD13939";
paths = (
{
closed = 1;
nodes = (
"265 0 LINE",
"265 670 LINE",
"50 670 LINE",
"50 0 LINE"
);
},
{
closed = 1;
nodes = (
"247 391 LINE",
"247 325 LINE",
"433 325 LINE SMOOTH",
"601 325 OFFCURVE",
"662 371 OFFCURVE",
"662 499 CURVE SMOOTH",
"662 603 OFFCURVE",
"581 670 OFFCURVE",
"413 670 CURVE SMOOTH",
"247 670 LINE",
"247 507 LINE",
"375 507 LINE SMOOTH",
"422 507 OFFCURVE",
"444 497 OFFCURVE",
"444 449 CURVE SMOOTH",
"444 408 OFFCURVE",
"422 391 OFFCURVE",
"375 391 CURVE SMOOTH"
);
},
{
closed = 1;
nodes = (
"439 279 OFFCURVE",
"461 262 OFFCURVE",
"461 221 CURVE SMOOTH",
"461 173 OFFCURVE",
"439 163 OFFCURVE",
"392 163 CURVE SMOOTH",
"247 163 LINE",
"247 0 LINE",
"430 0 LINE SMOOTH",
"598 0 OFFCURVE",
"679 67 OFFCURVE",
"679 175 CURVE SMOOTH",
"679 299 OFFCURVE",
"618 345 OFFCURVE",
"450 345 CURVE SMOOTH",
"247 345 LINE",
"247 279 LINE",
"392 279 LINE SMOOTH"
);
}
);
width = 704;
}
);
leftMetricsKey = H;
unicode = 0042;
},
{
color = 11;
glyphname = C;
lastChange = "2017-06-06 08:43:12 +0000";
layers = (
{
background = {
paths = (
{
closed = 1;
nodes = (
"587 -15 OFFCURVE",
"708 109 OFFCURVE",
"708 335 CURVE SMOOTH",
"708 562 OFFCURVE",
"587 685 OFFCURVE",
"374 685 CURVE SMOOTH",
"161 685 OFFCURVE",
"40 562 OFFCURVE",
"40 335 CURVE SMOOTH",
"40 109 OFFCURVE",
"161 -15 OFFCURVE",
"374 -15 CURVE SMOOTH"
);
},
{
closed = 1;
nodes = (
"249 110 OFFCURVE",
"193 194 OFFCURVE",
"193 335 CURVE SMOOTH",
"193 476 OFFCURVE",
"249 560 OFFCURVE",
"374 560 CURVE SMOOTH",
"499 560 OFFCURVE",
"555 476 OFFCURVE",
"555 335 CURVE SMOOTH",
"555 194 OFFCURVE",
"499 110 OFFCURVE",
"374 110 CURVE SMOOTH"
);
}
);
};
layerId = "C76CAC8E-7AD6-478C-8F7E-02FEF6F1EA84";
paths = (
{
closed = 1;
nodes = (
"533 -15 OFFCURVE",
"643 63 OFFCURVE",
"656 220 CURVE SMOOTH",
"657 232 LINE",
"504 232 LINE",
"502 222 LINE SMOOTH",
"489 155 OFFCURVE",
"450 110 OFFCURVE",
"359 110 CURVE SMOOTH",
"264 110 OFFCURVE",
"193 182 OFFCURVE",
"193 336 CURVE SMOOTH",
"193 490 OFFCURVE",
"263 560 OFFCURVE",
"359 560 CURVE SMOOTH",
"447 560 OFFCURVE",
"487 513 OFFCURVE",
"502 446 CURVE SMOOTH",
"504 437 LINE",
"657 437 LINE",
"656 449 LINE SMOOTH",
"643 606 OFFCURVE",
"531 685 OFFCURVE",
"354 685 CURVE SMOOTH",
"177 685 OFFCURVE",
"40 571 OFFCURVE",
"40 336 CURVE SMOOTH",
"40 100 OFFCURVE",
"177 -15 OFFCURVE",
"354 -15 CURVE SMOOTH"
);
}
);
width = 697;
},
{
background = {
paths = (
{
closed = 1;
nodes = (
"625 -15 OFFCURVE",
"744 109 OFFCURVE",
"744 335 CURVE SMOOTH",
"744 562 OFFCURVE",
"625 685 OFFCURVE",
"387 685 CURVE SMOOTH",
"149 685 OFFCURVE",
"30 562 OFFCURVE",
"30 335 CURVE SMOOTH",
"30 109 OFFCURVE",
"149 -15 OFFCURVE",
"387 -15 CURVE SMOOTH"
);
},
{
closed = 1;
nodes = (
"293 165 OFFCURVE",
"258 226 OFFCURVE",
"258 335 CURVE SMOOTH",
"258 444 OFFCURVE",
"293 505 OFFCURVE",
"387 505 CURVE SMOOTH",
"481 505 OFFCURVE",
"516 444 OFFCURVE",
"516 335 CURVE SMOOTH",
"516 226 OFFCURVE",
"481 165 OFFCURVE",
"387 165 CURVE SMOOTH"
);
}
);
};
layerId = "2D8239A6-199F-4292-A93F-56491AD13939";
paths = (
{
closed = 1;
nodes = (
"584 -15 OFFCURVE",
"682 80 OFFCURVE",
"689 235 CURVE SMOOTH",
"690 257 LINE",
"481 257 LINE",
"478 245 LINE SMOOTH",
"469 207 OFFCURVE",
"451 165 OFFCURVE",
"373 165 CURVE SMOOTH",
"293 165 OFFCURVE",
"258 226 OFFCURVE",
"258 331 CURVE SMOOTH",
"258 436 OFFCURVE",
"293 505 OFFCURVE",
"373 505 CURVE SMOOTH",
"451 505 OFFCURVE",
"468 464 OFFCURVE",
"478 425 CURVE SMOOTH",
"481 413 LINE",
"690 413 LINE",
"689 435 LINE SMOOTH",
"682 579 OFFCURVE",
"584 685 OFFCURVE",
"373 685 CURVE SMOOTH",
"147 685 OFFCURVE",
"30 554 OFFCURVE",
"30 331 CURVE SMOOTH",
"30 118 OFFCURVE",
"147 -15 OFFCURVE",
"373 -15 CURVE SMOOTH"
);
}
);
width = 720;
}
);
leftMetricsKey = O;
rightMetricsKey = O;
unicode = 0043;
},
{
color = 11;
glyphname = D;
lastChange = "2017-06-06 08:43:25 +0000";
layers = (
{
background = {
paths = (
{
closed = 1;
nodes = (
"666 0 LINE",
"666 670 LINE",
"518 670 LINE",
"518 0 LINE"
);
},
{
closed = 1;
nodes = (
"223 0 LINE",
"223 670 LINE",
"75 670 LINE",
"75 0 LINE"
);
},
{
closed = 1;
nodes = (
"601 272 LINE",
"601 397 LINE",
"133 397 LINE",
"133 272 LINE"
);
}
);
};
layerId = "C76CAC8E-7AD6-478C-8F7E-02FEF6F1EA84";
paths = (
{
closed = 1;
nodes = (
"223 0 LINE",
"223 670 LINE",
"75 670 LINE",
"75 0 LINE"
);
},
{
closed = 1;
nodes = (
"190 125 LINE",
"190 0 LINE",
"339 0 LINE SMOOTH",
"556 0 OFFCURVE",
"676 111 OFFCURVE",
"676 335 CURVE SMOOTH",
"676 561 OFFCURVE",
"555 670 OFFCURVE",
"349 670 CURVE SMOOTH",
"190 670 LINE",
"190 545 LINE",
"336 545 LINE SMOOTH",
"450 545 OFFCURVE",
"523 497 OFFCURVE",
"523 335 CURVE SMOOTH",
"523 173 OFFCURVE",
"450 125 OFFCURVE",
"336 125 CURVE SMOOTH"
);
}
);
width = 716;
},
{
background = {
paths = (
{
closed = 1;
nodes = (
"710 0 LINE",
"710 670 LINE",
"485 670 LINE",
"485 0 LINE"
);
},
{
closed = 1;
nodes = (
"275 0 LINE",
"275 670 LINE",
"50 670 LINE",
"50 0 LINE"
);
},
{
closed = 1;
nodes = (
"595 247 LINE",
"595 422 LINE",
"168 422 LINE",
"168 247 LINE"
);
}
);
};
layerId = "2D8239A6-199F-4292-A93F-56491AD13939";
paths = (
{
closed = 1;
nodes = (
"275 0 LINE",
"275 670 LINE",
"50 670 LINE",
"50 0 LINE"
);
},
{
closed = 1;
nodes = (
"242 175 LINE",
"242 0 LINE",
"373 0 LINE SMOOTH",
"590 0 OFFCURVE",
"718 111 OFFCURVE",
"718 335 CURVE SMOOTH",
"718 561 OFFCURVE",
"589 670 OFFCURVE",
"383 670 CURVE SMOOTH",
"242 670 LINE",
"242 495 LINE",
"353 495 LINE SMOOTH",
"447 495 OFFCURVE",
"490 447 OFFCURVE",
"490 335 CURVE SMOOTH",
"490 223 OFFCURVE",
"447 175 OFFCURVE",
"353 175 CURVE SMOOTH"
);
}
);
width = 748;
}
);
leftMetricsKey = H;
rightMetricsKey = O;
unicode = 0044;
},
{
color = 11;
glyphname = E;
lastChange = "2017-06-06 09:05:00 +0000";
layers = (
{
background = {
paths = (
{
closed = 1;
nodes = (
"223 0 LINE",
"223 670 LINE",
"75 670 LINE",
"75 0 LINE"
);
},
{
closed = 1;
nodes = (
"558 0 LINE",
"558 125 LINE",
"170 125 LINE",
"170 0 LINE"
);
},
{
closed = 1;
nodes = (
"558 545 LINE",
"558 670 LINE",
"170 670 LINE",
"170 545 LINE"
);
},
{
closed = 1;
nodes = (
"498 270 LINE",
"498 385 LINE",
"170 385 LINE",
"170 270 LINE"
);
}
);
};
layerId = "C76CAC8E-7AD6-478C-8F7E-02FEF6F1EA84";
paths = (
{
closed = 1;
nodes = (
"218 0 LINE",
"218 670 LINE",
"75 670 LINE",
"75 0 LINE"
);
},
{
closed = 1;
nodes = (
"590 0 LINE",
"590 125 LINE",
"170 125 LINE",
"170 0 LINE"
);
},
{
closed = 1;
nodes = (
"590 545 LINE",
"590 670 LINE",
"170 670 LINE",
"170 545 LINE"
);
},
{
closed = 1;
nodes = (
"530 275 LINE",
"530 390 LINE",
"170 390 LINE",
"170 275 LINE"
);
}
);
width = 640;
},
{
background = {
paths = (
{
closed = 1;
nodes = (
"270 0 LINE",
"270 670 LINE",
"50 670 LINE",
"50 0 LINE"
);
},
{
closed = 1;
nodes = (
"605 0 LINE",
"605 180 LINE",
"170 180 LINE",
"170 0 LINE"
);
},
{
closed = 1;
nodes = (
"605 490 LINE",
"605 670 LINE",
"170 670 LINE",
"170 490 LINE"
);
},
{
closed = 1;
nodes = (
"535 260 LINE",
"535 410 LINE",
"170 410 LINE",
"170 260 LINE"
);
}
);
};
layerId = "2D8239A6-199F-4292-A93F-56491AD13939";
paths = (
{
closed = 1;
nodes = (
"270 0 LINE",
"270 670 LINE",
"50 670 LINE",
"50 0 LINE"
);
},
{
closed = 1;
nodes = (
"615 0 LINE",
"615 175 LINE",
"170 175 LINE",
"170 0 LINE"
);
},
{
closed = 1;
nodes = (
"615 495 LINE",
"615 670 LINE",
"170 670 LINE",
"170 495 LINE"
);
},
{
closed = 1;
nodes = (
"555 260 LINE",
"555 410 LINE",
"170 410 LINE",
"170 260 LINE"
);
}
);
width = 650;
}
);
leftMetricsKey = "=H";
unicode = 0045;
},
{
color = 11;
glyphname = F;
lastChange = "2017-06-06 09:04:40 +0000";
layers = (
{
background = {
paths = (
{
closed = 1;
nodes = (
"218 0 LINE",
"218 670 LINE",
"75 670 LINE",
"75 0 LINE"
);
},
{
closed = 1;
nodes = (
"588 0 LINE",
"588 125 LINE",
"170 125 LINE",
"170 0 LINE"
);
},
{
closed = 1;
nodes = (
"588 545 LINE",
"588 670 LINE",
"170 670 LINE",
"170 545 LINE"
);
},
{
closed = 1;
nodes = (
"528 275 LINE",
"528 390 LINE",
"170 390 LINE",
"170 275 LINE"
);
}
);
};
layerId = "C76CAC8E-7AD6-478C-8F7E-02FEF6F1EA84";
paths = (
{
closed = 1;
nodes = (
"218 0 LINE",
"218 670 LINE",
"75 670 LINE",
"75 0 LINE"
);
},
{
closed = 1;
nodes = (
"565 545 LINE",
"565 670 LINE",
"170 670 LINE",
"170 545 LINE"
);
},
{
closed = 1;
nodes = (
"505 253 LINE",
"505 370 LINE",
"170 370 LINE",
"170 253 LINE"
);
}
);
width = 580;
},
{
background = {
paths = (
{
closed = 1;
nodes = (
"270 0 LINE",
"270 670 LINE",
"50 670 LINE",
"50 0 LINE"
);
},
{
closed = 1;
nodes = (
"605 0 LINE",
"605 180 LINE",
"170 180 LINE",
"170 0 LINE"
);
},
{
closed = 1;
nodes = (
"605 490 LINE",
"605 670 LINE",
"170 670 LINE",
"170 490 LINE"
);
},
{
closed = 1;
nodes = (
"535 260 LINE",
"535 410 LINE",
"170 410 LINE",
"170 260 LINE"
);
}
);
};
layerId = "2D8239A6-199F-4292-A93F-56491AD13939";
paths = (
{
closed = 1;
nodes = (
"270 0 LINE",
"270 670 LINE",
"50 670 LINE",
"50 0 LINE"
);
},
{
closed = 1;
nodes = (
"600 490 LINE",
"600 670 LINE",
"170 670 LINE",
"170 490 LINE"
);
},
{
closed = 1;
nodes = (
"540 225 LINE",
"540 380 LINE",
"170 380 LINE",
"170 225 LINE"
);
}
);
width = 620;
}
);
unicode = 0046;
},
{
color = 7;
glyphname = G;
lastChange = "2017-06-07 14:13:54 +0000";
layers = (
{
background = {
paths = (
{
closed = 1;
nodes = (
"566 -15 OFFCURVE",
"662 95 OFFCURVE",
"662 252 CURVE",
"529 252 LINE",
"529 154 OFFCURVE",
"468 110 OFFCURVE",
"364 110 CURVE SMOOTH",
"269 110 OFFCURVE",
"198 182 OFFCURVE",
"198 336 CURVE SMOOTH",
"198 490 OFFCURVE",
"268 560 OFFCURVE",
"364 560 CURVE SMOOTH",
"452 560 OFFCURVE",
"493 519 OFFCURVE",
"507 456 CURVE SMOOTH",
"509 447 LINE",
"662 447 LINE",
"661 459 LINE SMOOTH",
"648 611 OFFCURVE",
"536 685 OFFCURVE",
"359 685 CURVE SMOOTH",
"182 685 OFFCURVE",
"45 571 OFFCURVE",
"45 336 CURVE SMOOTH",
"45 100 OFFCURVE",
"182 -15 OFFCURVE",
"359 -15 CURVE SMOOTH"
);
},
{
closed = 1;
nodes = (
"662 232 LINE",
"662 347 LINE",
"368 347 LINE",
"368 232 LINE"
);
}
);
};
layerId = "C76CAC8E-7AD6-478C-8F7E-02FEF6F1EA84";
paths = (
{
closed = 1;
nodes = (
"526 -15 OFFCURVE",
"572 145 OFFCURVE",
"572 252 CURVE",
"539 252 LINE",
"529 174 OFFCURVE",
"478 110 OFFCURVE",
"374 110 CURVE SMOOTH",
"264 110 OFFCURVE",
"193 182 OFFCURVE",
"193 336 CURVE SMOOTH",
"193 490 OFFCURVE",
"263 560 OFFCURVE",
"364 560 CURVE SMOOTH",
"452 560 OFFCURVE",
"491 527 OFFCURVE",
"515 467 CURVE SMOOTH",
"519 457 LINE",
"672 457 LINE",
"668 476 LINE SMOOTH",
"638 617 OFFCURVE",
"546 685 OFFCURVE",
"359 685 CURVE SMOOTH",
"177 685 OFFCURVE",
"40 571 OFFCURVE",
"40 336 CURVE SMOOTH",
"40 100 OFFCURVE",
"167 -15 OFFCURVE",
"339 -15 CURVE SMOOTH"
);
},
{
closed = 1;
nodes = (
"677 242 LINE",
"677 354 LINE",
"383 354 LINE",
"383 242 LINE"
);
},
{
closed = 1;
nodes = (
"677 0 LINE",
"677 270 LINE",
"539 270 LINE",
"539 128 LINE",
"559 0 LINE"
);
}
);
width = 717;
},
{
background = {
paths = (
{
closed = 1;
nodes = (
"605 -15 OFFCURVE",
"710 80 OFFCURVE",
"710 267 CURVE",
"521 257 LINE",
"505 182 OFFCURVE",
"482 155 OFFCURVE",
"393 155 CURVE SMOOTH",
"293 155 OFFCURVE",
"258 216 OFFCURVE",
"258 331 CURVE SMOOTH",
"258 436 OFFCURVE",
"293 505 OFFCURVE",
"383 505 CURVE SMOOTH",
"461 505 OFFCURVE",
"488 472 OFFCURVE",
"498 442 CURVE SMOOTH",
"501 433 LINE",
"710 433 LINE",
"709 450 LINE SMOOTH",
"702 574 OFFCURVE",
"604 685 OFFCURVE",
"383 685 CURVE SMOOTH",
"147 685 OFFCURVE",
"30 554 OFFCURVE",
"30 331 CURVE SMOOTH",
"30 118 OFFCURVE",
"147 -15 OFFCURVE",
"383 -15 CURVE SMOOTH"
);
},
{
closed = 1;
nodes = (
"710 237 LINE",
"710 377 LINE",
"373 377 LINE",
"373 237 LINE"
);
}
);
};
layerId = "2D8239A6-199F-4292-A93F-56491AD13939";
paths = (
{
closed = 1;
nodes = (
"525 -15 OFFCURVE",
"570 108 OFFCURVE",
"570 257 CURVE",
"525 257 LINE",
"515 192 OFFCURVE",
"472 155 OFFCURVE",
"393 155 CURVE SMOOTH",
"293 155 OFFCURVE",
"258 216 OFFCURVE",
"258 331 CURVE SMOOTH",
"258 436 OFFCURVE",
"293 505 OFFCURVE",
"383 505 CURVE SMOOTH",
"461 505 OFFCURVE",
"483 478 OFFCURVE",
"498 449 CURVE SMOOTH",
"501 443 LINE",
"710 443 LINE",
"708 460 LINE SMOOTH",
"693 583 OFFCURVE",
"604 685 OFFCURVE",
"383 685 CURVE SMOOTH",
"147 685 OFFCURVE",
"30 554 OFFCURVE",
"30 331 CURVE SMOOTH",
"30 118 OFFCURVE",
"137 -15 OFFCURVE",
"343 -15 CURVE SMOOTH"
);
},
{
closed = 1;
nodes = (
"720 237 LINE",
"720 377 LINE",
"393 377 LINE",
"393 237 LINE"
);
},
{
closed = 1;
nodes = (
"720 0 LINE",
"720 270 LINE",
"525 270 LINE",
"525 127 LINE",
"555 0 LINE"
);
}
);
width = 750;
}
);
leftMetricsKey = O;
rightMetricsKey = O;
unicode = 0047;
},
{
color = 11;
glyphname = H;
lastChange = "2017-06-02 15:06:42 +0000";
layers = (
{
background = {
paths = (
{
closed = 1;
nodes = (
"666 0 LINE",
"666 670 LINE",
"518 670 LINE",
"518 0 LINE"
);
},
{
closed = 1;
nodes = (
"223 0 LINE",
"223 670 LINE",
"75 670 LINE",
"75 0 LINE"
);
},
{
closed = 1;
nodes = (
"601 272 LINE",
"601 402 LINE",
"133 402 LINE",
"133 272 LINE"
);
}
);
};
layerId = "C76CAC8E-7AD6-478C-8F7E-02FEF6F1EA84";
paths = (
{
closed = 1;
nodes = (
"666 0 LINE",
"666 670 LINE",
"518 670 LINE",
"518 0 LINE"
);
},
{
closed = 1;
nodes = (
"223 0 LINE",
"223 670 LINE",
"75 670 LINE",
"75 0 LINE"
);
},
{
closed = 1;
nodes = (
"601 272 LINE",
"601 397 LINE",
"133 397 LINE",
"133 272 LINE"
);
}
);
width = 741;
},
{
background = {
paths = (
{
closed = 1;
nodes = (
"710 0 LINE",
"710 670 LINE",
"485 670 LINE",
"485 0 LINE"
);
},
{
closed = 1;
nodes = (
"275 0 LINE",
"275 670 LINE",
"50 670 LINE",
"50 0 LINE"
);
},
{
closed = 1;
nodes = (
"595 247 LINE",
"595 422 LINE",
"168 422 LINE",
"168 247 LINE"
);
}
);
};
layerId = "2D8239A6-199F-4292-A93F-56491AD13939";
paths = (
{
closed = 1;
nodes = (
"710 0 LINE",
"710 670 LINE",
"485 670 LINE",
"485 0 LINE"
);
},
{
closed = 1;
nodes = (
"275 0 LINE",
"275 670 LINE",
"50 670 LINE",
"50 0 LINE"
);
},
{
closed = 1;
nodes = (
"595 247 LINE",
"595 422 LINE",
"198 422 LINE",
"198 247 LINE"
);
}
);
width = 760;
}
);
unicode = 0048;
},
{
color = 11;
glyphname = I;
lastChange = "2017-05-31 15:20:35 +0000";
layers = (
{
layerId = "C76CAC8E-7AD6-478C-8F7E-02FEF6F1EA84";
paths = (
{
closed = 1;
nodes = (
"223 0 LINE",
"223 670 LINE",
"75 670 LINE",
"75 0 LINE"
);
}
);
width = 298;
},
{
layerId = "2D8239A6-199F-4292-A93F-56491AD13939";
paths = (
{
closed = 1;
nodes = (
"275 0 LINE",
"275 670 LINE",
"50 670 LINE",
"50 0 LINE"
);
}
);
width = 325;
}
);
leftMetricsKey = "=H";
rightMetricsKey = "=H";
unicode = 0049;
},
{
color = 7;
glyphname = J;
lastChange = "2017-06-07 14:13:12 +0000";
layers = (
{
background = {
paths = (
{
closed = 1;
nodes = (
"109 5 LINE",
"164 -7 OFFCURVE",
"220 -15 OFFCURVE",
"266 -15 CURVE SMOOTH",
"437 -15 OFFCURVE",
"536 61 OFFCURVE",
"536 261 CURVE SMOOTH",
"536 670 LINE",
"388 670 LINE",
"388 289 LINE SMOOTH",
"388 164 OFFCURVE",
"347 110 OFFCURVE",
"251 110 CURVE SMOOTH",
"205 110 OFFCURVE",
"149 118 OFFCURVE",
"109 125 CURVE"
);
}
);
};
layerId = "C76CAC8E-7AD6-478C-8F7E-02FEF6F1EA84";
paths = (
{
closed = 1;
nodes = (
"199 110 OFFCURVE",
"170 146 OFFCURVE",
"159 223 CURVE SMOOTH",
"158 230 LINE",
"10 230 LINE",
"11 213 LINE SMOOTH",
"20 63 OFFCURVE",
"110 -15 OFFCURVE",
"271 -15 CURVE SMOOTH",
"444 -15 OFFCURVE",
"536 61 OFFCURVE",
"536 261 CURVE SMOOTH",
"536 670 LINE",
"388 670 LINE",
"388 259 LINE SMOOTH",
"388 154 OFFCURVE",
"357 110 OFFCURVE",
"276 110 CURVE SMOOTH"
);
}
);
width = 606;
},
{
annotations = (
{
position = "{224, 716}";
text = "Try curly J";
type = Text;
}
);
background = {
paths = (
{
closed = 1;
nodes = (
"119 5 LINE",
"174 -7 OFFCURVE",
"240 -15 OFFCURVE",
"316 -15 CURVE SMOOTH",
"487 -15 OFFCURVE",
"586 71 OFFCURVE",
"586 261 CURVE SMOOTH",
"586 670 LINE",
"361 670 LINE",
"361 309 LINE SMOOTH",
"361 214 OFFCURVE",
"340 170 OFFCURVE",
"254 170 CURVE SMOOTH",
"208 170 OFFCURVE",
"159 176 OFFCURVE",
"119 182 CURVE"
);
}
);
};
layerId = "2D8239A6-199F-4292-A93F-56491AD13939";
paths = (
{
closed = 1;
nodes = (
"250 165 OFFCURVE",
"234 198 OFFCURVE",
"229 258 CURVE SMOOTH",
"228 270 LINE",
"10 270 LINE",
"11 243 LINE SMOOTH",
"17 73 OFFCURVE",
"95 -15 OFFCURVE",
"316 -15 CURVE SMOOTH",
"497 -15 OFFCURVE",
"606 71 OFFCURVE",
"606 271 CURVE SMOOTH",
"606 670 LINE",
"381 670 LINE",
"381 269 LINE SMOOTH",
"381 199 OFFCURVE",
"365 165 OFFCURVE",
"305 165 CURVE SMOOTH"
);
}
);
width = 651;
}
);
rightMetricsKey = U;
unicode = 004A;
},
{
color = 7;
glyphname = K;
lastChange = "2017-06-07 11:41:15 +0000";
layers = (
{
background = {
paths = (
{
closed = 1;
nodes = (
"666 0 LINE",
"666 670 LINE",
"518 670 LINE",
"518 0 LINE"
);
},
{
closed = 1;
nodes = (
"223 0 LINE",
"223 670 LINE",
"75 670 LINE",
"75 0 LINE"
);
},
{
closed = 1;
nodes = (
"601 272 LINE",
"601 397 LINE",
"133 397 LINE",
"133 272 LINE"
);
}
);
};
layerId = "C76CAC8E-7AD6-478C-8F7E-02FEF6F1EA84";
paths = (
{
closed = 1;
nodes = (
"281 272 LINE",
"663 670 LINE",
"485 670 LINE",
"206 369 LINE",
"206 272 LINE"
);
},
{
closed = 1;
nodes = (
"223 0 LINE",
"223 670 LINE",
"75 670 LINE",
"75 0 LINE"
);
},
{
closed = 1;
nodes = (
"668 0 LINE",
"369 380 LINE",
"245 314 LINE",
"495 0 LINE"
);
}
);
width = 678;
},
{
background = {
paths = (
{
closed = 1;
nodes = (
"710 0 LINE",
"710 670 LINE",
"485 670 LINE",
"485 0 LINE"
);
},
{
closed = 1;
nodes = (
"275 0 LINE",
"275 670 LINE",
"50 670 LINE",
"50 0 LINE"
);
},
{
closed = 1;
nodes = (
"595 247 LINE",
"595 422 LINE",
"198 422 LINE",
"198 247 LINE"
);
}
);
};
layerId = "2D8239A6-199F-4292-A93F-56491AD13939";
paths = (
{
closed = 1;
nodes = (
"400 247 LINE",
"720 670 LINE",
"480 670 LINE",
"240 344 LINE",
"240 247 LINE"
);
},
{
closed = 1;
nodes = (
"275 0 LINE",
"275 670 LINE",
"50 670 LINE",
"50 0 LINE"
);
},
{
closed = 1;
nodes = (
"725 0 LINE",
"479 409 LINE",
"302 299 LINE",
"485 0 LINE"
);
}
);
width = 730;
}
);
leftMetricsKey = H;
unicode = 004B;
},
{
color = 11;
glyphname = L;
lastChange = "2017-05-31 16:46:37 +0000";
layers = (
{
layerId = "C76CAC8E-7AD6-478C-8F7E-02FEF6F1EA84";
paths = (
{
closed = 1;
nodes = (
"223 0 LINE",
"223 670 LINE",
"75 670 LINE",
"75 0 LINE"
);
},
{
closed = 1;
nodes = (
"528 0 LINE",
"528 125 LINE",
"170 125 LINE",
"170 0 LINE"
);
}
);
width = 548;
},
{
layerId = "2D8239A6-199F-4292-A93F-56491AD13939";
paths = (
{
closed = 1;
nodes = (
"275 0 LINE",
"275 670 LINE",
"50 670 LINE",
"50 0 LINE"
);
},
{
closed = 1;
nodes = (
"555 0 LINE",
"555 180 LINE",
"170 180 LINE",
"170 0 LINE"
);
}
);
width = 575;
}
);
leftMetricsKey = "=H";
unicode = 004C;
},
{
color = 7;
glyphname = M;
lastChange = "2017-06-07 14:13:20 +0000";
layers = (
{
background = {
paths = (
{
closed = 1;
nodes = (
"599 670 LINE",
"459 128 LINE",
"472 128 LINE",
"330 670 LINE",
"125 670 LINE",
"45 0 LINE",
"190 0 LINE",
"240 579 LINE",
"228 579 LINE",
"390 0 LINE",
"540 0 LINE",
"702 579 LINE",
"690 579 LINE",
"740 0 LINE",
"885 0 LINE",
"805 670 LINE"
);
}
);
};
layerId = "C76CAC8E-7AD6-478C-8F7E-02FEF6F1EA84";
paths = (
{
closed = 1;
nodes = (
"630 670 LINE",
"455 138 LINE",
"475 138 LINE",
"300 670 LINE",
"75 670 LINE",
"75 0 LINE",
"213 0 LINE",
"213 579 LINE",
"198 579 LINE",
"398 0 LINE",
"532 0 LINE",
"732 579 LINE",
"717 579 LINE",
"717 0 LINE",
"855 0 LINE",
"855 670 LINE"
);
}
);
width = 930;
},
{
background = {
paths = (
{
closed = 1;
nodes = (
"586 670 LINE",
"483 198 LINE",
"497 198 LINE",
"392 670 LINE",
"87 670 LINE",
"-13 0 LINE",
"210 0 LINE",
"270 529 LINE",
"260 528 LINE",
"377 0 LINE",
"602 0 LINE",
"719 528 LINE",
"709 529 LINE",
"769 0 LINE",
"982 0 LINE",
"882 670 LINE"
);
}
);
};
layerId = "2D8239A6-199F-4292-A93F-56491AD13939";
paths = (
{
closed = 1;
nodes = (
"622 670 LINE",
"477 188 LINE",
"497 188 LINE",
"352 670 LINE",
"50 670 LINE",
"50 0 LINE",
"245 0 LINE",
"245 529 LINE",
"227 529 LINE",
"400 0 LINE",
"574 0 LINE",
"747 529 LINE",
"729 529 LINE",
"729 0 LINE",
"924 0 LINE",
"924 670 LINE"
);
}
);
width = 974;
}
);
leftMetricsKey = H;
rightMetricsKey = H;
unicode = 004D;
},
{
color = 11;
glyphname = N;
lastChange = "2017-06-06 09:16:45 +0000";
layers = (
{
background = {
paths = (
{
closed = 1;
nodes = (
"226 670 LINE",
"75 670 LINE",
"75 0 LINE",
"220 0 LINE",
"220 540 LINE",
"170 540 LINE",
"525 0 LINE",
"676 0 LINE",
"676 670 LINE",
"531 670 LINE",
"531 130 LINE",
"581 130 LINE"
);
}
);
};
layerId = "C76CAC8E-7AD6-478C-8F7E-02FEF6F1EA84";
paths = (
{
closed = 1;
nodes = (
"225 670 LINE",
"75 670 LINE",
"75 0 LINE",
"213 0 LINE",
"213 540 LINE",
"160 540 LINE",
"526 0 LINE",
"676 0 LINE",
"676 670 LINE",
"538 670 LINE",
"538 130 LINE",
"591 130 LINE"
);
}
);
width = 751;
},
{
background = {
paths = (
{
closed = 1;
nodes = (
"710 0 LINE",
"710 670 LINE",
"485 670 LINE",
"485 0 LINE"
);
},
{
closed = 1;
nodes = (
"275 0 LINE",
"275 670 LINE",
"50 670 LINE",
"50 0 LINE"
);
},
{
closed = 1;
nodes = (
"595 247 LINE",
"595 422 LINE",
"168 422 LINE",
"168 247 LINE"
);
}
);
};
layerId = "2D8239A6-199F-4292-A93F-56491AD13939";
paths = (
{
closed = 1;
nodes = (
"285 670 LINE",
"50 670 LINE",
"50 0 LINE",
"255 0 LINE",
"255 540 LINE",
"172 540 LINE",
"495 0 LINE",
"730 0 LINE",
"730 670 LINE",
"525 670 LINE",
"525 130 LINE",
"608 130 LINE"
);
}
);
width = 780;
}
);
leftMetricsKey = "=H";
rightMetricsKey = "=H";
unicode = 004E;
},
{
color = 11;
glyphname = O;
lastChange = "2017-06-06 08:40:18 +0000";
layers = (
{
background = {
paths = (
{
closed = 1;
nodes = (
"612 -15 OFFCURVE",
"733 109 OFFCURVE",
"733 335 CURVE SMOOTH",
"733 562 OFFCURVE",
"612 685 OFFCURVE",
"374 685 CURVE SMOOTH",
"136 685 OFFCURVE",
"15 562 OFFCURVE",
"15 335 CURVE SMOOTH",
"15 109 OFFCURVE",
"136 -15 OFFCURVE",
"374 -15 CURVE SMOOTH"
);
},
{
closed = 1;
nodes = (
"229 110 OFFCURVE",
"168 194 OFFCURVE",
"168 335 CURVE SMOOTH",
"168 476 OFFCURVE",
"229 560 OFFCURVE",
"374 560 CURVE SMOOTH",
"519 560 OFFCURVE",
"580 476 OFFCURVE",
"580 335 CURVE SMOOTH",
"580 194 OFFCURVE",
"519 110 OFFCURVE",
"374 110 CURVE SMOOTH"
);
}
);
};
layerId = "C76CAC8E-7AD6-478C-8F7E-02FEF6F1EA84";
paths = (
{
closed = 1;
nodes = (
"587 -15 OFFCURVE",
"708 109 OFFCURVE",
"708 335 CURVE SMOOTH",
"708 562 OFFCURVE",
"587 685 OFFCURVE",
"374 685 CURVE SMOOTH",
"161 685 OFFCURVE",
"40 562 OFFCURVE",
"40 335 CURVE SMOOTH",
"40 109 OFFCURVE",
"161 -15 OFFCURVE",
"374 -15 CURVE SMOOTH"
);
},
{
closed = 1;
nodes = (
"249 110 OFFCURVE",
"193 194 OFFCURVE",
"193 335 CURVE SMOOTH",
"193 476 OFFCURVE",
"249 560 OFFCURVE",
"374 560 CURVE SMOOTH",
"499 560 OFFCURVE",
"555 476 OFFCURVE",
"555 335 CURVE SMOOTH",
"555 194 OFFCURVE",
"499 110 OFFCURVE",
"374 110 CURVE SMOOTH"
);
}
);
width = 748;
},
{
background = {
paths = (
{
closed = 1;
nodes = (
"605 -17 OFFCURVE",
"726 110 OFFCURVE",
"726 336 CURVE SMOOTH",
"726 563 OFFCURVE",
"605 689 OFFCURVE",
"387 689 CURVE SMOOTH",
"169 689 OFFCURVE",
"48 563 OFFCURVE",
"48 336 CURVE SMOOTH",
"48 110 OFFCURVE",
"169 -17 OFFCURVE",
"387 -17 CURVE SMOOTH"
);
},
{
closed = 1;
nodes = (
"313 173 OFFCURVE",
"278 222 OFFCURVE",
"278 336 CURVE SMOOTH",
"278 450 OFFCURVE",
"313 499 OFFCURVE",
"387 499 CURVE SMOOTH",
"461 499 OFFCURVE",
"496 450 OFFCURVE",
"496 336 CURVE SMOOTH",
"496 222 OFFCURVE",
"461 173 OFFCURVE",
"387 173 CURVE SMOOTH"
);
}
);
};
layerId = "2D8239A6-199F-4292-A93F-56491AD13939";
paths = (
{
closed = 1;
nodes = (
"625 -15 OFFCURVE",
"744 109 OFFCURVE",
"744 335 CURVE SMOOTH",
"744 562 OFFCURVE",
"625 685 OFFCURVE",
"387 685 CURVE SMOOTH",
"149 685 OFFCURVE",
"30 562 OFFCURVE",
"30 335 CURVE SMOOTH",
"30 109 OFFCURVE",
"149 -15 OFFCURVE",
"387 -15 CURVE SMOOTH"
);
},
{
closed = 1;
nodes = (
"293 165 OFFCURVE",
"258 226 OFFCURVE",
"258 335 CURVE SMOOTH",
"258 444 OFFCURVE",
"293 505 OFFCURVE",
"387 505 CURVE SMOOTH",
"481 505 OFFCURVE",
"516 444 OFFCURVE",
"516 335 CURVE SMOOTH",
"516 226 OFFCURVE",
"481 165 OFFCURVE",
"387 165 CURVE SMOOTH"
);
}
);
width = 774;
}
);
unicode = 004F;
},
{
color = 7;
glyphname = P;
lastChange = "2017-06-07 11:42:10 +0000";
layers = (
{
background = {
paths = (
{
closed = 1;
nodes = (
"223 0 LINE",
"223 670 LINE",
"75 670 LINE",
"75 0 LINE"
);
},
{
closed = 1;
nodes = (
"205 329 LINE",
"205 209 LINE",
"369 209 LINE SMOOTH",
"557 209 OFFCURVE",
"626 293 OFFCURVE",
"626 437 CURVE SMOOTH",
"626 582 OFFCURVE",
"557 670 OFFCURVE",
"379 670 CURVE SMOOTH",
"205 670 LINE",
"205 545 LINE",
"344 545 LINE SMOOTH",
"441 545 OFFCURVE",
"483 522 OFFCURVE",
"483 437 CURVE SMOOTH",
"483 352 OFFCURVE",
"441 329 OFFCURVE",
"344 329 CURVE SMOOTH"
);
}
);
};
layerId = "C76CAC8E-7AD6-478C-8F7E-02FEF6F1EA84";
paths = (
{
closed = 1;
nodes = (
"223 0 LINE",
"223 670 LINE",
"75 670 LINE",
"75 0 LINE"
);
},
{
closed = 1;
nodes = (
"205 354 LINE",
"205 234 LINE",
"369 234 LINE SMOOTH",
"557 234 OFFCURVE",
"626 318 OFFCURVE",
"626 452 CURVE SMOOTH",
"626 587 OFFCURVE",
"557 670 OFFCURVE",
"379 670 CURVE SMOOTH",
"205 670 LINE",
"205 545 LINE",
"344 545 LINE SMOOTH",
"441 545 OFFCURVE",
"483 527 OFFCURVE",
"483 452 CURVE SMOOTH",
"483 377 OFFCURVE",
"441 354 OFFCURVE",
"344 354 CURVE SMOOTH"
);
}
);
width = 656;
},
{
background = {
paths = (
{
closed = 1;
nodes = (
"275 0 LINE",
"275 670 LINE",
"50 670 LINE",
"50 0 LINE"
);
},
{
closed = 1;
nodes = (
"257 334 LINE",
"257 169 LINE",
"411 169 LINE SMOOTH",
"599 169 OFFCURVE",
"680 258 OFFCURVE",
"680 417 CURVE SMOOTH",
"680 582 OFFCURVE",
"599 670 OFFCURVE",
"421 670 CURVE SMOOTH",
"257 670 LINE",
"257 500 LINE",
"386 500 LINE SMOOTH",
"443 500 OFFCURVE",
"465 477 OFFCURVE",
"465 417 CURVE SMOOTH",
"465 357 OFFCURVE",
"443 334 OFFCURVE",
"386 334 CURVE SMOOTH"
);
}
);
};
layerId = "2D8239A6-199F-4292-A93F-56491AD13939";
paths = (
{
closed = 1;
nodes = (
"275 0 LINE",
"275 670 LINE",
"50 670 LINE",
"50 0 LINE"
);
},
{
closed = 1;
nodes = (
"257 354 LINE",
"257 189 LINE",
"411 189 LINE SMOOTH",
"599 189 OFFCURVE",
"680 278 OFFCURVE",
"680 427 CURVE SMOOTH",
"680 582 OFFCURVE",
"599 670 OFFCURVE",
"421 670 CURVE SMOOTH",
"257 670 LINE",
"257 500 LINE",
"386 500 LINE SMOOTH",
"443 500 OFFCURVE",
"465 477 OFFCURVE",
"465 427 CURVE SMOOTH",
"465 377 OFFCURVE",
"443 354 OFFCURVE",
"386 354 CURVE SMOOTH"
);
}
);
width = 700;
}
);
leftMetricsKey = H;
unicode = 0050;
},
{
color = 7;
glyphname = Q;
lastChange = "2017-06-07 11:56:59 +0000";
layers = (
{
background = {
components = (
{
name = O;
}
);
paths = (
{
closed = 1;
nodes = (
"711 -110 LINE",
"571 92 LINE",
"523 92 LINE",
"436 225 LINE",
"300 225 LINE",
"438 18 LINE",
"473 18 LINE",
"565 -110 LINE"
);
}
);
};
layerId = "C76CAC8E-7AD6-478C-8F7E-02FEF6F1EA84";
paths = (
{
closed = 1;
nodes = (
"701 -90 LINE",
"566 92 LINE",
"523 92 LINE",
"436 225 LINE",
"300 225 LINE",
"438 18 LINE",
"473 18 LINE",
"555 -90 LINE"
);
},
{
closed = 1;
nodes = (
"587 -15 OFFCURVE",
"708 109 OFFCURVE",
"708 335 CURVE SMOOTH",
"708 562 OFFCURVE",
"587 685 OFFCURVE",
"374 685 CURVE SMOOTH",
"161 685 OFFCURVE",
"40 562 OFFCURVE",
"40 335 CURVE SMOOTH",
"40 109 OFFCURVE",
"161 -15 OFFCURVE",
"374 -15 CURVE SMOOTH"
);
},
{
closed = 1;
nodes = (
"246 110 OFFCURVE",
"190 189 OFFCURVE",
"190 335 CURVE SMOOTH",
"190 476 OFFCURVE",
"246 560 OFFCURVE",
"374 560 CURVE SMOOTH",
"502 560 OFFCURVE",
"558 476 OFFCURVE",
"558 335 CURVE SMOOTH",
"558 189 OFFCURVE",
"502 110 OFFCURVE",
"374 110 CURVE SMOOTH"
);
}
);
width = 748;
},
{
background = {
components = (
{
name = O;
}
);
paths = (
{
closed = 1;
nodes = (
"746 -80 LINE",
"611 112 LINE",
"543 112 LINE",
"466 245 LINE",
"310 245 LINE",
"438 38 LINE",
"463 38 LINE",
"550 -80 LINE"
);
}
);
};
layerId = "2D8239A6-199F-4292-A93F-56491AD13939";
paths = (
{
closed = 1;
nodes = (
"746 -80 LINE",
"611 112 LINE",
"543 112 LINE",
"466 245 LINE",
"305 245 LINE",
"433 38 LINE",
"463 38 LINE",
"550 -80 LINE"
);
},
{
closed = 1;
nodes = (
"625 -15 OFFCURVE",
"744 109 OFFCURVE",
"744 335 CURVE SMOOTH",
"744 562 OFFCURVE",
"625 685 OFFCURVE",
"387 685 CURVE SMOOTH",
"149 685 OFFCURVE",
"30 562 OFFCURVE",
"30 335 CURVE SMOOTH",
"30 109 OFFCURVE",
"149 -15 OFFCURVE",
"387 -15 CURVE SMOOTH"
);
},
{
closed = 1;
nodes = (
"288 160 OFFCURVE",
"253 216 OFFCURVE",
"253 335 CURVE SMOOTH",
"253 444 OFFCURVE",
"288 505 OFFCURVE",
"387 505 CURVE SMOOTH",
"486 505 OFFCURVE",
"521 444 OFFCURVE",
"521 335 CURVE SMOOTH",
"521 216 OFFCURVE",
"486 160 OFFCURVE",
"387 160 CURVE SMOOTH"
);
}
);
width = 774;
}
);
unicode = 0051;
},
{
color = 7;
glyphname = R;
lastChange = "2017-06-07 11:42:10 +0000";
layers = (
{
background = {
paths = (
{
closed = 1;
nodes = (
"223 0 LINE",
"223 670 LINE",
"75 670 LINE",
"75 0 LINE"
);
},
{
closed = 1;
nodes = (
"205 339 LINE",
"205 219 LINE",
"359 219 LINE SMOOTH",
"547 219 OFFCURVE",
"626 303 OFFCURVE",
"626 442 CURVE SMOOTH",
"626 582 OFFCURVE",
"557 670 OFFCURVE",
"379 670 CURVE SMOOTH",
"205 670 LINE",
"205 545 LINE",
"344 545 LINE SMOOTH",
"441 545 OFFCURVE",
"483 522 OFFCURVE",
"483 442 CURVE SMOOTH",
"483 362 OFFCURVE",
"441 339 OFFCURVE",
"344 339 CURVE SMOOTH"
);
},
{
closed = 1;
nodes = (
"621 0 LINE",
"519 151 LINE SMOOTH",
"486 199 OFFCURVE",
"462 240 OFFCURVE",
"403 240 CURVE",
"246 219 LINE",
"310 219 OFFCURVE",
"326 205 OFFCURVE",
"362 151 CURVE SMOOTH",
"461 0 LINE"
);
}
);
};
layerId = "C76CAC8E-7AD6-478C-8F7E-02FEF6F1EA84";
paths = (
{
closed = 1;
nodes = (
"223 0 LINE",
"223 670 LINE",
"75 670 LINE",
"75 0 LINE"
);
},
{
closed = 1;
nodes = (
"205 364 LINE",
"205 249 LINE",
"356 249 LINE SMOOTH",
"544 249 OFFCURVE",
"626 328 OFFCURVE",
"626 457 CURVE SMOOTH",
"626 587 OFFCURVE",
"557 670 OFFCURVE",
"379 670 CURVE SMOOTH",
"205 670 LINE",
"205 545 LINE",
"344 545 LINE SMOOTH",
"441 545 OFFCURVE",
"483 527 OFFCURVE",
"483 457 CURVE SMOOTH",
"483 387 OFFCURVE",
"441 364 OFFCURVE",
"344 364 CURVE SMOOTH"
);
},
{
closed = 1;
nodes = (
"621 0 LINE",
"426 313 LINE",
"272 313 LINE",
"461 0 LINE"
);
}
);
width = 671;
},
{
annotations = (
{
position = "{308, 809}";
text = "Counter sits a little too low. Same in P.";
type = Text;
}
);
background = {
paths = (
{
closed = 1;
nodes = (
"275 0 LINE",
"275 670 LINE",
"50 670 LINE",
"50 0 LINE"
);
},
{
closed = 1;
nodes = (
"257 339 LINE",
"257 179 LINE",
"411 179 LINE SMOOTH",
"599 179 OFFCURVE",
"680 258 OFFCURVE",
"680 417 CURVE SMOOTH",
"680 582 OFFCURVE",
"599 670 OFFCURVE",
"421 670 CURVE SMOOTH",
"257 670 LINE",
"257 495 LINE",
"386 495 LINE SMOOTH",
"443 495 OFFCURVE",
"465 472 OFFCURVE",
"465 417 CURVE SMOOTH",
"465 362 OFFCURVE",
"443 339 OFFCURVE",
"386 339 CURVE SMOOTH"
);
},
{
closed = 1;
nodes = (
"685 0 LINE",
"589 139 LINE SMOOTH",
"561 179 OFFCURVE",
"545 196 OFFCURVE",
"502 196 CURVE",
"272 179 LINE",
"323 179 OFFCURVE",
"332 163 OFFCURVE",
"362 115 CURVE SMOOTH",
"435 0 LINE"
);
}
);
};
layerId = "2D8239A6-199F-4292-A93F-56491AD13939";
paths = (
{
closed = 1;
nodes = (
"275 0 LINE",
"275 670 LINE",
"50 670 LINE",
"50 0 LINE"
);
},
{
closed = 1;
nodes = (
"257 364 LINE",
"257 209 LINE",
"411 209 LINE SMOOTH",
"599 209 OFFCURVE",
"680 288 OFFCURVE",
"680 432 CURVE SMOOTH",
"680 582 OFFCURVE",
"599 670 OFFCURVE",
"421 670 CURVE SMOOTH",
"257 670 LINE",
"257 500 LINE",
"386 500 LINE SMOOTH",
"443 500 OFFCURVE",
"465 477 OFFCURVE",
"465 432 CURVE SMOOTH",
"465 387 OFFCURVE",
"443 364 OFFCURVE",
"386 364 CURVE SMOOTH"
);
},
{
closed = 1;
nodes = (
"685 0 LINE",
"506 288 LINE",
"272 288 LINE",
"435 0 LINE"
);
}
);
width = 710;
}
);
leftMetricsKey = H;
unicode = 0052;
},
{
color = 7;
glyphname = S;
lastChange = "2017-06-08 11:14:31 +0000";
layers = (
{
background = {
paths = (
{
closed = 1;
nodes = (
"473 -15 OFFCURVE",
"581 52 OFFCURVE",
"581 186 CURVE SMOOTH",
"581 301 OFFCURVE",
"525 363 OFFCURVE",
"402 383 CURVE SMOOTH",
"297 400 LINE SMOOTH",
"226 411 OFFCURVE",
"198 440 OFFCURVE",
"198 491 CURVE SMOOTH",
"198 548 OFFCURVE",
"238 570 OFFCURVE",
"315 570 CURVE SMOOTH",
"390 570 OFFCURVE",
"411 531 OFFCURVE",
"421 476 CURVE SMOOTH",
"423 465 LINE",
"564 465 LINE",
"561 487 LINE SMOOTH",
"545 605 OFFCURVE",
"474 685 OFFCURVE",
"313 685 CURVE SMOOTH",
"155 685 OFFCURVE",
"60 614 OFFCURVE",
"60 486 CURVE SMOOTH",
"60 370 OFFCURVE",
"126 305 OFFCURVE",
"241 286 CURVE SMOOTH",
"345 269 LINE SMOOTH",
"414 258 OFFCURVE",
"442 229 OFFCURVE",
"442 180 CURVE SMOOTH",
"442 123 OFFCURVE",
"403 100 OFFCURVE",
"323 100 CURVE SMOOTH",
"244 100 OFFCURVE",
"215 117 OFFCURVE",
"203 178 CURVE SMOOTH",
"201 188 LINE",
"59 188 LINE",
"61 171 LINE SMOOTH",
"76 42 OFFCURVE",
"165 -15 OFFCURVE",
"320 -15 CURVE SMOOTH"
);
}
);
};
layerId = "C76CAC8E-7AD6-478C-8F7E-02FEF6F1EA84";
paths = (
{
closed = 1;
nodes = (
"480 -15 OFFCURVE",
"593 47 OFFCURVE",
"593 186 CURVE SMOOTH",
"593 306 OFFCURVE",
"527 355 OFFCURVE",
"384 385 CURVE SMOOTH",
"307 401 LINE SMOOTH",
"226 418 OFFCURVE",
"188 440 OFFCURVE",
"188 491 CURVE SMOOTH",
"188 538 OFFCURVE",
"220 567 OFFCURVE",
"302 567 CURVE SMOOTH",
"387 567 OFFCURVE",
"419 526 OFFCURVE",
"428 476 CURVE SMOOTH",
"430 465 LINE",
"580 465 LINE",
"578 487 LINE SMOOTH",
"567 606 OFFCURVE",
"489 685 OFFCURVE",
"313 685 CURVE SMOOTH",
"145 685 OFFCURVE",
"45 619 OFFCURVE",
"45 491 CURVE SMOOTH",
"45 370 OFFCURVE",
"121 310 OFFCURVE",
"256 283 CURVE SMOOTH",
"332 268 LINE SMOOTH",
"421 250 OFFCURVE",
"449 229 OFFCURVE",
"449 180 CURVE SMOOTH",
"449 133 OFFCURVE",
"415 103 OFFCURVE",
"330 103 CURVE SMOOTH",
"256 103 OFFCURVE",
"206 122 OFFCURVE",
"195 178 CURVE SMOOTH",
"193 188 LINE",
"40 188 LINE",
"41 171 LINE SMOOTH",
"49 41 OFFCURVE",
"157 -15 OFFCURVE",
"317 -15 CURVE SMOOTH"
);
}
);
width = 633;
},
{
annotations = (
{
position = "{307, 816}";
text = "Character too wide, stretched. Visible in counters";
type = Text;
},
{
position = "{129, 621}";
text = "Shoulder bit too squarish";
type = Text;
}
);
background = {
paths = (
{
closed = 1;
nodes = (
"577 -16 OFFCURVE",
"673 46 OFFCURVE",
"673 197 CURVE SMOOTH",
"673 316 OFFCURVE",
"620 381 OFFCURVE",
"457 406 CURVE SMOOTH",
"360 421 LINE SMOOTH",
"274 434 OFFCURVE",
"263 445 OFFCURVE",
"263 476 CURVE SMOOTH",
"263 499 OFFCURVE",
"279 520 OFFCURVE",
"355 520 CURVE SMOOTH",
"431 520 OFFCURVE",
"449 498 OFFCURVE",
"453 470 CURVE SMOOTH",
"454 463 LINE",
"671 463 LINE",
"669 479 LINE SMOOTH",
"650 628 OFFCURVE",
"562 685 OFFCURVE",
"348 685 CURVE SMOOTH",
"123 685 OFFCURVE",
"34 618 OFFCURVE",
"34 470 CURVE SMOOTH",
"34 352 OFFCURVE",
"96 286 OFFCURVE",
"259 261 CURVE SMOOTH",
"345 248 LINE SMOOTH",
"434 235 OFFCURVE",
"446 224 OFFCURVE",
"446 192 CURVE SMOOTH",
"446 170 OFFCURVE",
"429 149 OFFCURVE",
"348 149 CURVE SMOOTH",
"273 149 OFFCURVE",
"254 173 OFFCURVE",
"251 201 CURVE SMOOTH",
"250 212 LINE",
"26 212 LINE",
"27 196 LINE SMOOTH",
"37 36 OFFCURVE",
"142 -16 OFFCURVE",
"352 -16 CURVE SMOOTH"
);
}
);
};
layerId = "2D8239A6-199F-4292-A93F-56491AD13939";
paths = (
{
closed = 1;
nodes = (
"575 -16 OFFCURVE",
"671 56 OFFCURVE",
"671 197 CURVE SMOOTH",
"671 316 OFFCURVE",
"618 381 OFFCURVE",
"457 406 CURVE SMOOTH",
"360 421 LINE SMOOTH",
"274 434 OFFCURVE",
"263 445 OFFCURVE",
"263 476 CURVE SMOOTH",
"263 499 OFFCURVE",
"279 520 OFFCURVE",
"355 520 CURVE SMOOTH",
"426 520 OFFCURVE",
"444 498 OFFCURVE",
"448 470 CURVE SMOOTH",
"449 463 LINE",
"669 463 LINE",
"667 479 LINE SMOOTH",
"648 628 OFFCURVE",
"560 685 OFFCURVE",
"348 685 CURVE SMOOTH",
"127 685 OFFCURVE",
"38 618 OFFCURVE",
"38 480 CURVE SMOOTH",
"38 362 OFFCURVE",
"100 285 OFFCURVE",
"259 261 CURVE SMOOTH",
"345 248 LINE SMOOTH",
"434 235 OFFCURVE",
"446 224 OFFCURVE",
"446 192 CURVE SMOOTH",
"446 160 OFFCURVE",
"419 149 OFFCURVE",
"348 149 CURVE SMOOTH",
"273 149 OFFCURVE",
"254 173 OFFCURVE",
"251 201 CURVE SMOOTH",
"250 212 LINE",
"30 212 LINE",
"31 196 LINE SMOOTH",
"41 36 OFFCURVE",
"146 -16 OFFCURVE",
"352 -16 CURVE SMOOTH"
);
}
);
width = 701;
}
);
leftMetricsKey = O;
rightMetricsKey = O;
unicode = 0053;
},
{
color = 11;
glyphname = T;
lastChange = "2017-06-06 09:24:37 +0000";
layers = (
{
background = {
paths = (
{
closed = 1;
nodes = (
"360 0 LINE",
"360 620 LINE",
"215 620 LINE",
"215 0 LINE"
);
},
{
closed = 1;
nodes = (
"562 550 LINE",
"562 670 LINE",
"15 670 LINE",
"15 550 LINE"
);
}
);
};
layerId = "C76CAC8E-7AD6-478C-8F7E-02FEF6F1EA84";
paths = (
{
closed = 1;
nodes = (
"363 0 LINE",
"363 620 LINE",
"215 620 LINE",
"215 0 LINE"
);
},
{
closed = 1;
nodes = (
"568 545 LINE",
"568 670 LINE",
"10 670 LINE",
"10 545 LINE"
);
}
);
width = 578;
},
{
background = {
paths = (
{
closed = 1;
nodes = (
"393 0 LINE",
"393 620 LINE",
"245 620 LINE",
"245 0 LINE"
);
},
{
closed = 1;
nodes = (
"603 545 LINE",
"603 670 LINE",
"35 670 LINE",
"35 545 LINE"
);
}
);
};
layerId = "2D8239A6-199F-4292-A93F-56491AD13939";
paths = (
{
closed = 1;
nodes = (
"430 0 LINE",
"430 620 LINE",
"205 620 LINE",
"205 0 LINE"
);
},
{
closed = 1;
nodes = (
"625 490 LINE",
"625 670 LINE",
"10 670 LINE",
"10 490 LINE"
);
}
);
width = 635;
}
);
unicode = 0054;
},
{
color = 11;
glyphname = U;
lastChange = "2017-06-02 13:14:10 +0000";
layers = (
{
background = {
paths = (
{
closed = 1;
nodes = (
"581 -15 OFFCURVE",
"702 109 OFFCURVE",
"702 335 CURVE SMOOTH",
"702 562 OFFCURVE",
"581 685 OFFCURVE",
"363 685 CURVE SMOOTH",
"145 685 OFFCURVE",
"24 562 OFFCURVE",
"24 335 CURVE SMOOTH",
"24 109 OFFCURVE",
"145 -15 OFFCURVE",
"363 -15 CURVE SMOOTH"
);
},
{
closed = 1;
nodes = (
"233 110 OFFCURVE",
"177 194 OFFCURVE",
"177 335 CURVE SMOOTH",
"177 476 OFFCURVE",
"233 560 OFFCURVE",
"363 560 CURVE SMOOTH",
"493 560 OFFCURVE",
"549 476 OFFCURVE",
"549 335 CURVE SMOOTH",
"549 194 OFFCURVE",
"493 110 OFFCURVE",
"363 110 CURVE SMOOTH"
);
}
);
};
layerId = "C76CAC8E-7AD6-478C-8F7E-02FEF6F1EA84";
paths = (
{
closed = 1;
nodes = (
"70 670 LINE",
"70 295 LINE SMOOTH",
"70 79 OFFCURVE",
"165 -15 OFFCURVE",
"363 -15 CURVE SMOOTH",
"561 -15 OFFCURVE",
"656 79 OFFCURVE",
"656 295 CURVE SMOOTH",
"656 670 LINE",
"508 670 LINE",
"508 305 LINE SMOOTH",
"508 164 OFFCURVE",
"468 110 OFFCURVE",
"363 110 CURVE SMOOTH",
"258 110 OFFCURVE",
"218 164 OFFCURVE",
"218 305 CURVE SMOOTH",
"218 670 LINE"
);
}
);
width = 726;
},
{
background = {
paths = (
{
closed = 1;
nodes = (
"608 -15 OFFCURVE",
"729 109 OFFCURVE",
"729 335 CURVE SMOOTH",
"729 562 OFFCURVE",
"608 685 OFFCURVE",
"370 685 CURVE SMOOTH",
"132 685 OFFCURVE",
"11 562 OFFCURVE",
"11 335 CURVE SMOOTH",
"11 109 OFFCURVE",
"132 -15 OFFCURVE",
"370 -15 CURVE SMOOTH"
);
},
{
closed = 1;
nodes = (
"276 170 OFFCURVE",
"241 226 OFFCURVE",
"241 335 CURVE SMOOTH",
"241 444 OFFCURVE",
"276 500 OFFCURVE",
"370 500 CURVE SMOOTH",
"464 500 OFFCURVE",
"499 444 OFFCURVE",
"499 335 CURVE SMOOTH",
"499 226 OFFCURVE",
"464 170 OFFCURVE",
"370 170 CURVE SMOOTH"
);
}
);
};
layerId = "2D8239A6-199F-4292-A93F-56491AD13939";
paths = (
{
closed = 1;
nodes = (
"45 670 LINE",
"45 305 LINE SMOOTH",
"45 79 OFFCURVE",
"141 -15 OFFCURVE",
"370 -15 CURVE SMOOTH",
"599 -15 OFFCURVE",
"695 79 OFFCURVE",
"695 305 CURVE SMOOTH",
"695 670 LINE",
"470 670 LINE",
"470 315 LINE SMOOTH",
"470 216 OFFCURVE",
"455 170 OFFCURVE",
"370 170 CURVE SMOOTH",
"285 170 OFFCURVE",
"270 216 OFFCURVE",
"270 315 CURVE SMOOTH",
"270 670 LINE"
);
}
);
width = 740;
}
);
unicode = 0055;
},
{
color = 11;
glyphname = V;
lastChange = "2017-06-02 15:00:17 +0000";
layers = (
{
background = {
paths = (
{
closed = 1;
nodes = (
"350 0 LINE",
"163 670 LINE",
"5 670 LINE",
"215 0 LINE"
);
},
{
closed = 1;
nodes = (
"652 670 LINE",
"494 670 LINE",
"307 0 LINE",
"442 0 LINE"
);
}
);
};
layerId = "C76CAC8E-7AD6-478C-8F7E-02FEF6F1EA84";
paths = (
{
closed = 1;
nodes = (
"360 0 LINE",
"163 670 LINE",
"5 670 LINE",
"225 0 LINE"
);
},
{
closed = 1;
nodes = (
"652 670 LINE",
"494 670 LINE",
"297 0 LINE",
"432 0 LINE"
);
}
);
width = 657;
},
{
background = {
paths = (
{
closed = 1;
nodes = (
"390 0 LINE",
"245 670 LINE",
"10 670 LINE",
"194 0 LINE"
);
},
{
closed = 1;
nodes = (
"705 670 LINE",
"470 670 LINE",
"325 0 LINE",
"521 0 LINE"
);
}
);
};
layerId = "2D8239A6-199F-4292-A93F-56491AD13939";
paths = (
{
closed = 1;
nodes = (
"390 0 LINE",
"240 670 LINE",
"5 670 LINE",
"194 0 LINE"
);
},
{
closed = 1;
nodes = (
"710 670 LINE",
"475 670 LINE",
"325 0 LINE",
"521 0 LINE"
);
}
);
width = 715;
}
);
unicode = 0056;
},
{
color = 11;
glyphname = W;
lastChange = "2017-06-06 08:39:40 +0000";
layers = (
{
background = {
paths = (
{
closed = 1;
nodes = (
"290 0 LINE",
"153 670 LINE",
"-5 670 LINE",
"155 0 LINE"
);
},
{
closed = 1;
nodes = (
"512 670 LINE",
"389 670 LINE",
"247 0 LINE",
"372 0 LINE"
);
},
{
closed = 1;
nodes = (
"720 0 LINE",
"578 670 LINE",
"455 670 LINE",
"595 0 LINE"
);
},
{
closed = 1;
nodes = (
"972 670 LINE",
"814 670 LINE",
"677 0 LINE",
"812 0 LINE"
);
}
);
};
layerId = "C76CAC8E-7AD6-478C-8F7E-02FEF6F1EA84";
paths = (
{
closed = 1;
nodes = (
"290 0 LINE",
"163 670 LINE",
"5 670 LINE",
"160 0 LINE"
);
},
{
closed = 1;
nodes = (
"504 670 LINE",
"384 670 LINE",
"247 0 LINE",
"374 0 LINE"
);
},
{
closed = 1;
nodes = (
"720 0 LINE",
"583 670 LINE",
"463 670 LINE",
"593 0 LINE"
);
},
{
closed = 1;
nodes = (
"962 670 LINE",
"804 670 LINE",
"677 0 LINE",
"807 0 LINE"
);
}
);
width = 967;
},
{
background = {
paths = (
{
closed = 1;
nodes = (
"360 0 LINE",
"230 670 LINE",
"-5 670 LINE",
"164 0 LINE"
);
},
{
closed = 1;
nodes = (
"600 670 LINE",
"425 670 LINE",
"295 0 LINE",
"471 0 LINE"
);
},
{
closed = 1;
nodes = (
"820 0 LINE",
"690 670 LINE",
"515 670 LINE",
"644 0 LINE"
);
},
{
closed = 1;
nodes = (
"1120 670 LINE",
"885 670 LINE",
"755 0 LINE",
"951 0 LINE"
);
}
);
};
layerId = "2D8239A6-199F-4292-A93F-56491AD13939";
paths = (
{
closed = 1;
nodes = (
"365 0 LINE",
"240 670 LINE",
"5 670 LINE",
"169 0 LINE"
);
},
{
closed = 1;
nodes = (
"585 670 LINE",
"425 670 LINE",
"300 0 LINE",
"466 0 LINE"
);
},
{
closed = 1;
nodes = (
"795 0 LINE",
"670 670 LINE",
"510 670 LINE",
"629 0 LINE"
);
},
{
closed = 1;
nodes = (
"1090 670 LINE",
"855 670 LINE",
"730 0 LINE",
"926 0 LINE"
);
}
);
width = 1095;
}
);
unicode = 0057;
},
{
color = 11;
glyphname = X;
lastChange = "2017-06-06 09:25:48 +0000";
layers = (
{
background = {
paths = (
{
closed = 1;
nodes = (
"178 0 LINE",
"336 296 LINE",
"414 296 LINE",
"623 670 LINE",
"465 670 LINE",
"312 378 LINE",
"232 378 LINE",
"20 0 LINE"
);
},
{
closed = 1;
nodes = (
"623 0 LINE",
"414 378 LINE",
"329 378 LINE",
"178 670 LINE",
"20 670 LINE",
"224 296 LINE",
"307 296 LINE",
"465 0 LINE"
);
}
);
};
layerId = "C76CAC8E-7AD6-478C-8F7E-02FEF6F1EA84";
paths = (
{
closed = 1;
nodes = (
"168 0 LINE",
"341 296 LINE",
"407 296 LINE",
"638 670 LINE",
"475 670 LINE",
"307 378 LINE",
"239 378 LINE",
"5 0 LINE"
);
},
{
closed = 1;
nodes = (
"638 0 LINE",
"409 378 LINE",
"342 378 LINE",
"168 670 LINE",
"5 670 LINE",
"229 296 LINE",
"299 296 LINE",
"475 0 LINE"
);
}
);
width = 643;
},
{
background = {
paths = (
{
closed = 1;
nodes = (
"740 0 LINE",
"484 395 LINE",
"421 401 LINE",
"270 670 LINE",
"25 670 LINE",
"252 295 LINE",
"326 281 LINE",
"495 0 LINE"
);
},
{
closed = 1;
nodes = (
"281 388 LINE",
"15 0 LINE",
"260 0 LINE",
"419 288 LINE"
);
},
{
closed = 1;
nodes = (
"463 284 LINE",
"730 670 LINE",
"485 670 LINE",
"323 384 LINE"
);
}
);
};
layerId = "2D8239A6-199F-4292-A93F-56491AD13939";
paths = (
{
closed = 1;
nodes = (
"711 0 LINE",
"509 371 LINE",
"395 371 LINE",
"252 670 LINE",
"12 670 LINE",
"203 317 LINE",
"318 317 LINE",
"471 0 LINE"
);
},
{
closed = 1;
nodes = (
"250 0 LINE",
"403 317 LINE",
"513 317 LINE",
"709 670 LINE",
"469 670 LINE",
"326 371 LINE",
"217 371 LINE",
"10 0 LINE"
);
}
);
width = 721;
}
);
unicode = 0058;
},
{
color = 11;
glyphname = Y;
lastChange = "2017-06-02 14:22:55 +0000";
layers = (
{
background = {
paths = (
{
closed = 1;
nodes = (
"404 0 LINE",
"404 323 LINE",
"398 270 LINE",
"658 670 LINE",
"509 670 LINE",
"313 360 LINE",
"350 360 LINE",
"154 670 LINE",
"5 670 LINE",
"265 270 LINE",
"259 323 LINE",
"259 0 LINE"
);
}
);
};
layerId = "C76CAC8E-7AD6-478C-8F7E-02FEF6F1EA84";
paths = (
{
closed = 1;
nodes = (
"407 0 LINE",
"407 293 LINE",
"401 240 LINE",
"661 670 LINE",
"498 670 LINE",
"312 350 LINE",
"354 350 LINE",
"168 670 LINE",
"5 670 LINE",
"265 240 LINE",
"259 293 LINE",
"259 0 LINE"
);
}
);
width = 666;
},
{
background = {
paths = (
{
closed = 1;
nodes = (
"484 0 LINE",
"484 293 LINE",
"478 240 LINE",
"738 670 LINE",
"503 670 LINE",
"339 380 LINE",
"404 380 LINE",
"240 670 LINE",
"5 670 LINE",
"265 240 LINE",
"259 293 LINE",
"259 0 LINE"
);
}
);
};
layerId = "2D8239A6-199F-4292-A93F-56491AD13939";
paths = (
{
closed = 1;
nodes = (
"484 0 LINE",
"484 283 LINE",
"478 230 LINE",
"738 670 LINE",
"503 670 LINE",
"339 380 LINE",
"404 380 LINE",
"240 670 LINE",
"5 670 LINE",
"265 230 LINE",
"259 283 LINE",
"259 0 LINE"
);
}
);
width = 743;
}
);
unicode = 0059;
},
{
color = 11;
glyphname = Z;
lastChange = "2017-06-06 08:38:34 +0000";
layers = (
{
layerId = "C76CAC8E-7AD6-478C-8F7E-02FEF6F1EA84";
paths = (
{
closed = 1;
nodes = (
"571 550 LINE",
"571 670 LINE",
"55 670 LINE",
"55 545 LINE",
"399 545 LINE",
"45 120 LINE",
"45 0 LINE",
"571 0 LINE",
"571 125 LINE",
"217 125 LINE"
);
}
);
width = 616;
},
{
background = {
paths = (
{
closed = 1;
nodes = (
"636 495 LINE",
"636 670 LINE",
"50 670 LINE",
"50 490 LINE",
"366 490 LINE",
"40 175 LINE",
"40 0 LINE",
"636 0 LINE",
"636 180 LINE",
"310 180 LINE"
);
}
);
};
layerId = "2D8239A6-199F-4292-A93F-56491AD13939";
paths = (
{
closed = 1;
nodes = (
"636 495 LINE",
"636 670 LINE",
"50 670 LINE",
"50 490 LINE",
"356 490 LINE",
"40 175 LINE",
"40 0 LINE",
"636 0 LINE",
"636 180 LINE",
"320 180 LINE"
);
}
);
width = 676;
}
);
unicode = 005A;
},
{
glyphname = a;
lastChange = "2017-06-06 10:07:03 +0000";
layers = (
{
associatedMasterId = "C76CAC8E-7AD6-478C-8F7E-02FEF6F1EA84";
background = {
paths = (
{
closed = 0;
nodes = (
"492 214 LINE",
"492 80 OFFCURVE",
"395 -13 OFFCURVE",
"264 -13 CURVE SMOOTH",
"163 -13 OFFCURVE",
"103 35 OFFCURVE",
"103 121 CURVE SMOOTH",
"103 194 OFFCURVE",
"146 233 OFFCURVE",
"236 255 CURVE SMOOTH",
"438 304 LINE SMOOTH",
"475 313 OFFCURVE",
"490 324 OFFCURVE",
"492 348 CURVE"
);
},
{
closed = 0;
nodes = (
"492 0 LINE",
"492 387 LINE SMOOTH",
"492 477 OFFCURVE",
"431 540 OFFCURVE",
"317 540 CURVE SMOOTH",
"219 540 OFFCURVE",
"153 504 OFFCURVE",
"132 434 CURVE SMOOTH",
"124 408 LINE"
);
}
);
};
layerId = "9762333F-7271-4369-B2AD-A6F30ED89E0B";
name = "Universal Jul 20 16, 17:13";
paths = (
{
closed = 0;
nodes = (
"492 214 LINE",
"492 80 OFFCURVE",
"395 -13 OFFCURVE",
"264 -13 CURVE SMOOTH",
"163 -13 OFFCURVE",
"103 35 OFFCURVE",
"103 121 CURVE SMOOTH",
"103 194 OFFCURVE",
"146 233 OFFCURVE",
"236 255 CURVE SMOOTH",
"438 304 LINE SMOOTH",
"475 313 OFFCURVE",
"490 324 OFFCURVE",
"492 348 CURVE"
);
},
{
closed = 0;
nodes = (
"492 0 LINE",
"492 387 LINE SMOOTH",
"492 477 OFFCURVE",
"431 540 OFFCURVE",
"317 540 CURVE SMOOTH",
"219 540 OFFCURVE",
"153 504 OFFCURVE",
"132 434 CURVE SMOOTH",
"124 408 LINE"
);
}
);
width = 600;
},
{
associatedMasterId = "C76CAC8E-7AD6-478C-8F7E-02FEF6F1EA84";
background = {
paths = (
{
closed = 1;
nodes = (
"482 0 LINE",
"482 362 LINE SMOOTH",
"482 472 OFFCURVE",
"406 540 OFFCURVE",
"276 540 CURVE SMOOTH",
"143 540 OFFCURVE",
"70 475 OFFCURVE",
"53 379 CURVE SMOOTH",
"48 351 LINE",
"189 350 LINE",
"193 367 LINE SMOOTH",
"200 402 OFFCURVE",
"226 422 OFFCURVE",
"275 422 CURVE SMOOTH",
"324 422 OFFCURVE",
"350 396 OFFCURVE",
"350 358 CURVE SMOOTH",
"350 0 LINE"
);
},
{
closed = 1;
nodes = (
"183 183 OFFCURVE",
"201 201 OFFCURVE",
"242 210 CURVE SMOOTH",
"341 230 LINE SMOOTH",
"379 238 OFFCURVE",
"418 261 OFFCURVE",
"421 300 CURVE",
"421 363 LINE",
"394 361 LINE",
"392 337 OFFCURVE",
"376 325 OFFCURVE",
"341 318 CURVE SMOOTH",
"193 289 LINE SMOOTH",
"83 267 OFFCURVE",
"34 223 OFFCURVE",
"34 133 CURVE SMOOTH",
"34 43 OFFCURVE",
"100 -15 OFFCURVE",
"202 -15 CURVE SMOOTH",
"336 -15 OFFCURVE",
"379 80 OFFCURVE",
"373 209 CURVE",
"350 209 LINE",
"350 127 OFFCURVE",
"310 97 OFFCURVE",
"249 97 CURVE SMOOTH",
"204 97 OFFCURVE",
"183 121 OFFCURVE",
"183 153 CURVE SMOOTH"
);
}
);
};
layerId = "5958D719-7540-41AC-BC96-C92AA4CA99E2";
name = "Bold Universal Display Jul 24 16, 18:39";
paths = (
{
closed = 1;
nodes = (
"482 0 LINE",
"482 362 LINE SMOOTH",
"482 472 OFFCURVE",
"406 540 OFFCURVE",
"276 540 CURVE SMOOTH",
"143 540 OFFCURVE",
"70 475 OFFCURVE",
"53 379 CURVE SMOOTH",
"48 351 LINE",
"189 350 LINE",
"193 367 LINE SMOOTH",
"200 402 OFFCURVE",
"226 422 OFFCURVE",
"275 422 CURVE SMOOTH",
"324 422 OFFCURVE",
"350 396 OFFCURVE",
"350 358 CURVE SMOOTH",
"350 0 LINE"
);
},
{
closed = 1;
nodes = (
"183 183 OFFCURVE",
"201 201 OFFCURVE",
"242 210 CURVE SMOOTH",
"341 230 LINE SMOOTH",
"379 238 OFFCURVE",
"418 261 OFFCURVE",
"421 300 CURVE",
"421 363 LINE",
"394 361 LINE",
"392 337 OFFCURVE",
"376 325 OFFCURVE",
"341 318 CURVE SMOOTH",
"193 289 LINE SMOOTH",
"83 267 OFFCURVE",
"34 223 OFFCURVE",
"34 133 CURVE SMOOTH",
"34 43 OFFCURVE",
"100 -15 OFFCURVE",
"202 -15 CURVE SMOOTH",
"336 -15 OFFCURVE",
"379 80 OFFCURVE",
"373 209 CURVE",
"350 209 LINE",
"350 127 OFFCURVE",
"310 97 OFFCURVE",
"249 97 CURVE SMOOTH",
"204 97 OFFCURVE",
"183 121 OFFCURVE",
"183 153 CURVE SMOOTH"
);
}
);
width = 531;
},
{
associatedMasterId = "C76CAC8E-7AD6-478C-8F7E-02FEF6F1EA84";
background = {
paths = (
{
closed = 1;
nodes = (
"482 0 LINE",
"482 362 LINE SMOOTH",
"482 472 OFFCURVE",
"406 540 OFFCURVE",
"276 540 CURVE SMOOTH",
"157 540 OFFCURVE",
"79 485 OFFCURVE",
"52 379 CURVE SMOOTH",
"45 351 LINE",
"188 350 LINE",
"194 367 LINE SMOOTH",
"207 405 OFFCURVE",
"231 424 OFFCURVE",
"277 424 CURVE SMOOTH",
"328 424 OFFCURVE",
"350 396 OFFCURVE",
"350 358 CURVE SMOOTH",
"350 0 LINE"
);
},
{
closed = 1;
nodes = (
"183 183 OFFCURVE",
"201 202 OFFCURVE",
"242 210 CURVE SMOOTH",
"356 233 LINE SMOOTH",
"394 241 OFFCURVE",
"433 264 OFFCURVE",
"436 303 CURVE",
"436 364 LINE",
"409 364 LINE",
"407 340 OFFCURVE",
"391 328 OFFCURVE",
"356 321 CURVE SMOOTH",
"193 289 LINE SMOOTH",
"83 267 OFFCURVE",
"34 223 OFFCURVE",
"34 133 CURVE SMOOTH",
"34 43 OFFCURVE",
"100 -15 OFFCURVE",
"202 -15 CURVE SMOOTH",
"336 -15 OFFCURVE",
"379 80 OFFCURVE",
"373 209 CURVE",
"350 209 LINE",
"350 127 OFFCURVE",
"310 97 OFFCURVE",
"249 97 CURVE SMOOTH",
"204 97 OFFCURVE",
"183 121 OFFCURVE",
"183 153 CURVE SMOOTH"
);
}
);
};
layerId = "1DB8726B-5E12-41F1-AD73-85C281DBF692";
name = "Bold Universal Display Jul 25 16, 12:01";
paths = (
{
closed = 1;
nodes = (
"183 183 OFFCURVE",
"201 202 OFFCURVE",
"242 210 CURVE SMOOTH",
"356 233 LINE SMOOTH",
"394 241 OFFCURVE",
"433 264 OFFCURVE",
"436 303 CURVE",
"436 364 LINE",
"409 364 LINE",
"407 340 OFFCURVE",
"391 328 OFFCURVE",
"356 321 CURVE SMOOTH",
"193 289 LINE SMOOTH",
"83 267 OFFCURVE",
"34 223 OFFCURVE",
"34 133 CURVE SMOOTH",
"34 43 OFFCURVE",
"100 -15 OFFCURVE",
"202 -15 CURVE SMOOTH",
"336 -15 OFFCURVE",
"379 80 OFFCURVE",
"373 209 CURVE",
"350 209 LINE",
"350 127 OFFCURVE",
"310 97 OFFCURVE",
"249 97 CURVE SMOOTH",
"204 97 OFFCURVE",
"183 121 OFFCURVE",
"183 153 CURVE SMOOTH"
);
},
{
closed = 1;
nodes = (
"194 366 LINE",
"206 405 OFFCURVE",
"231 424 OFFCURVE",
"277 424 CURVE SMOOTH",
"328 424 OFFCURVE",
"350 396 OFFCURVE",
"350 358 CURVE SMOOTH",
"350 0 LINE",
"482 0 LINE",
"482 362 LINE SMOOTH",
"482 472 OFFCURVE",
"406 540 OFFCURVE",
"277 540 CURVE SMOOTH",
"161 540 OFFCURVE",
"77 484 OFFCURVE",
"53 379 CURVE SMOOTH",
"50 366 LINE"
);
}
);
width = 531;
},
{
associatedMasterId = "C76CAC8E-7AD6-478C-8F7E-02FEF6F1EA84";
background = {
paths = (
{
closed = 1;
nodes = (
"486 0 LINE",
"486 362 LINE SMOOTH",
"486 472 OFFCURVE",
"410 540 OFFCURVE",
"280 540 CURVE SMOOTH",
"161 540 OFFCURVE",
"82 485 OFFCURVE",
"56 379 CURVE SMOOTH",
"49 350 LINE",
"193 350 LINE",
"198 367 LINE SMOOTH",
"210 407 OFFCURVE",
"235 424 OFFCURVE",
"281 424 CURVE SMOOTH",
"332 424 OFFCURVE",
"354 396 OFFCURVE",
"354 358 CURVE SMOOTH",
"354 0 LINE"
);
},
{
closed = 1;
nodes = (
"180 183 OFFCURVE",
"199 202 OFFCURVE",
"242 210 CURVE SMOOTH",
"360 233 LINE SMOOTH",
"399 241 OFFCURVE",
"437 264 OFFCURVE",
"440 303 CURVE",
"440 364 LINE",
"413 364 LINE",
"411 340 OFFCURVE",
"397 328 OFFCURVE",
"360 321 CURVE SMOOTH",
"197 289 LINE SMOOTH",
"89 268 OFFCURVE",
"38 223 OFFCURVE",
"38 133 CURVE SMOOTH",
"38 44 OFFCURVE",
"104 -13 OFFCURVE",
"206 -13 CURVE SMOOTH",
"340 -13 OFFCURVE",
"383 81 OFFCURVE",
"377 209 CURVE",
"354 209 LINE",
"354 126 OFFCURVE",
"310 95 OFFCURVE",
"249 95 CURVE SMOOTH",
"202 95 OFFCURVE",
"180 120 OFFCURVE",
"180 153 CURVE SMOOTH"
);
}
);
};
layerId = "F03C1562-2733-4293-BE69-0130549A7AF1";
name = "Bold Universal Display Jul 27 16, 16:44";
paths = (
{
closed = 1;
nodes = (
"486 0 LINE",
"486 362 LINE SMOOTH",
"486 472 OFFCURVE",
"410 540 OFFCURVE",
"280 540 CURVE SMOOTH",
"161 540 OFFCURVE",
"82 485 OFFCURVE",
"56 379 CURVE SMOOTH",
"49 350 LINE",
"193 350 LINE",
"198 367 LINE SMOOTH",
"210 407 OFFCURVE",
"235 424 OFFCURVE",
"281 424 CURVE SMOOTH",
"332 424 OFFCURVE",
"354 396 OFFCURVE",
"354 358 CURVE SMOOTH",
"354 0 LINE"
);
},
{
closed = 1;
nodes = (
"180 183 OFFCURVE",
"199 202 OFFCURVE",
"242 210 CURVE SMOOTH",
"360 233 LINE SMOOTH",
"399 241 OFFCURVE",
"437 264 OFFCURVE",
"440 303 CURVE",
"440 364 LINE",
"413 364 LINE",
"411 340 OFFCURVE",
"397 328 OFFCURVE",
"360 321 CURVE SMOOTH",
"197 289 LINE SMOOTH",
"89 268 OFFCURVE",
"38 223 OFFCURVE",
"38 133 CURVE SMOOTH",
"38 44 OFFCURVE",
"104 -13 OFFCURVE",
"206 -13 CURVE SMOOTH",
"340 -13 OFFCURVE",
"383 81 OFFCURVE",
"377 209 CURVE",
"354 209 LINE",
"354 126 OFFCURVE",
"310 95 OFFCURVE",
"249 95 CURVE SMOOTH",
"202 95 OFFCURVE",
"180 120 OFFCURVE",
"180 153 CURVE SMOOTH"
);
}
);
width = 541;
},
{
associatedMasterId = "C76CAC8E-7AD6-478C-8F7E-02FEF6F1EA84";
background = {
paths = (
{
closed = 0;
nodes = (
"492 214 LINE",
"492 80 OFFCURVE",
"395 -13 OFFCURVE",
"264 -13 CURVE SMOOTH",
"163 -13 OFFCURVE",
"103 35 OFFCURVE",
"103 121 CURVE SMOOTH",
"103 194 OFFCURVE",
"146 233 OFFCURVE",
"236 255 CURVE SMOOTH",
"438 304 LINE SMOOTH",
"475 313 OFFCURVE",
"490 324 OFFCURVE",
"492 348 CURVE"
);
},
{
closed = 0;
nodes = (
"492 0 LINE",
"492 387 LINE SMOOTH",
"492 477 OFFCURVE",
"431 540 OFFCURVE",
"317 540 CURVE SMOOTH",
"219 540 OFFCURVE",
"153 504 OFFCURVE",
"132 434 CURVE SMOOTH",
"124 408 LINE"
);
}
);
};
layerId = "D2C494F7-51F7-4DA2-8B41-6660AB6958E8";
name = "Universal Jul 20 16, 17:13";
paths = (
{
closed = 0;
nodes = (
"492 214 LINE",
"492 80 OFFCURVE",
"395 -13 OFFCURVE",
"264 -13 CURVE SMOOTH",
"163 -13 OFFCURVE",
"103 35 OFFCURVE",
"103 121 CURVE SMOOTH",
"103 194 OFFCURVE",
"146 233 OFFCURVE",
"236 255 CURVE SMOOTH",
"438 304 LINE SMOOTH",
"475 313 OFFCURVE",
"490 324 OFFCURVE",
"492 348 CURVE"
);
},
{
closed = 0;
nodes = (
"492 0 LINE",
"492 387 LINE SMOOTH",
"492 477 OFFCURVE",
"431 540 OFFCURVE",
"317 540 CURVE SMOOTH",
"219 540 OFFCURVE",
"153 504 OFFCURVE",
"132 434 CURVE SMOOTH",
"124 408 LINE"
);
}
);
width = 600;
},
{
associatedMasterId = "C76CAC8E-7AD6-478C-8F7E-02FEF6F1EA84";
background = {
paths = (
{
closed = 1;
nodes = (
"439 0 LINE",
"439 370 LINE SMOOTH",
"439 467 OFFCURVE",
"373 530 OFFCURVE",
"266 530 CURVE SMOOTH",
"176 530 OFFCURVE",
"111 491 OFFCURVE",
"82 414 CURVE SMOOTH",
"73 390 LINE",
"93 390 LINE",
"101 411 LINE SMOOTH",
"126 478 OFFCURVE",
"181 512 OFFCURVE",
"266 512 CURVE SMOOTH",
"365 512 OFFCURVE",
"421 455 OFFCURVE",
"421 369 CURVE SMOOTH",
"421 0 LINE"
);
},
{
closed = 1;
nodes = (
"75 176 OFFCURVE",
"101 213 OFFCURVE",
"188 234 CURVE SMOOTH",
"380 282 LINE SMOOTH",
"416 290 OFFCURVE",
"431 301 OFFCURVE",
"433 324 CURVE",
"433 341 LINE",
"428 341 LINE",
"426 317 OFFCURVE",
"411 307 OFFCURVE",
"375 298 CURVE SMOOTH",
"183 250 LINE SMOOTH",
"91 228 OFFCURVE",
"55 184 OFFCURVE",
"55 117 CURVE SMOOTH",
"55 33 OFFCURVE",
"118 -15 OFFCURVE",
"214 -15 CURVE SMOOTH",
"332 -15 OFFCURVE",
"438 79 OFFCURVE",
"432 208 CURVE",
"421 208 LINE",
"421 82 OFFCURVE",
"317 3 OFFCURVE",
"215 3 CURVE SMOOTH",
"129 3 OFFCURVE",
"75 44 OFFCURVE",
"75 117 CURVE SMOOTH"
);
}
);
};
guideLines = (
{
angle = 69.444;
position = "{73, 390}";
},
{
angle = 69.4439;
position = "{93, 390}";
}
);
layerId = "3AF49E38-54B3-4D04-A4C7-32692A39E81A";
name = "Universal Display Aug 9 16, 09:56";
paths = (
{
closed = 1;
nodes = (
"439 0 LINE",
"439 370 LINE SMOOTH",
"439 467 OFFCURVE",
"373 530 OFFCURVE",
"266 530 CURVE SMOOTH",
"176 530 OFFCURVE",
"111 491 OFFCURVE",
"82 414 CURVE SMOOTH",
"73 390 LINE",
"93 390 LINE",
"101 411 LINE SMOOTH",
"126 478 OFFCURVE",
"181 512 OFFCURVE",
"266 512 CURVE SMOOTH",
"365 512 OFFCURVE",
"421 455 OFFCURVE",
"421 369 CURVE SMOOTH",
"421 0 LINE"
);
},
{
closed = 1;
nodes = (
"75 176 OFFCURVE",
"101 213 OFFCURVE",
"188 234 CURVE SMOOTH",
"380 282 LINE SMOOTH",
"416 290 OFFCURVE",
"431 301 OFFCURVE",
"433 324 CURVE",
"433 341 LINE",
"428 341 LINE",
"426 317 OFFCURVE",
"411 307 OFFCURVE",
"375 298 CURVE SMOOTH",
"183 250 LINE SMOOTH",
"91 228 OFFCURVE",
"55 184 OFFCURVE",
"55 117 CURVE SMOOTH",
"55 33 OFFCURVE",
"118 -15 OFFCURVE",
"214 -15 CURVE SMOOTH",
"332 -15 OFFCURVE",
"438 79 OFFCURVE",
"432 208 CURVE",
"421 208 LINE",
"421 82 OFFCURVE",
"317 3 OFFCURVE",
"215 3 CURVE SMOOTH",
"129 3 OFFCURVE",
"75 44 OFFCURVE",
"75 117 CURVE SMOOTH"
);
}
);
width = 514;
},
{
associatedMasterId = "C76CAC8E-7AD6-478C-8F7E-02FEF6F1EA84";
background = {
paths = (
{
closed = 0;
nodes = (
"492 214 LINE",
"492 80 OFFCURVE",
"395 -13 OFFCURVE",
"264 -13 CURVE SMOOTH",
"163 -13 OFFCURVE",
"103 35 OFFCURVE",
"103 121 CURVE SMOOTH",
"103 194 OFFCURVE",
"146 233 OFFCURVE",
"236 255 CURVE SMOOTH",
"438 304 LINE SMOOTH",
"475 313 OFFCURVE",
"490 324 OFFCURVE",
"492 348 CURVE"
);
},
{
closed = 0;
nodes = (
"492 0 LINE",
"492 387 LINE SMOOTH",
"492 477 OFFCURVE",
"431 540 OFFCURVE",
"317 540 CURVE SMOOTH",
"219 540 OFFCURVE",
"153 504 OFFCURVE",
"132 434 CURVE SMOOTH",
"124 408 LINE"
);
}
);
};
layerId = "1E11FE6A-3D7E-49AF-B88E-1F66724FB6FC";
name = "Universal Jul 20 16, 17:13";
paths = (
{
closed = 0;
nodes = (
"492 214 LINE",
"492 80 OFFCURVE",
"395 -13 OFFCURVE",
"264 -13 CURVE SMOOTH",
"163 -13 OFFCURVE",
"103 35 OFFCURVE",
"103 121 CURVE SMOOTH",
"103 194 OFFCURVE",
"146 233 OFFCURVE",
"236 255 CURVE SMOOTH",
"438 304 LINE SMOOTH",
"475 313 OFFCURVE",
"490 324 OFFCURVE",
"492 348 CURVE"
);
},
{
closed = 0;
nodes = (
"492 0 LINE",
"492 387 LINE SMOOTH",
"492 477 OFFCURVE",
"431 540 OFFCURVE",
"317 540 CURVE SMOOTH",
"219 540 OFFCURVE",
"153 504 OFFCURVE",
"132 434 CURVE SMOOTH",
"124 408 LINE"
);
}
);
width = 600;
},
{
associatedMasterId = "C76CAC8E-7AD6-478C-8F7E-02FEF6F1EA84";
background = {
paths = (
{
closed = 1;
nodes = (
"482 0 LINE",
"482 362 LINE SMOOTH",
"482 472 OFFCURVE",
"406 540 OFFCURVE",
"276 540 CURVE SMOOTH",
"143 540 OFFCURVE",
"70 475 OFFCURVE",
"53 379 CURVE SMOOTH",
"48 351 LINE",
"189 350 LINE",
"193 367 LINE SMOOTH",
"200 402 OFFCURVE",
"226 422 OFFCURVE",
"275 422 CURVE SMOOTH",
"324 422 OFFCURVE",
"350 396 OFFCURVE",
"350 358 CURVE SMOOTH",
"350 0 LINE"
);
},
{
closed = 1;
nodes = (
"183 183 OFFCURVE",
"201 201 OFFCURVE",
"242 210 CURVE SMOOTH",
"341 230 LINE SMOOTH",
"379 238 OFFCURVE",
"418 261 OFFCURVE",
"421 300 CURVE",
"421 363 LINE",
"394 361 LINE",
"392 337 OFFCURVE",
"376 325 OFFCURVE",
"341 318 CURVE SMOOTH",
"193 289 LINE SMOOTH",
"83 267 OFFCURVE",
"34 223 OFFCURVE",
"34 133 CURVE SMOOTH",
"34 43 OFFCURVE",
"100 -15 OFFCURVE",
"202 -15 CURVE SMOOTH",
"336 -15 OFFCURVE",
"379 80 OFFCURVE",
"373 209 CURVE",
"350 209 LINE",
"350 127 OFFCURVE",
"310 97 OFFCURVE",
"249 97 CURVE SMOOTH",
"204 97 OFFCURVE",
"183 121 OFFCURVE",
"183 153 CURVE SMOOTH"
);
}
);
};
layerId = "00057FBF-B9A8-465F-90EF-8639FC9FA2DE";
name = "Bold Universal Display Jul 24 16, 18:39";
paths = (
{
closed = 1;
nodes = (
"482 0 LINE",
"482 362 LINE SMOOTH",
"482 472 OFFCURVE",
"406 540 OFFCURVE",
"276 540 CURVE SMOOTH",
"143 540 OFFCURVE",
"70 475 OFFCURVE",
"53 379 CURVE SMOOTH",
"48 351 LINE",
"189 350 LINE",
"193 367 LINE SMOOTH",
"200 402 OFFCURVE",
"226 422 OFFCURVE",
"275 422 CURVE SMOOTH",
"324 422 OFFCURVE",
"350 396 OFFCURVE",
"350 358 CURVE SMOOTH",
"350 0 LINE"
);
},
{
closed = 1;
nodes = (
"183 183 OFFCURVE",
"201 201 OFFCURVE",
"242 210 CURVE SMOOTH",
"341 230 LINE SMOOTH",
"379 238 OFFCURVE",
"418 261 OFFCURVE",
"421 300 CURVE",
"421 363 LINE",
"394 361 LINE",
"392 337 OFFCURVE",
"376 325 OFFCURVE",
"341 318 CURVE SMOOTH",
"193 289 LINE SMOOTH",
"83 267 OFFCURVE",
"34 223 OFFCURVE",
"34 133 CURVE SMOOTH",
"34 43 OFFCURVE",
"100 -15 OFFCURVE",
"202 -15 CURVE SMOOTH",
"336 -15 OFFCURVE",
"379 80 OFFCURVE",
"373 209 CURVE",
"350 209 LINE",
"350 127 OFFCURVE",
"310 97 OFFCURVE",
"249 97 CURVE SMOOTH",
"204 97 OFFCURVE",
"183 121 OFFCURVE",
"183 153 CURVE SMOOTH"
);
}
);
width = 531;
},
{
associatedMasterId = "C76CAC8E-7AD6-478C-8F7E-02FEF6F1EA84";
background = {
paths = (
{
closed = 1;
nodes = (
"482 0 LINE",
"482 362 LINE SMOOTH",
"482 472 OFFCURVE",
"406 540 OFFCURVE",
"276 540 CURVE SMOOTH",
"157 540 OFFCURVE",
"79 485 OFFCURVE",
"52 379 CURVE SMOOTH",
"45 351 LINE",
"188 350 LINE",
"194 367 LINE SMOOTH",
"207 405 OFFCURVE",
"231 424 OFFCURVE",
"277 424 CURVE SMOOTH",
"328 424 OFFCURVE",
"350 396 OFFCURVE",
"350 358 CURVE SMOOTH",
"350 0 LINE"
);
},
{
closed = 1;
nodes = (
"183 183 OFFCURVE",
"201 202 OFFCURVE",
"242 210 CURVE SMOOTH",
"356 233 LINE SMOOTH",
"394 241 OFFCURVE",
"433 264 OFFCURVE",
"436 303 CURVE",
"436 364 LINE",
"409 364 LINE",
"407 340 OFFCURVE",
"391 328 OFFCURVE",
"356 321 CURVE SMOOTH",
"193 289 LINE SMOOTH",
"83 267 OFFCURVE",
"34 223 OFFCURVE",
"34 133 CURVE SMOOTH",
"34 43 OFFCURVE",
"100 -15 OFFCURVE",
"202 -15 CURVE SMOOTH",
"336 -15 OFFCURVE",
"379 80 OFFCURVE",
"373 209 CURVE",
"350 209 LINE",
"350 127 OFFCURVE",
"310 97 OFFCURVE",
"249 97 CURVE SMOOTH",
"204 97 OFFCURVE",
"183 121 OFFCURVE",
"183 153 CURVE SMOOTH"
);
}
);
};
layerId = "ACBDDB0F-AD91-453B-B620-D542F12C63F4";
name = "Bold Universal Display Jul 25 16, 12:01";
paths = (
{
closed = 1;
nodes = (
"183 183 OFFCURVE",
"201 202 OFFCURVE",
"242 210 CURVE SMOOTH",
"356 233 LINE SMOOTH",
"394 241 OFFCURVE",
"433 264 OFFCURVE",
"436 303 CURVE",
"436 364 LINE",
"409 364 LINE",
"407 340 OFFCURVE",
"391 328 OFFCURVE",
"356 321 CURVE SMOOTH",
"193 289 LINE SMOOTH",
"83 267 OFFCURVE",
"34 223 OFFCURVE",
"34 133 CURVE SMOOTH",
"34 43 OFFCURVE",
"100 -15 OFFCURVE",
"202 -15 CURVE SMOOTH",
"336 -15 OFFCURVE",
"379 80 OFFCURVE",
"373 209 CURVE",
"350 209 LINE",
"350 127 OFFCURVE",
"310 97 OFFCURVE",
"249 97 CURVE SMOOTH",
"204 97 OFFCURVE",
"183 121 OFFCURVE",
"183 153 CURVE SMOOTH"
);
},
{
closed = 1;
nodes = (
"194 366 LINE",
"206 405 OFFCURVE",
"231 424 OFFCURVE",
"277 424 CURVE SMOOTH",
"328 424 OFFCURVE",
"350 396 OFFCURVE",
"350 358 CURVE SMOOTH",
"350 0 LINE",
"482 0 LINE",
"482 362 LINE SMOOTH",
"482 472 OFFCURVE",
"406 540 OFFCURVE",
"277 540 CURVE SMOOTH",
"161 540 OFFCURVE",
"77 484 OFFCURVE",
"53 379 CURVE SMOOTH",
"50 366 LINE"
);
}
);
width = 531;
},
{
associatedMasterId = "C76CAC8E-7AD6-478C-8F7E-02FEF6F1EA84";
background = {
paths = (
{
closed = 1;
nodes = (
"486 0 LINE",
"486 362 LINE SMOOTH",
"486 472 OFFCURVE",
"410 540 OFFCURVE",
"280 540 CURVE SMOOTH",
"161 540 OFFCURVE",
"82 485 OFFCURVE",
"56 379 CURVE SMOOTH",
"49 350 LINE",
"193 350 LINE",
"198 367 LINE SMOOTH",
"210 407 OFFCURVE",
"235 424 OFFCURVE",
"281 424 CURVE SMOOTH",
"332 424 OFFCURVE",
"354 396 OFFCURVE",
"354 358 CURVE SMOOTH",
"354 0 LINE"
);
},
{
closed = 1;
nodes = (
"180 183 OFFCURVE",
"199 202 OFFCURVE",
"242 210 CURVE SMOOTH",
"360 233 LINE SMOOTH",
"399 241 OFFCURVE",
"437 264 OFFCURVE",
"440 303 CURVE",
"440 364 LINE",
"413 364 LINE",
"411 340 OFFCURVE",
"397 328 OFFCURVE",
"360 321 CURVE SMOOTH",
"197 289 LINE SMOOTH",
"89 268 OFFCURVE",
"38 223 OFFCURVE",
"38 133 CURVE SMOOTH",
"38 44 OFFCURVE",
"104 -13 OFFCURVE",
"206 -13 CURVE SMOOTH",
"340 -13 OFFCURVE",
"383 81 OFFCURVE",
"377 209 CURVE",
"354 209 LINE",
"354 126 OFFCURVE",
"310 95 OFFCURVE",
"249 95 CURVE SMOOTH",
"202 95 OFFCURVE",
"180 120 OFFCURVE",
"180 153 CURVE SMOOTH"
);
}
);
};
layerId = "330EFF1D-B076-4FFA-B6B9-83819172BE9F";
name = "Bold Universal Display Jul 27 16, 16:44";
paths = (
{
closed = 1;
nodes = (
"486 0 LINE",
"486 362 LINE SMOOTH",
"486 472 OFFCURVE",
"410 540 OFFCURVE",
"280 540 CURVE SMOOTH",
"161 540 OFFCURVE",
"82 485 OFFCURVE",
"56 379 CURVE SMOOTH",
"49 350 LINE",
"193 350 LINE",
"198 367 LINE SMOOTH",
"210 407 OFFCURVE",
"235 424 OFFCURVE",
"281 424 CURVE SMOOTH",
"332 424 OFFCURVE",
"354 396 OFFCURVE",
"354 358 CURVE SMOOTH",
"354 0 LINE"
);
},
{
closed = 1;
nodes = (
"180 183 OFFCURVE",
"199 202 OFFCURVE",
"242 210 CURVE SMOOTH",
"360 233 LINE SMOOTH",
"399 241 OFFCURVE",
"437 264 OFFCURVE",
"440 303 CURVE",
"440 364 LINE",
"413 364 LINE",
"411 340 OFFCURVE",
"397 328 OFFCURVE",
"360 321 CURVE SMOOTH",
"197 289 LINE SMOOTH",
"89 268 OFFCURVE",
"38 223 OFFCURVE",
"38 133 CURVE SMOOTH",
"38 44 OFFCURVE",
"104 -13 OFFCURVE",
"206 -13 CURVE SMOOTH",
"340 -13 OFFCURVE",
"383 81 OFFCURVE",
"377 209 CURVE",
"354 209 LINE",
"354 126 OFFCURVE",
"310 95 OFFCURVE",
"249 95 CURVE SMOOTH",
"202 95 OFFCURVE",
"180 120 OFFCURVE",
"180 153 CURVE SMOOTH"
);
}
);
width = 541;
},
{
background = {
paths = (
{
closed = 1;
nodes = (
"310 -15 OFFCURVE",
"374 20 OFFCURVE",
"403 82 CURVE",
"394 75 LINE",
"421 75 LINE",
"401 84 LINE",
"417 0 LINE",
"538 0 LINE",
"538 344 LINE SMOOTH",
"538 471 OFFCURVE",
"473 540 OFFCURVE",
"309 540 CURVE SMOOTH",
"161 540 OFFCURVE",
"83 484 OFFCURVE",
"68 388 CURVE SMOOTH",
"64 362 LINE",
"209 362 LINE",
"213 377 LINE SMOOTH",
"222 410 OFFCURVE",
"245 430 OFFCURVE",
"306 430 CURVE SMOOTH",
"374 430 OFFCURVE",
"401 403 OFFCURVE",
"401 342 CURVE SMOOTH",
"401 218 LINE SMOOTH",
"401 122 OFFCURVE",
"329 90 OFFCURVE",
"264 90 CURVE SMOOTH",
"205 90 OFFCURVE",
"180 106 OFFCURVE",
"180 145 CURVE SMOOTH",
"180 178 OFFCURVE",
"198 199 OFFCURVE",
"261 211 CURVE SMOOTH",
"410 239 LINE SMOOTH",
"450 247 OFFCURVE",
"487 270 OFFCURVE",
"490 309 CURVE",
"490 370 LINE",
"463 370 LINE",
"461 345 OFFCURVE",
"447 331 OFFCURVE",
"410 325 CURVE SMOOTH",
"226 294 LINE SMOOTH",
"90 271 OFFCURVE",
"40 221 OFFCURVE",
"40 134 CURVE SMOOTH",
"40 32 OFFCURVE",
"103 -15 OFFCURVE",
"224 -15 CURVE SMOOTH"
);
}
);
};
layerId = "C76CAC8E-7AD6-478C-8F7E-02FEF6F1EA84";
paths = (
{
closed = 1;
nodes = (
"324 -13 OFFCURVE",
"373 17 OFFCURVE",
"389 79 CURVE",
"380 72 LINE",
"407 72 LINE",
"395 81 LINE",
"410 0 LINE",
"524 0 LINE",
"524 374 LINE SMOOTH",
"524 481 OFFCURVE",
"447 540 OFFCURVE",
"307 540 CURVE SMOOTH",
"162 540 OFFCURVE",
"79 484 OFFCURVE",
"67 388 CURVE SMOOTH",
"65 372 LINE",
"207 372 LINE",
"209 383 LINE SMOOTH",
"215 415 OFFCURVE",
"246 430 OFFCURVE",
"304 430 CURVE SMOOTH",
"368 430 OFFCURVE",
"390 403 OFFCURVE",
"390 362 CURVE SMOOTH",
"390 178 LINE SMOOTH",
"390 122 OFFCURVE",
"360 89 OFFCURVE",
"273 89 CURVE SMOOTH",
"206 89 OFFCURVE",
"186 114 OFFCURVE",
"186 153 CURVE SMOOTH",
"186 186 OFFCURVE",
"206 209 OFFCURVE",
"251 214 CURVE SMOOTH",
"395 232 LINE SMOOTH",
"435 237 OFFCURVE",
"472 263 OFFCURVE",
"475 302 CURVE",
"475 363 LINE",
"448 363 LINE",
"446 338 OFFCURVE",
"432 324 OFFCURVE",
"395 318 CURVE SMOOTH",
"226 297 LINE SMOOTH",
"97 281 OFFCURVE",
"46 224 OFFCURVE",
"46 137 CURVE SMOOTH",
"46 45 OFFCURVE",
"111 -13 OFFCURVE",
"238 -13 CURVE SMOOTH"
);
}
);
width = 589;
},
{
associatedMasterId = "C76CAC8E-7AD6-478C-8F7E-02FEF6F1EA84";
background = {
paths = (
{
closed = 0;
nodes = (
"492 214 LINE",
"492 80 OFFCURVE",
"395 -13 OFFCURVE",
"264 -13 CURVE SMOOTH",
"163 -13 OFFCURVE",
"103 35 OFFCURVE",
"103 121 CURVE SMOOTH",
"103 194 OFFCURVE",
"146 233 OFFCURVE",
"236 255 CURVE SMOOTH",
"438 304 LINE SMOOTH",
"475 313 OFFCURVE",
"490 324 OFFCURVE",
"492 348 CURVE"
);
},
{
closed = 0;
nodes = (
"492 0 LINE",
"492 387 LINE SMOOTH",
"492 477 OFFCURVE",
"431 540 OFFCURVE",
"317 540 CURVE SMOOTH",
"219 540 OFFCURVE",
"153 504 OFFCURVE",
"132 434 CURVE SMOOTH",
"124 408 LINE"
);
}
);
};
layerId = "B42109DD-DA7D-4272-AA47-EB2F3F412D0A";
name = "Universal Jul 20 16, 17:13";
paths = (
{
closed = 0;
nodes = (
"492 214 LINE",
"492 80 OFFCURVE",
"395 -13 OFFCURVE",
"264 -13 CURVE SMOOTH",
"163 -13 OFFCURVE",
"103 35 OFFCURVE",
"103 121 CURVE SMOOTH",
"103 194 OFFCURVE",
"146 233 OFFCURVE",
"236 255 CURVE SMOOTH",
"438 304 LINE SMOOTH",
"475 313 OFFCURVE",
"490 324 OFFCURVE",
"492 348 CURVE"
);
},
{
closed = 0;
nodes = (
"492 0 LINE",
"492 387 LINE SMOOTH",
"492 477 OFFCURVE",
"431 540 OFFCURVE",
"317 540 CURVE SMOOTH",
"219 540 OFFCURVE",
"153 504 OFFCURVE",
"132 434 CURVE SMOOTH",
"124 408 LINE"
);
}
);
width = 600;
},
{
associatedMasterId = "C76CAC8E-7AD6-478C-8F7E-02FEF6F1EA84";
background = {
paths = (
{
closed = 1;
nodes = (
"439 0 LINE",
"439 370 LINE SMOOTH",
"439 467 OFFCURVE",
"373 530 OFFCURVE",
"266 530 CURVE SMOOTH",
"176 530 OFFCURVE",
"111 491 OFFCURVE",
"82 414 CURVE SMOOTH",
"73 390 LINE",
"93 390 LINE",
"101 411 LINE SMOOTH",
"126 478 OFFCURVE",
"181 512 OFFCURVE",
"266 512 CURVE SMOOTH",
"365 512 OFFCURVE",
"421 455 OFFCURVE",
"421 369 CURVE SMOOTH",
"421 0 LINE"
);
},
{
closed = 1;
nodes = (
"75 176 OFFCURVE",
"101 213 OFFCURVE",
"188 234 CURVE SMOOTH",
"380 282 LINE SMOOTH",
"416 290 OFFCURVE",
"431 301 OFFCURVE",
"433 324 CURVE",
"433 341 LINE",
"428 341 LINE",
"426 317 OFFCURVE",
"411 307 OFFCURVE",
"375 298 CURVE SMOOTH",
"183 250 LINE SMOOTH",
"91 228 OFFCURVE",
"55 184 OFFCURVE",
"55 117 CURVE SMOOTH",
"55 33 OFFCURVE",
"118 -15 OFFCURVE",
"214 -15 CURVE SMOOTH",
"332 -15 OFFCURVE",
"438 79 OFFCURVE",
"432 208 CURVE",
"421 208 LINE",
"421 82 OFFCURVE",
"317 3 OFFCURVE",
"215 3 CURVE SMOOTH",
"129 3 OFFCURVE",
"75 44 OFFCURVE",
"75 117 CURVE SMOOTH"
);
}
);
};
guideLines = (
{
angle = 69.444;
position = "{73, 390}";
},
{
angle = 69.4439;
position = "{93, 390}";
}
);
layerId = "C11778D7-3F06-455C-905E-FA02D27E08E6";
name = "Universal Display Aug 9 16, 09:56";
paths = (
{
closed = 1;
nodes = (
"439 0 LINE",
"439 370 LINE SMOOTH",
"439 467 OFFCURVE",
"373 530 OFFCURVE",
"266 530 CURVE SMOOTH",
"176 530 OFFCURVE",
"111 491 OFFCURVE",
"82 414 CURVE SMOOTH",
"73 390 LINE",
"93 390 LINE",
"101 411 LINE SMOOTH",
"126 478 OFFCURVE",
"181 512 OFFCURVE",
"266 512 CURVE SMOOTH",
"365 512 OFFCURVE",
"421 455 OFFCURVE",
"421 369 CURVE SMOOTH",
"421 0 LINE"
);
},
{
closed = 1;
nodes = (
"75 176 OFFCURVE",
"101 213 OFFCURVE",
"188 234 CURVE SMOOTH",
"380 282 LINE SMOOTH",
"416 290 OFFCURVE",
"431 301 OFFCURVE",
"433 324 CURVE",
"433 341 LINE",
"428 341 LINE",
"426 317 OFFCURVE",
"411 307 OFFCURVE",
"375 298 CURVE SMOOTH",
"183 250 LINE SMOOTH",
"91 228 OFFCURVE",
"55 184 OFFCURVE",
"55 117 CURVE SMOOTH",
"55 33 OFFCURVE",
"118 -15 OFFCURVE",
"214 -15 CURVE SMOOTH",
"332 -15 OFFCURVE",
"438 79 OFFCURVE",
"432 208 CURVE",
"421 208 LINE",
"421 82 OFFCURVE",
"317 3 OFFCURVE",
"215 3 CURVE SMOOTH",
"129 3 OFFCURVE",
"75 44 OFFCURVE",
"75 117 CURVE SMOOTH"
);
}
);
width = 514;
},
{
associatedMasterId = "C76CAC8E-7AD6-478C-8F7E-02FEF6F1EA84";
background = {
paths = (
{
closed = 0;
nodes = (
"492 214 LINE",
"492 80 OFFCURVE",
"395 -13 OFFCURVE",
"264 -13 CURVE SMOOTH",
"163 -13 OFFCURVE",
"103 35 OFFCURVE",
"103 121 CURVE SMOOTH",
"103 194 OFFCURVE",
"146 233 OFFCURVE",
"236 255 CURVE SMOOTH",
"438 304 LINE SMOOTH",
"475 313 OFFCURVE",
"490 324 OFFCURVE",
"492 348 CURVE"
);
},
{
closed = 0;
nodes = (
"492 0 LINE",
"492 387 LINE SMOOTH",
"492 477 OFFCURVE",
"431 540 OFFCURVE",
"317 540 CURVE SMOOTH",
"219 540 OFFCURVE",
"153 504 OFFCURVE",
"132 434 CURVE SMOOTH",
"124 408 LINE"
);
}
);
};
layerId = "DB7A3BD5-195E-498F-B7A6-31125EC6142A";
name = "Universal Jul 20 16, 17:13";
paths = (
{
closed = 0;
nodes = (
"492 214 LINE",
"492 80 OFFCURVE",
"395 -13 OFFCURVE",
"264 -13 CURVE SMOOTH",
"163 -13 OFFCURVE",
"103 35 OFFCURVE",
"103 121 CURVE SMOOTH",
"103 194 OFFCURVE",
"146 233 OFFCURVE",
"236 255 CURVE SMOOTH",
"438 304 LINE SMOOTH",
"475 313 OFFCURVE",
"490 324 OFFCURVE",
"492 348 CURVE"
);
},
{
closed = 0;
nodes = (
"492 0 LINE",
"492 387 LINE SMOOTH",
"492 477 OFFCURVE",
"431 540 OFFCURVE",
"317 540 CURVE SMOOTH",
"219 540 OFFCURVE",
"153 504 OFFCURVE",
"132 434 CURVE SMOOTH",
"124 408 LINE"
);
}
);
width = 600;
},
{
associatedMasterId = "C76CAC8E-7AD6-478C-8F7E-02FEF6F1EA84";
background = {
paths = (
{
closed = 1;
nodes = (
"482 0 LINE",
"482 362 LINE SMOOTH",
"482 472 OFFCURVE",
"406 540 OFFCURVE",
"276 540 CURVE SMOOTH",
"143 540 OFFCURVE",
"70 475 OFFCURVE",
"53 379 CURVE SMOOTH",
"48 351 LINE",
"189 350 LINE",
"193 367 LINE SMOOTH",
"200 402 OFFCURVE",
"226 422 OFFCURVE",
"275 422 CURVE SMOOTH",
"324 422 OFFCURVE",
"350 396 OFFCURVE",
"350 358 CURVE SMOOTH",
"350 0 LINE"
);
},
{
closed = 1;
nodes = (
"183 183 OFFCURVE",
"201 201 OFFCURVE",
"242 210 CURVE SMOOTH",
"341 230 LINE SMOOTH",
"379 238 OFFCURVE",
"418 261 OFFCURVE",
"421 300 CURVE",
"421 363 LINE",
"394 361 LINE",
"392 337 OFFCURVE",
"376 325 OFFCURVE",
"341 318 CURVE SMOOTH",
"193 289 LINE SMOOTH",
"83 267 OFFCURVE",
"34 223 OFFCURVE",
"34 133 CURVE SMOOTH",
"34 43 OFFCURVE",
"100 -15 OFFCURVE",
"202 -15 CURVE SMOOTH",
"336 -15 OFFCURVE",
"379 80 OFFCURVE",
"373 209 CURVE",
"350 209 LINE",
"350 127 OFFCURVE",
"310 97 OFFCURVE",
"249 97 CURVE SMOOTH",
"204 97 OFFCURVE",
"183 121 OFFCURVE",
"183 153 CURVE SMOOTH"
);
}
);
};
layerId = "71794957-6694-4F15-94E8-8B3C0D2DC914";
name = "Bold Universal Display Jul 24 16, 18:39";
paths = (
{
closed = 1;
nodes = (
"482 0 LINE",
"482 362 LINE SMOOTH",
"482 472 OFFCURVE",
"406 540 OFFCURVE",
"276 540 CURVE SMOOTH",
"143 540 OFFCURVE",
"70 475 OFFCURVE",
"53 379 CURVE SMOOTH",
"48 351 LINE",
"189 350 LINE",
"193 367 LINE SMOOTH",
"200 402 OFFCURVE",
"226 422 OFFCURVE",
"275 422 CURVE SMOOTH",
"324 422 OFFCURVE",
"350 396 OFFCURVE",
"350 358 CURVE SMOOTH",
"350 0 LINE"
);
},
{
closed = 1;
nodes = (
"183 183 OFFCURVE",
"201 201 OFFCURVE",
"242 210 CURVE SMOOTH",
"341 230 LINE SMOOTH",
"379 238 OFFCURVE",
"418 261 OFFCURVE",
"421 300 CURVE",
"421 363 LINE",
"394 361 LINE",
"392 337 OFFCURVE",
"376 325 OFFCURVE",
"341 318 CURVE SMOOTH",
"193 289 LINE SMOOTH",
"83 267 OFFCURVE",
"34 223 OFFCURVE",
"34 133 CURVE SMOOTH",
"34 43 OFFCURVE",
"100 -15 OFFCURVE",
"202 -15 CURVE SMOOTH",
"336 -15 OFFCURVE",
"379 80 OFFCURVE",
"373 209 CURVE",
"350 209 LINE",
"350 127 OFFCURVE",
"310 97 OFFCURVE",
"249 97 CURVE SMOOTH",
"204 97 OFFCURVE",
"183 121 OFFCURVE",
"183 153 CURVE SMOOTH"
);
}
);
width = 531;
},
{
associatedMasterId = "C76CAC8E-7AD6-478C-8F7E-02FEF6F1EA84";
background = {
paths = (
{
closed = 1;
nodes = (
"482 0 LINE",
"482 362 LINE SMOOTH",
"482 472 OFFCURVE",
"406 540 OFFCURVE",
"276 540 CURVE SMOOTH",
"157 540 OFFCURVE",
"79 485 OFFCURVE",
"52 379 CURVE SMOOTH",
"45 351 LINE",
"188 350 LINE",
"194 367 LINE SMOOTH",
"207 405 OFFCURVE",
"231 424 OFFCURVE",
"277 424 CURVE SMOOTH",
"328 424 OFFCURVE",
"350 396 OFFCURVE",
"350 358 CURVE SMOOTH",
"350 0 LINE"
);
},
{
closed = 1;
nodes = (
"183 183 OFFCURVE",
"201 202 OFFCURVE",
"242 210 CURVE SMOOTH",
"356 233 LINE SMOOTH",
"394 241 OFFCURVE",
"433 264 OFFCURVE",
"436 303 CURVE",
"436 364 LINE",
"409 364 LINE",
"407 340 OFFCURVE",
"391 328 OFFCURVE",
"356 321 CURVE SMOOTH",
"193 289 LINE SMOOTH",
"83 267 OFFCURVE",
"34 223 OFFCURVE",
"34 133 CURVE SMOOTH",
"34 43 OFFCURVE",
"100 -15 OFFCURVE",
"202 -15 CURVE SMOOTH",
"336 -15 OFFCURVE",
"379 80 OFFCURVE",
"373 209 CURVE",
"350 209 LINE",
"350 127 OFFCURVE",
"310 97 OFFCURVE",
"249 97 CURVE SMOOTH",
"204 97 OFFCURVE",
"183 121 OFFCURVE",
"183 153 CURVE SMOOTH"
);
}
);
};
layerId = "38A3B187-935B-438B-B953-5E5CAF60EF38";
name = "Bold Universal Display Jul 25 16, 12:01";
paths = (
{
closed = 1;
nodes = (
"183 183 OFFCURVE",
"201 202 OFFCURVE",
"242 210 CURVE SMOOTH",
"356 233 LINE SMOOTH",
"394 241 OFFCURVE",
"433 264 OFFCURVE",
"436 303 CURVE",
"436 364 LINE",
"409 364 LINE",
"407 340 OFFCURVE",
"391 328 OFFCURVE",
"356 321 CURVE SMOOTH",
"193 289 LINE SMOOTH",
"83 267 OFFCURVE",
"34 223 OFFCURVE",
"34 133 CURVE SMOOTH",
"34 43 OFFCURVE",
"100 -15 OFFCURVE",
"202 -15 CURVE SMOOTH",
"336 -15 OFFCURVE",
"379 80 OFFCURVE",
"373 209 CURVE",
"350 209 LINE",
"350 127 OFFCURVE",
"310 97 OFFCURVE",
"249 97 CURVE SMOOTH",
"204 97 OFFCURVE",
"183 121 OFFCURVE",
"183 153 CURVE SMOOTH"
);
},
{
closed = 1;
nodes = (
"194 366 LINE",
"206 405 OFFCURVE",
"231 424 OFFCURVE",
"277 424 CURVE SMOOTH",
"328 424 OFFCURVE",
"350 396 OFFCURVE",
"350 358 CURVE SMOOTH",
"350 0 LINE",
"482 0 LINE",
"482 362 LINE SMOOTH",
"482 472 OFFCURVE",
"406 540 OFFCURVE",
"277 540 CURVE SMOOTH",
"161 540 OFFCURVE",
"77 484 OFFCURVE",
"53 379 CURVE SMOOTH",
"50 366 LINE"
);
}
);
width = 531;
},
{
associatedMasterId = "C76CAC8E-7AD6-478C-8F7E-02FEF6F1EA84";
background = {
paths = (
{
closed = 1;
nodes = (
"486 0 LINE",
"486 362 LINE SMOOTH",
"486 472 OFFCURVE",
"410 540 OFFCURVE",
"280 540 CURVE SMOOTH",
"161 540 OFFCURVE",
"82 485 OFFCURVE",
"56 379 CURVE SMOOTH",
"49 350 LINE",
"193 350 LINE",
"198 367 LINE SMOOTH",
"210 407 OFFCURVE",
"235 424 OFFCURVE",
"281 424 CURVE SMOOTH",
"332 424 OFFCURVE",
"354 396 OFFCURVE",
"354 358 CURVE SMOOTH",
"354 0 LINE"
);
},
{
closed = 1;
nodes = (
"180 183 OFFCURVE",
"199 202 OFFCURVE",
"242 210 CURVE SMOOTH",
"360 233 LINE SMOOTH",
"399 241 OFFCURVE",
"437 264 OFFCURVE",
"440 303 CURVE",
"440 364 LINE",
"413 364 LINE",
"411 340 OFFCURVE",
"397 328 OFFCURVE",
"360 321 CURVE SMOOTH",
"197 289 LINE SMOOTH",
"89 268 OFFCURVE",
"38 223 OFFCURVE",
"38 133 CURVE SMOOTH",
"38 44 OFFCURVE",
"104 -13 OFFCURVE",
"206 -13 CURVE SMOOTH",
"340 -13 OFFCURVE",
"383 81 OFFCURVE",
"377 209 CURVE",
"354 209 LINE",
"354 126 OFFCURVE",
"310 95 OFFCURVE",
"249 95 CURVE SMOOTH",
"202 95 OFFCURVE",
"180 120 OFFCURVE",
"180 153 CURVE SMOOTH"
);
}
);
};
layerId = "EE2B7256-3357-4F88-B485-875A1D2525DB";
name = "Bold Universal Display Jul 27 16, 16:44";
paths = (
{
closed = 1;
nodes = (
"486 0 LINE",
"486 362 LINE SMOOTH",
"486 472 OFFCURVE",
"410 540 OFFCURVE",
"280 540 CURVE SMOOTH",
"161 540 OFFCURVE",
"82 485 OFFCURVE",
"56 379 CURVE SMOOTH",
"49 350 LINE",
"193 350 LINE",
"198 367 LINE SMOOTH",
"210 407 OFFCURVE",
"235 424 OFFCURVE",
"281 424 CURVE SMOOTH",
"332 424 OFFCURVE",
"354 396 OFFCURVE",
"354 358 CURVE SMOOTH",
"354 0 LINE"
);
},
{
closed = 1;
nodes = (
"180 183 OFFCURVE",
"199 202 OFFCURVE",
"242 210 CURVE SMOOTH",
"360 233 LINE SMOOTH",
"399 241 OFFCURVE",
"437 264 OFFCURVE",
"440 303 CURVE",
"440 364 LINE",
"413 364 LINE",
"411 340 OFFCURVE",
"397 328 OFFCURVE",
"360 321 CURVE SMOOTH",
"197 289 LINE SMOOTH",
"89 268 OFFCURVE",
"38 223 OFFCURVE",
"38 133 CURVE SMOOTH",
"38 44 OFFCURVE",
"104 -13 OFFCURVE",
"206 -13 CURVE SMOOTH",
"340 -13 OFFCURVE",
"383 81 OFFCURVE",
"377 209 CURVE",
"354 209 LINE",
"354 126 OFFCURVE",
"310 95 OFFCURVE",
"249 95 CURVE SMOOTH",
"202 95 OFFCURVE",
"180 120 OFFCURVE",
"180 153 CURVE SMOOTH"
);
}
);
width = 541;
},
{
associatedMasterId = "C76CAC8E-7AD6-478C-8F7E-02FEF6F1EA84";
background = {
paths = (
{
closed = 0;
nodes = (
"492 214 LINE",
"492 80 OFFCURVE",
"395 -13 OFFCURVE",
"264 -13 CURVE SMOOTH",
"163 -13 OFFCURVE",
"103 35 OFFCURVE",
"103 121 CURVE SMOOTH",
"103 194 OFFCURVE",
"146 233 OFFCURVE",
"236 255 CURVE SMOOTH",
"438 304 LINE SMOOTH",
"475 313 OFFCURVE",
"490 324 OFFCURVE",
"492 348 CURVE"
);
},
{
closed = 0;
nodes = (
"492 0 LINE",
"492 387 LINE SMOOTH",
"492 477 OFFCURVE",
"431 540 OFFCURVE",
"317 540 CURVE SMOOTH",
"219 540 OFFCURVE",
"153 504 OFFCURVE",
"132 434 CURVE SMOOTH",
"124 408 LINE"
);
}
);
};
layerId = "284387EF-6F11-44D8-B09C-C51BD54F6408";
name = "Universal Jul 20 16, 17:13";
paths = (
{
closed = 0;
nodes = (
"492 214 LINE",
"492 80 OFFCURVE",
"395 -13 OFFCURVE",
"264 -13 CURVE SMOOTH",
"163 -13 OFFCURVE",
"103 35 OFFCURVE",
"103 121 CURVE SMOOTH",
"103 194 OFFCURVE",
"146 233 OFFCURVE",
"236 255 CURVE SMOOTH",
"438 304 LINE SMOOTH",
"475 313 OFFCURVE",
"490 324 OFFCURVE",
"492 348 CURVE"
);
},
{
closed = 0;
nodes = (
"492 0 LINE",
"492 387 LINE SMOOTH",
"492 477 OFFCURVE",
"431 540 OFFCURVE",
"317 540 CURVE SMOOTH",
"219 540 OFFCURVE",
"153 504 OFFCURVE",
"132 434 CURVE SMOOTH",
"124 408 LINE"
);
}
);
width = 600;
},
{
associatedMasterId = "C76CAC8E-7AD6-478C-8F7E-02FEF6F1EA84";
background = {
paths = (
{
closed = 1;
nodes = (
"439 0 LINE",
"439 370 LINE SMOOTH",
"439 467 OFFCURVE",
"373 530 OFFCURVE",
"266 530 CURVE SMOOTH",
"176 530 OFFCURVE",
"111 491 OFFCURVE",
"82 414 CURVE SMOOTH",
"73 390 LINE",
"93 390 LINE",
"101 411 LINE SMOOTH",
"126 478 OFFCURVE",
"181 512 OFFCURVE",
"266 512 CURVE SMOOTH",
"365 512 OFFCURVE",
"421 455 OFFCURVE",
"421 369 CURVE SMOOTH",
"421 0 LINE"
);
},
{
closed = 1;
nodes = (
"75 176 OFFCURVE",
"101 213 OFFCURVE",
"188 234 CURVE SMOOTH",
"380 282 LINE SMOOTH",
"416 290 OFFCURVE",
"431 301 OFFCURVE",
"433 324 CURVE",
"433 341 LINE",
"428 341 LINE",
"426 317 OFFCURVE",
"411 307 OFFCURVE",
"375 298 CURVE SMOOTH",
"183 250 LINE SMOOTH",
"91 228 OFFCURVE",
"55 184 OFFCURVE",
"55 117 CURVE SMOOTH",
"55 33 OFFCURVE",
"118 -15 OFFCURVE",
"214 -15 CURVE SMOOTH",
"332 -15 OFFCURVE",
"438 79 OFFCURVE",
"432 208 CURVE",
"421 208 LINE",
"421 82 OFFCURVE",
"317 3 OFFCURVE",
"215 3 CURVE SMOOTH",
"129 3 OFFCURVE",
"75 44 OFFCURVE",
"75 117 CURVE SMOOTH"
);
}
);
};
guideLines = (
{
angle = 69.444;
position = "{73, 390}";
},
{
angle = 69.4439;
position = "{93, 390}";
}
);
layerId = "6FE3EC39-7DD2-4981-92A6-DB9EAE6462B4";
name = "Universal Display Aug 9 16, 09:56";
paths = (
{
closed = 1;
nodes = (
"439 0 LINE",
"439 370 LINE SMOOTH",
"439 467 OFFCURVE",
"373 530 OFFCURVE",
"266 530 CURVE SMOOTH",
"176 530 OFFCURVE",
"111 491 OFFCURVE",
"82 414 CURVE SMOOTH",
"73 390 LINE",
"93 390 LINE",
"101 411 LINE SMOOTH",
"126 478 OFFCURVE",
"181 512 OFFCURVE",
"266 512 CURVE SMOOTH",
"365 512 OFFCURVE",
"421 455 OFFCURVE",
"421 369 CURVE SMOOTH",
"421 0 LINE"
);
},
{
closed = 1;
nodes = (
"75 176 OFFCURVE",
"101 213 OFFCURVE",
"188 234 CURVE SMOOTH",
"380 282 LINE SMOOTH",
"416 290 OFFCURVE",
"431 301 OFFCURVE",
"433 324 CURVE",
"433 341 LINE",
"428 341 LINE",
"426 317 OFFCURVE",
"411 307 OFFCURVE",
"375 298 CURVE SMOOTH",
"183 250 LINE SMOOTH",
"91 228 OFFCURVE",
"55 184 OFFCURVE",
"55 117 CURVE SMOOTH",
"55 33 OFFCURVE",
"118 -15 OFFCURVE",
"214 -15 CURVE SMOOTH",
"332 -15 OFFCURVE",
"438 79 OFFCURVE",
"432 208 CURVE",
"421 208 LINE",
"421 82 OFFCURVE",
"317 3 OFFCURVE",
"215 3 CURVE SMOOTH",
"129 3 OFFCURVE",
"75 44 OFFCURVE",
"75 117 CURVE SMOOTH"
);
}
);
width = 514;
},
{
background = {
paths = (
{
closed = 1;
nodes = (
"299 -13 OFFCURVE",
"378 22 OFFCURVE",
"406 102 CURVE",
"349 71 LINE",
"445 71 LINE",
"395 92 LINE",
"415 0 LINE",
"600 0 LINE",
"600 329 LINE SMOOTH",
"600 486 OFFCURVE",
"518 550 OFFCURVE",
"330 550 CURVE SMOOTH",
"158 550 OFFCURVE",
"87 495 OFFCURVE",
"55 377 CURVE SMOOTH",
"45 340 LINE",
"250 340 LINE",
"254 352 LINE SMOOTH",
"262 377 OFFCURVE",
"279 395 OFFCURVE",
"326 395 CURVE SMOOTH",
"380 395 OFFCURVE",
"395 379 OFFCURVE",
"395 330 CURVE SMOOTH",
"395 212 LINE SMOOTH",
"395 152 OFFCURVE",
"343 125 OFFCURVE",
"295 125 CURVE SMOOTH",
"255 125 OFFCURVE",
"237 138 OFFCURVE",
"237 165 CURVE SMOOTH",
"237 188 OFFCURVE",
"251 200 OFFCURVE",
"304 206 CURVE SMOOTH",
"427 220 LINE SMOOTH",
"467 225 OFFCURVE",
"506 253 OFFCURVE",
"509 291 CURVE",
"509 368 LINE",
"482 368 LINE",
"480 348 OFFCURVE",
"466 332 OFFCURVE",
"429 328 CURVE SMOOTH",
"205 303 LINE SMOOTH",
"71 288 OFFCURVE",
"20 228 OFFCURVE",
"20 138 CURVE SMOOTH",
"20 41 OFFCURVE",
"90 -13 OFFCURVE",
"205 -13 CURVE SMOOTH"
);
}
);
};
guideLines = (
{
angle = 260.5377;
position = "{255, 343}";
}
);
layerId = "2D8239A6-199F-4292-A93F-56491AD13939";
paths = (
{
closed = 1;
nodes = (
"310 -13 OFFCURVE",
"369 15 OFFCURVE",
"396 71 CURVE",
"355 67 LINE",
"421 67 LINE",
"398 85 LINE",
"419 0 LINE",
"598 0 LINE",
"598 334 LINE SMOOTH",
"598 486 OFFCURVE",
"508 550 OFFCURVE",
"332 550 CURVE SMOOTH",
"161 550 OFFCURVE",
"78 495 OFFCURVE",
"54 368 CURVE SMOOTH",
"50 347 LINE",
"253 347 LINE",
"255 359 LINE SMOOTH",
"260 388 OFFCURVE",
"283 403 OFFCURVE",
"326 403 CURVE SMOOTH",
"374 403 OFFCURVE",
"393 384 OFFCURVE",
"393 337 CURVE SMOOTH",
"393 192 LINE SMOOTH",
"393 148 OFFCURVE",
"359 118 OFFCURVE",
"301 118 CURVE SMOOTH",
"259 118 OFFCURVE",
"238 131 OFFCURVE",
"238 162 CURVE SMOOTH",
"238 191 OFFCURVE",
"255 205 OFFCURVE",
"299 210 CURVE SMOOTH",
"424 224 LINE SMOOTH",
"464 228 OFFCURVE",
"503 257 OFFCURVE",
"506 294 CURVE",
"506 371 LINE",
"479 371 LINE",
"477 351 OFFCURVE",
"463 335 OFFCURVE",
"426 331 CURVE SMOOTH",
"207 307 LINE SMOOTH",
"77 293 OFFCURVE",
"27 233 OFFCURVE",
"27 146 CURVE SMOOTH",
"27 41 OFFCURVE",
"98 -13 OFFCURVE",
"226 -13 CURVE SMOOTH"
);
}
);
width = 635;
},
{
associatedMasterId = "C76CAC8E-7AD6-478C-8F7E-02FEF6F1EA84";
background = {
paths = (
{
closed = 0;
nodes = (
"492 214 LINE",
"492 80 OFFCURVE",
"395 -13 OFFCURVE",
"264 -13 CURVE SMOOTH",
"163 -13 OFFCURVE",
"103 35 OFFCURVE",
"103 121 CURVE SMOOTH",
"103 194 OFFCURVE",
"146 233 OFFCURVE",
"236 255 CURVE SMOOTH",
"438 304 LINE SMOOTH",
"475 313 OFFCURVE",
"490 324 OFFCURVE",
"492 348 CURVE"
);
},
{
closed = 0;
nodes = (
"492 0 LINE",
"492 387 LINE SMOOTH",
"492 477 OFFCURVE",
"431 540 OFFCURVE",
"317 540 CURVE SMOOTH",
"219 540 OFFCURVE",
"153 504 OFFCURVE",
"132 434 CURVE SMOOTH",
"124 408 LINE"
);
}
);
};
layerId = "5D23A504-4D3D-4C77-982D-2116CF9DACA8";
name = "Universal Jul 20 16, 17:13";
paths = (
{
closed = 0;
nodes = (
"492 214 LINE",
"492 80 OFFCURVE",
"395 -13 OFFCURVE",
"264 -13 CURVE SMOOTH",
"163 -13 OFFCURVE",
"103 35 OFFCURVE",
"103 121 CURVE SMOOTH",
"103 194 OFFCURVE",
"146 233 OFFCURVE",
"236 255 CURVE SMOOTH",
"438 304 LINE SMOOTH",
"475 313 OFFCURVE",
"490 324 OFFCURVE",
"492 348 CURVE"
);
},
{
closed = 0;
nodes = (
"492 0 LINE",
"492 387 LINE SMOOTH",
"492 477 OFFCURVE",
"431 540 OFFCURVE",
"317 540 CURVE SMOOTH",
"219 540 OFFCURVE",
"153 504 OFFCURVE",
"132 434 CURVE SMOOTH",
"124 408 LINE"
);
}
);
width = 600;
},
{
associatedMasterId = "C76CAC8E-7AD6-478C-8F7E-02FEF6F1EA84";
background = {
paths = (
{
closed = 1;
nodes = (
"482 0 LINE",
"482 362 LINE SMOOTH",
"482 472 OFFCURVE",
"406 540 OFFCURVE",
"276 540 CURVE SMOOTH",
"143 540 OFFCURVE",
"70 475 OFFCURVE",
"53 379 CURVE SMOOTH",
"48 351 LINE",
"189 350 LINE",
"193 367 LINE SMOOTH",
"200 402 OFFCURVE",
"226 422 OFFCURVE",
"275 422 CURVE SMOOTH",
"324 422 OFFCURVE",
"350 396 OFFCURVE",
"350 358 CURVE SMOOTH",
"350 0 LINE"
);
},
{
closed = 1;
nodes = (
"183 183 OFFCURVE",
"201 201 OFFCURVE",
"242 210 CURVE SMOOTH",
"341 230 LINE SMOOTH",
"379 238 OFFCURVE",
"418 261 OFFCURVE",
"421 300 CURVE",
"421 363 LINE",
"394 361 LINE",
"392 337 OFFCURVE",
"376 325 OFFCURVE",
"341 318 CURVE SMOOTH",
"193 289 LINE SMOOTH",
"83 267 OFFCURVE",
"34 223 OFFCURVE",
"34 133 CURVE SMOOTH",
"34 43 OFFCURVE",
"100 -15 OFFCURVE",
"202 -15 CURVE SMOOTH",
"336 -15 OFFCURVE",
"379 80 OFFCURVE",
"373 209 CURVE",
"350 209 LINE",
"350 127 OFFCURVE",
"310 97 OFFCURVE",
"249 97 CURVE SMOOTH",
"204 97 OFFCURVE",
"183 121 OFFCURVE",
"183 153 CURVE SMOOTH"
);
}
);
};
layerId = "7C4513DD-C9D3-4670-A5EF-0FF4656FF5D9";
name = "Bold Universal Display Jul 24 16, 18:39";
paths = (
{
closed = 1;
nodes = (
"482 0 LINE",
"482 362 LINE SMOOTH",
"482 472 OFFCURVE",
"406 540 OFFCURVE",
"276 540 CURVE SMOOTH",
"143 540 OFFCURVE",
"70 475 OFFCURVE",
"53 379 CURVE SMOOTH",
"48 351 LINE",
"189 350 LINE",
"193 367 LINE SMOOTH",
"200 402 OFFCURVE",
"226 422 OFFCURVE",
"275 422 CURVE SMOOTH",
"324 422 OFFCURVE",
"350 396 OFFCURVE",
"350 358 CURVE SMOOTH",
"350 0 LINE"
);
},
{
closed = 1;
nodes = (
"183 183 OFFCURVE",
"201 201 OFFCURVE",
"242 210 CURVE SMOOTH",
"341 230 LINE SMOOTH",
"379 238 OFFCURVE",
"418 261 OFFCURVE",
"421 300 CURVE",
"421 363 LINE",
"394 361 LINE",
"392 337 OFFCURVE",
"376 325 OFFCURVE",
"341 318 CURVE SMOOTH",
"193 289 LINE SMOOTH",
"83 267 OFFCURVE",
"34 223 OFFCURVE",
"34 133 CURVE SMOOTH",
"34 43 OFFCURVE",
"100 -15 OFFCURVE",
"202 -15 CURVE SMOOTH",
"336 -15 OFFCURVE",
"379 80 OFFCURVE",
"373 209 CURVE",
"350 209 LINE",
"350 127 OFFCURVE",
"310 97 OFFCURVE",
"249 97 CURVE SMOOTH",
"204 97 OFFCURVE",
"183 121 OFFCURVE",
"183 153 CURVE SMOOTH"
);
}
);
width = 531;
},
{
associatedMasterId = "C76CAC8E-7AD6-478C-8F7E-02FEF6F1EA84";
background = {
paths = (
{
closed = 1;
nodes = (
"482 0 LINE",
"482 362 LINE SMOOTH",
"482 472 OFFCURVE",
"406 540 OFFCURVE",
"276 540 CURVE SMOOTH",
"157 540 OFFCURVE",
"79 485 OFFCURVE",
"52 379 CURVE SMOOTH",
"45 351 LINE",
"188 350 LINE",
"194 367 LINE SMOOTH",
"207 405 OFFCURVE",
"231 424 OFFCURVE",
"277 424 CURVE SMOOTH",
"328 424 OFFCURVE",
"350 396 OFFCURVE",
"350 358 CURVE SMOOTH",
"350 0 LINE"
);
},
{
closed = 1;
nodes = (
"183 183 OFFCURVE",
"201 202 OFFCURVE",
"242 210 CURVE SMOOTH",
"356 233 LINE SMOOTH",
"394 241 OFFCURVE",
"433 264 OFFCURVE",
"436 303 CURVE",
"436 364 LINE",
"409 364 LINE",
"407 340 OFFCURVE",
"391 328 OFFCURVE",
"356 321 CURVE SMOOTH",
"193 289 LINE SMOOTH",
"83 267 OFFCURVE",
"34 223 OFFCURVE",
"34 133 CURVE SMOOTH",
"34 43 OFFCURVE",
"100 -15 OFFCURVE",
"202 -15 CURVE SMOOTH",
"336 -15 OFFCURVE",
"379 80 OFFCURVE",
"373 209 CURVE",
"350 209 LINE",
"350 127 OFFCURVE",
"310 97 OFFCURVE",
"249 97 CURVE SMOOTH",
"204 97 OFFCURVE",
"183 121 OFFCURVE",
"183 153 CURVE SMOOTH"
);
}
);
};
layerId = "3C7D1433-089F-45CF-8C2B-083ED80E6DBB";
name = "Bold Universal Display Jul 25 16, 12:01";
paths = (
{
closed = 1;
nodes = (
"183 183 OFFCURVE",
"201 202 OFFCURVE",
"242 210 CURVE SMOOTH",
"356 233 LINE SMOOTH",
"394 241 OFFCURVE",
"433 264 OFFCURVE",
"436 303 CURVE",
"436 364 LINE",
"409 364 LINE",
"407 340 OFFCURVE",
"391 328 OFFCURVE",
"356 321 CURVE SMOOTH",
"193 289 LINE SMOOTH",
"83 267 OFFCURVE",
"34 223 OFFCURVE",
"34 133 CURVE SMOOTH",
"34 43 OFFCURVE",
"100 -15 OFFCURVE",
"202 -15 CURVE SMOOTH",
"336 -15 OFFCURVE",
"379 80 OFFCURVE",
"373 209 CURVE",
"350 209 LINE",
"350 127 OFFCURVE",
"310 97 OFFCURVE",
"249 97 CURVE SMOOTH",
"204 97 OFFCURVE",
"183 121 OFFCURVE",
"183 153 CURVE SMOOTH"
);
},
{
closed = 1;
nodes = (
"194 366 LINE",
"206 405 OFFCURVE",
"231 424 OFFCURVE",
"277 424 CURVE SMOOTH",
"328 424 OFFCURVE",
"350 396 OFFCURVE",
"350 358 CURVE SMOOTH",
"350 0 LINE",
"482 0 LINE",
"482 362 LINE SMOOTH",
"482 472 OFFCURVE",
"406 540 OFFCURVE",
"277 540 CURVE SMOOTH",
"161 540 OFFCURVE",
"77 484 OFFCURVE",
"53 379 CURVE SMOOTH",
"50 366 LINE"
);
}
);
width = 531;
},
{
associatedMasterId = "C76CAC8E-7AD6-478C-8F7E-02FEF6F1EA84";
background = {
paths = (
{
closed = 1;
nodes = (
"486 0 LINE",
"486 362 LINE SMOOTH",
"486 472 OFFCURVE",
"410 540 OFFCURVE",
"280 540 CURVE SMOOTH",
"161 540 OFFCURVE",
"82 485 OFFCURVE",
"56 379 CURVE SMOOTH",
"49 350 LINE",
"193 350 LINE",
"198 367 LINE SMOOTH",
"210 407 OFFCURVE",
"235 424 OFFCURVE",
"281 424 CURVE SMOOTH",
"332 424 OFFCURVE",
"354 396 OFFCURVE",
"354 358 CURVE SMOOTH",
"354 0 LINE"
);
},
{
closed = 1;
nodes = (
"180 183 OFFCURVE",
"199 202 OFFCURVE",
"242 210 CURVE SMOOTH",
"360 233 LINE SMOOTH",
"399 241 OFFCURVE",
"437 264 OFFCURVE",
"440 303 CURVE",
"440 364 LINE",
"413 364 LINE",
"411 340 OFFCURVE",
"397 328 OFFCURVE",
"360 321 CURVE SMOOTH",
"197 289 LINE SMOOTH",
"89 268 OFFCURVE",
"38 223 OFFCURVE",
"38 133 CURVE SMOOTH",
"38 44 OFFCURVE",
"104 -13 OFFCURVE",
"206 -13 CURVE SMOOTH",
"340 -13 OFFCURVE",
"383 81 OFFCURVE",
"377 209 CURVE",
"354 209 LINE",
"354 126 OFFCURVE",
"310 95 OFFCURVE",
"249 95 CURVE SMOOTH",
"202 95 OFFCURVE",
"180 120 OFFCURVE",
"180 153 CURVE SMOOTH"
);
}
);
};
layerId = "06FC19D8-3BD6-4A22-B38E-F166DA5FEAD1";
name = "Bold Universal Display Jul 27 16, 16:44";
paths = (
{
closed = 1;
nodes = (
"486 0 LINE",
"486 362 LINE SMOOTH",
"486 472 OFFCURVE",
"410 540 OFFCURVE",
"280 540 CURVE SMOOTH",
"161 540 OFFCURVE",
"82 485 OFFCURVE",
"56 379 CURVE SMOOTH",
"49 350 LINE",
"193 350 LINE",
"198 367 LINE SMOOTH",
"210 407 OFFCURVE",
"235 424 OFFCURVE",
"281 424 CURVE SMOOTH",
"332 424 OFFCURVE",
"354 396 OFFCURVE",
"354 358 CURVE SMOOTH",
"354 0 LINE"
);
},
{
closed = 1;
nodes = (
"180 183 OFFCURVE",
"199 202 OFFCURVE",
"242 210 CURVE SMOOTH",
"360 233 LINE SMOOTH",
"399 241 OFFCURVE",
"437 264 OFFCURVE",
"440 303 CURVE",
"440 364 LINE",
"413 364 LINE",
"411 340 OFFCURVE",
"397 328 OFFCURVE",
"360 321 CURVE SMOOTH",
"197 289 LINE SMOOTH",
"89 268 OFFCURVE",
"38 223 OFFCURVE",
"38 133 CURVE SMOOTH",
"38 44 OFFCURVE",
"104 -13 OFFCURVE",
"206 -13 CURVE SMOOTH",
"340 -13 OFFCURVE",
"383 81 OFFCURVE",
"377 209 CURVE",
"354 209 LINE",
"354 126 OFFCURVE",
"310 95 OFFCURVE",
"249 95 CURVE SMOOTH",
"202 95 OFFCURVE",
"180 120 OFFCURVE",
"180 153 CURVE SMOOTH"
);
}
);
width = 541;
},
{
associatedMasterId = "C76CAC8E-7AD6-478C-8F7E-02FEF6F1EA84";
background = {
paths = (
{
closed = 0;
nodes = (
"492 214 LINE",
"492 80 OFFCURVE",
"395 -13 OFFCURVE",
"264 -13 CURVE SMOOTH",
"163 -13 OFFCURVE",
"103 35 OFFCURVE",
"103 121 CURVE SMOOTH",
"103 194 OFFCURVE",
"146 233 OFFCURVE",
"236 255 CURVE SMOOTH",
"438 304 LINE SMOOTH",
"475 313 OFFCURVE",
"490 324 OFFCURVE",
"492 348 CURVE"
);
},
{
closed = 0;
nodes = (
"492 0 LINE",
"492 387 LINE SMOOTH",
"492 477 OFFCURVE",
"431 540 OFFCURVE",
"317 540 CURVE SMOOTH",
"219 540 OFFCURVE",
"153 504 OFFCURVE",
"132 434 CURVE SMOOTH",
"124 408 LINE"
);
}
);
};
layerId = "A36CE5A3-C49D-4260-9948-ECAA490957BE";
name = "Universal Jul 20 16, 17:13";
paths = (
{
closed = 0;
nodes = (
"492 214 LINE",
"492 80 OFFCURVE",
"395 -13 OFFCURVE",
"264 -13 CURVE SMOOTH",
"163 -13 OFFCURVE",
"103 35 OFFCURVE",
"103 121 CURVE SMOOTH",
"103 194 OFFCURVE",
"146 233 OFFCURVE",
"236 255 CURVE SMOOTH",
"438 304 LINE SMOOTH",
"475 313 OFFCURVE",
"490 324 OFFCURVE",
"492 348 CURVE"
);
},
{
closed = 0;
nodes = (
"492 0 LINE",
"492 387 LINE SMOOTH",
"492 477 OFFCURVE",
"431 540 OFFCURVE",
"317 540 CURVE SMOOTH",
"219 540 OFFCURVE",
"153 504 OFFCURVE",
"132 434 CURVE SMOOTH",
"124 408 LINE"
);
}
);
width = 600;
},
{
associatedMasterId = "C76CAC8E-7AD6-478C-8F7E-02FEF6F1EA84";
background = {
paths = (
{
closed = 1;
nodes = (
"439 0 LINE",
"439 370 LINE SMOOTH",
"439 467 OFFCURVE",
"373 530 OFFCURVE",
"266 530 CURVE SMOOTH",
"176 530 OFFCURVE",
"111 491 OFFCURVE",
"82 414 CURVE SMOOTH",
"73 390 LINE",
"93 390 LINE",
"101 411 LINE SMOOTH",
"126 478 OFFCURVE",
"181 512 OFFCURVE",
"266 512 CURVE SMOOTH",
"365 512 OFFCURVE",
"421 455 OFFCURVE",
"421 369 CURVE SMOOTH",
"421 0 LINE"
);
},
{
closed = 1;
nodes = (
"75 176 OFFCURVE",
"101 213 OFFCURVE",
"188 234 CURVE SMOOTH",
"380 282 LINE SMOOTH",
"416 290 OFFCURVE",
"431 301 OFFCURVE",
"433 324 CURVE",
"433 341 LINE",
"428 341 LINE",
"426 317 OFFCURVE",
"411 307 OFFCURVE",
"375 298 CURVE SMOOTH",
"183 250 LINE SMOOTH",
"91 228 OFFCURVE",
"55 184 OFFCURVE",
"55 117 CURVE SMOOTH",
"55 33 OFFCURVE",
"118 -15 OFFCURVE",
"214 -15 CURVE SMOOTH",
"332 -15 OFFCURVE",
"438 79 OFFCURVE",
"432 208 CURVE",
"421 208 LINE",
"421 82 OFFCURVE",
"317 3 OFFCURVE",
"215 3 CURVE SMOOTH",
"129 3 OFFCURVE",
"75 44 OFFCURVE",
"75 117 CURVE SMOOTH"
);
}
);
};
guideLines = (
{
angle = 69.444;
position = "{73, 390}";
},
{
angle = 69.4439;
position = "{93, 390}";
}
);
layerId = "833119B4-C07F-48D1-9E41-398BDBE44589";
name = "Universal Display Aug 9 16, 09:56";
paths = (
{
closed = 1;
nodes = (
"439 0 LINE",
"439 370 LINE SMOOTH",
"439 467 OFFCURVE",
"373 530 OFFCURVE",
"266 530 CURVE SMOOTH",
"176 530 OFFCURVE",
"111 491 OFFCURVE",
"82 414 CURVE SMOOTH",
"73 390 LINE",
"93 390 LINE",
"101 411 LINE SMOOTH",
"126 478 OFFCURVE",
"181 512 OFFCURVE",
"266 512 CURVE SMOOTH",
"365 512 OFFCURVE",
"421 455 OFFCURVE",
"421 369 CURVE SMOOTH",
"421 0 LINE"
);
},
{
closed = 1;
nodes = (
"75 176 OFFCURVE",
"101 213 OFFCURVE",
"188 234 CURVE SMOOTH",
"380 282 LINE SMOOTH",
"416 290 OFFCURVE",
"431 301 OFFCURVE",
"433 324 CURVE",
"433 341 LINE",
"428 341 LINE",
"426 317 OFFCURVE",
"411 307 OFFCURVE",
"375 298 CURVE SMOOTH",
"183 250 LINE SMOOTH",
"91 228 OFFCURVE",
"55 184 OFFCURVE",
"55 117 CURVE SMOOTH",
"55 33 OFFCURVE",
"118 -15 OFFCURVE",
"214 -15 CURVE SMOOTH",
"332 -15 OFFCURVE",
"438 79 OFFCURVE",
"432 208 CURVE",
"421 208 LINE",
"421 82 OFFCURVE",
"317 3 OFFCURVE",
"215 3 CURVE SMOOTH",
"129 3 OFFCURVE",
"75 44 OFFCURVE",
"75 117 CURVE SMOOTH"
);
}
);
width = 514;
},
{
associatedMasterId = "C76CAC8E-7AD6-478C-8F7E-02FEF6F1EA84";
background = {
paths = (
{
closed = 0;
nodes = (
"492 214 LINE",
"492 80 OFFCURVE",
"395 -13 OFFCURVE",
"264 -13 CURVE SMOOTH",
"163 -13 OFFCURVE",
"103 35 OFFCURVE",
"103 121 CURVE SMOOTH",
"103 194 OFFCURVE",
"146 233 OFFCURVE",
"236 255 CURVE SMOOTH",
"438 304 LINE SMOOTH",
"475 313 OFFCURVE",
"490 324 OFFCURVE",
"492 348 CURVE"
);
},
{
closed = 0;
nodes = (
"492 0 LINE",
"492 387 LINE SMOOTH",
"492 477 OFFCURVE",
"431 540 OFFCURVE",
"317 540 CURVE SMOOTH",
"219 540 OFFCURVE",
"153 504 OFFCURVE",
"132 434 CURVE SMOOTH",
"124 408 LINE"
);
}
);
};
layerId = "B0FA458B-FCA9-4585-B8C9-C791C4F7B29F";
name = "Universal Jul 20 16, 17:13";
paths = (
{
closed = 0;
nodes = (
"492 214 LINE",
"492 80 OFFCURVE",
"395 -13 OFFCURVE",
"264 -13 CURVE SMOOTH",
"163 -13 OFFCURVE",
"103 35 OFFCURVE",
"103 121 CURVE SMOOTH",
"103 194 OFFCURVE",
"146 233 OFFCURVE",
"236 255 CURVE SMOOTH",
"438 304 LINE SMOOTH",
"475 313 OFFCURVE",
"490 324 OFFCURVE",
"492 348 CURVE"
);
},
{
closed = 0;
nodes = (
"492 0 LINE",
"492 387 LINE SMOOTH",
"492 477 OFFCURVE",
"431 540 OFFCURVE",
"317 540 CURVE SMOOTH",
"219 540 OFFCURVE",
"153 504 OFFCURVE",
"132 434 CURVE SMOOTH",
"124 408 LINE"
);
}
);
width = 600;
},
{
associatedMasterId = "C76CAC8E-7AD6-478C-8F7E-02FEF6F1EA84";
background = {
paths = (
{
closed = 1;
nodes = (
"482 0 LINE",
"482 362 LINE SMOOTH",
"482 472 OFFCURVE",
"406 540 OFFCURVE",
"276 540 CURVE SMOOTH",
"143 540 OFFCURVE",
"70 475 OFFCURVE",
"53 379 CURVE SMOOTH",
"48 351 LINE",
"189 350 LINE",
"193 367 LINE SMOOTH",
"200 402 OFFCURVE",
"226 422 OFFCURVE",
"275 422 CURVE SMOOTH",
"324 422 OFFCURVE",
"350 396 OFFCURVE",
"350 358 CURVE SMOOTH",
"350 0 LINE"
);
},
{
closed = 1;
nodes = (
"183 183 OFFCURVE",
"201 201 OFFCURVE",
"242 210 CURVE SMOOTH",
"341 230 LINE SMOOTH",
"379 238 OFFCURVE",
"418 261 OFFCURVE",
"421 300 CURVE",
"421 363 LINE",
"394 361 LINE",
"392 337 OFFCURVE",
"376 325 OFFCURVE",
"341 318 CURVE SMOOTH",
"193 289 LINE SMOOTH",
"83 267 OFFCURVE",
"34 223 OFFCURVE",
"34 133 CURVE SMOOTH",
"34 43 OFFCURVE",
"100 -15 OFFCURVE",
"202 -15 CURVE SMOOTH",
"336 -15 OFFCURVE",
"379 80 OFFCURVE",
"373 209 CURVE",
"350 209 LINE",
"350 127 OFFCURVE",
"310 97 OFFCURVE",
"249 97 CURVE SMOOTH",
"204 97 OFFCURVE",
"183 121 OFFCURVE",
"183 153 CURVE SMOOTH"
);
}
);
};
layerId = "EF4FEE09-D801-4161-AB42-7798E40EC466";
name = "Bold Universal Display Jul 24 16, 18:39";
paths = (
{
closed = 1;
nodes = (
"482 0 LINE",
"482 362 LINE SMOOTH",
"482 472 OFFCURVE",
"406 540 OFFCURVE",
"276 540 CURVE SMOOTH",
"143 540 OFFCURVE",
"70 475 OFFCURVE",
"53 379 CURVE SMOOTH",
"48 351 LINE",
"189 350 LINE",
"193 367 LINE SMOOTH",
"200 402 OFFCURVE",
"226 422 OFFCURVE",
"275 422 CURVE SMOOTH",
"324 422 OFFCURVE",
"350 396 OFFCURVE",
"350 358 CURVE SMOOTH",
"350 0 LINE"
);
},
{
closed = 1;
nodes = (
"183 183 OFFCURVE",
"201 201 OFFCURVE",
"242 210 CURVE SMOOTH",
"341 230 LINE SMOOTH",
"379 238 OFFCURVE",
"418 261 OFFCURVE",
"421 300 CURVE",
"421 363 LINE",
"394 361 LINE",
"392 337 OFFCURVE",
"376 325 OFFCURVE",
"341 318 CURVE SMOOTH",
"193 289 LINE SMOOTH",
"83 267 OFFCURVE",
"34 223 OFFCURVE",
"34 133 CURVE SMOOTH",
"34 43 OFFCURVE",
"100 -15 OFFCURVE",
"202 -15 CURVE SMOOTH",
"336 -15 OFFCURVE",
"379 80 OFFCURVE",
"373 209 CURVE",
"350 209 LINE",
"350 127 OFFCURVE",
"310 97 OFFCURVE",
"249 97 CURVE SMOOTH",
"204 97 OFFCURVE",
"183 121 OFFCURVE",
"183 153 CURVE SMOOTH"
);
}
);
width = 531;
},
{
associatedMasterId = "C76CAC8E-7AD6-478C-8F7E-02FEF6F1EA84";
background = {
paths = (
{
closed = 1;
nodes = (
"482 0 LINE",
"482 362 LINE SMOOTH",
"482 472 OFFCURVE",
"406 540 OFFCURVE",
"276 540 CURVE SMOOTH",
"157 540 OFFCURVE",
"79 485 OFFCURVE",
"52 379 CURVE SMOOTH",
"45 351 LINE",
"188 350 LINE",
"194 367 LINE SMOOTH",
"207 405 OFFCURVE",
"231 424 OFFCURVE",
"277 424 CURVE SMOOTH",
"328 424 OFFCURVE",
"350 396 OFFCURVE",
"350 358 CURVE SMOOTH",
"350 0 LINE"
);
},
{
closed = 1;
nodes = (
"183 183 OFFCURVE",
"201 202 OFFCURVE",
"242 210 CURVE SMOOTH",
"356 233 LINE SMOOTH",
"394 241 OFFCURVE",
"433 264 OFFCURVE",
"436 303 CURVE",
"436 364 LINE",
"409 364 LINE",
"407 340 OFFCURVE",
"391 328 OFFCURVE",
"356 321 CURVE SMOOTH",
"193 289 LINE SMOOTH",
"83 267 OFFCURVE",
"34 223 OFFCURVE",
"34 133 CURVE SMOOTH",
"34 43 OFFCURVE",
"100 -15 OFFCURVE",
"202 -15 CURVE SMOOTH",
"336 -15 OFFCURVE",
"379 80 OFFCURVE",
"373 209 CURVE",
"350 209 LINE",
"350 127 OFFCURVE",
"310 97 OFFCURVE",
"249 97 CURVE SMOOTH",
"204 97 OFFCURVE",
"183 121 OFFCURVE",
"183 153 CURVE SMOOTH"
);
}
);
};
layerId = "D103A9D1-3353-45FB-9E47-5C0E0797CF94";
name = "Bold Universal Display Jul 25 16, 12:01";
paths = (
{
closed = 1;
nodes = (
"183 183 OFFCURVE",
"201 202 OFFCURVE",
"242 210 CURVE SMOOTH",
"356 233 LINE SMOOTH",
"394 241 OFFCURVE",
"433 264 OFFCURVE",
"436 303 CURVE",
"436 364 LINE",
"409 364 LINE",
"407 340 OFFCURVE",
"391 328 OFFCURVE",
"356 321 CURVE SMOOTH",
"193 289 LINE SMOOTH",
"83 267 OFFCURVE",
"34 223 OFFCURVE",
"34 133 CURVE SMOOTH",
"34 43 OFFCURVE",
"100 -15 OFFCURVE",
"202 -15 CURVE SMOOTH",
"336 -15 OFFCURVE",
"379 80 OFFCURVE",
"373 209 CURVE",
"350 209 LINE",
"350 127 OFFCURVE",
"310 97 OFFCURVE",
"249 97 CURVE SMOOTH",
"204 97 OFFCURVE",
"183 121 OFFCURVE",
"183 153 CURVE SMOOTH"
);
},
{
closed = 1;
nodes = (
"194 366 LINE",
"206 405 OFFCURVE",
"231 424 OFFCURVE",
"277 424 CURVE SMOOTH",
"328 424 OFFCURVE",
"350 396 OFFCURVE",
"350 358 CURVE SMOOTH",
"350 0 LINE",
"482 0 LINE",
"482 362 LINE SMOOTH",
"482 472 OFFCURVE",
"406 540 OFFCURVE",
"277 540 CURVE SMOOTH",
"161 540 OFFCURVE",
"77 484 OFFCURVE",
"53 379 CURVE SMOOTH",
"50 366 LINE"
);
}
);
width = 531;
},
{
associatedMasterId = "C76CAC8E-7AD6-478C-8F7E-02FEF6F1EA84";
background = {
paths = (
{
closed = 1;
nodes = (
"486 0 LINE",
"486 362 LINE SMOOTH",
"486 472 OFFCURVE",
"410 540 OFFCURVE",
"280 540 CURVE SMOOTH",
"161 540 OFFCURVE",
"82 485 OFFCURVE",
"56 379 CURVE SMOOTH",
"49 350 LINE",
"193 350 LINE",
"198 367 LINE SMOOTH",
"210 407 OFFCURVE",
"235 424 OFFCURVE",
"281 424 CURVE SMOOTH",
"332 424 OFFCURVE",
"354 396 OFFCURVE",
"354 358 CURVE SMOOTH",
"354 0 LINE"
);
},
{
closed = 1;
nodes = (
"180 183 OFFCURVE",
"199 202 OFFCURVE",
"242 210 CURVE SMOOTH",
"360 233 LINE SMOOTH",
"399 241 OFFCURVE",
"437 264 OFFCURVE",
"440 303 CURVE",
"440 364 LINE",
"413 364 LINE",
"411 340 OFFCURVE",
"397 328 OFFCURVE",
"360 321 CURVE SMOOTH",
"197 289 LINE SMOOTH",
"89 268 OFFCURVE",
"38 223 OFFCURVE",
"38 133 CURVE SMOOTH",
"38 44 OFFCURVE",
"104 -13 OFFCURVE",
"206 -13 CURVE SMOOTH",
"340 -13 OFFCURVE",
"383 81 OFFCURVE",
"377 209 CURVE",
"354 209 LINE",
"354 126 OFFCURVE",
"310 95 OFFCURVE",
"249 95 CURVE SMOOTH",
"202 95 OFFCURVE",
"180 120 OFFCURVE",
"180 153 CURVE SMOOTH"
);
}
);
};
layerId = "C5F03E83-D2F5-4A30-AE92-DAAD0EFB2B5C";
name = "Bold Universal Display Jul 27 16, 16:44";
paths = (
{
closed = 1;
nodes = (
"486 0 LINE",
"486 362 LINE SMOOTH",
"486 472 OFFCURVE",
"410 540 OFFCURVE",
"280 540 CURVE SMOOTH",
"161 540 OFFCURVE",
"82 485 OFFCURVE",
"56 379 CURVE SMOOTH",
"49 350 LINE",
"193 350 LINE",
"198 367 LINE SMOOTH",
"210 407 OFFCURVE",
"235 424 OFFCURVE",
"281 424 CURVE SMOOTH",
"332 424 OFFCURVE",
"354 396 OFFCURVE",
"354 358 CURVE SMOOTH",
"354 0 LINE"
);
},
{
closed = 1;
nodes = (
"180 183 OFFCURVE",
"199 202 OFFCURVE",
"242 210 CURVE SMOOTH",
"360 233 LINE SMOOTH",
"399 241 OFFCURVE",
"437 264 OFFCURVE",
"440 303 CURVE",
"440 364 LINE",
"413 364 LINE",
"411 340 OFFCURVE",
"397 328 OFFCURVE",
"360 321 CURVE SMOOTH",
"197 289 LINE SMOOTH",
"89 268 OFFCURVE",
"38 223 OFFCURVE",
"38 133 CURVE SMOOTH",
"38 44 OFFCURVE",
"104 -13 OFFCURVE",
"206 -13 CURVE SMOOTH",
"340 -13 OFFCURVE",
"383 81 OFFCURVE",
"377 209 CURVE",
"354 209 LINE",
"354 126 OFFCURVE",
"310 95 OFFCURVE",
"249 95 CURVE SMOOTH",
"202 95 OFFCURVE",
"180 120 OFFCURVE",
"180 153 CURVE SMOOTH"
);
}
);
width = 541;
},
{
associatedMasterId = "C76CAC8E-7AD6-478C-8F7E-02FEF6F1EA84";
background = {
paths = (
{
closed = 0;
nodes = (
"492 214 LINE",
"492 80 OFFCURVE",
"395 -13 OFFCURVE",
"264 -13 CURVE SMOOTH",
"163 -13 OFFCURVE",
"103 35 OFFCURVE",
"103 121 CURVE SMOOTH",
"103 194 OFFCURVE",
"146 233 OFFCURVE",
"236 255 CURVE SMOOTH",
"438 304 LINE SMOOTH",
"475 313 OFFCURVE",
"490 324 OFFCURVE",
"492 348 CURVE"
);
},
{
closed = 0;
nodes = (
"492 0 LINE",
"492 387 LINE SMOOTH",
"492 477 OFFCURVE",
"431 540 OFFCURVE",
"317 540 CURVE SMOOTH",
"219 540 OFFCURVE",
"153 504 OFFCURVE",
"132 434 CURVE SMOOTH",
"124 408 LINE"
);
}
);
};
layerId = "B7F7A28D-473C-49BF-AC01-862B2A1967F0";
name = "Universal Jul 20 16, 17:13";
paths = (
{
closed = 0;
nodes = (
"492 214 LINE",
"492 80 OFFCURVE",
"395 -13 OFFCURVE",
"264 -13 CURVE SMOOTH",
"163 -13 OFFCURVE",
"103 35 OFFCURVE",
"103 121 CURVE SMOOTH",
"103 194 OFFCURVE",
"146 233 OFFCURVE",
"236 255 CURVE SMOOTH",
"438 304 LINE SMOOTH",
"475 313 OFFCURVE",
"490 324 OFFCURVE",
"492 348 CURVE"
);
},
{
closed = 0;
nodes = (
"492 0 LINE",
"492 387 LINE SMOOTH",
"492 477 OFFCURVE",
"431 540 OFFCURVE",
"317 540 CURVE SMOOTH",
"219 540 OFFCURVE",
"153 504 OFFCURVE",
"132 434 CURVE SMOOTH",
"124 408 LINE"
);
}
);
width = 600;
},
{
associatedMasterId = "C76CAC8E-7AD6-478C-8F7E-02FEF6F1EA84";
background = {
paths = (
{
closed = 1;
nodes = (
"439 0 LINE",
"439 370 LINE SMOOTH",
"439 467 OFFCURVE",
"373 530 OFFCURVE",
"266 530 CURVE SMOOTH",
"176 530 OFFCURVE",
"111 491 OFFCURVE",
"82 414 CURVE SMOOTH",
"73 390 LINE",
"93 390 LINE",
"101 411 LINE SMOOTH",
"126 478 OFFCURVE",
"181 512 OFFCURVE",
"266 512 CURVE SMOOTH",
"365 512 OFFCURVE",
"421 455 OFFCURVE",
"421 369 CURVE SMOOTH",
"421 0 LINE"
);
},
{
closed = 1;
nodes = (
"75 176 OFFCURVE",
"101 213 OFFCURVE",
"188 234 CURVE SMOOTH",
"380 282 LINE SMOOTH",
"416 290 OFFCURVE",
"431 301 OFFCURVE",
"433 324 CURVE",
"433 341 LINE",
"428 341 LINE",
"426 317 OFFCURVE",
"411 307 OFFCURVE",
"375 298 CURVE SMOOTH",
"183 250 LINE SMOOTH",
"91 228 OFFCURVE",
"55 184 OFFCURVE",
"55 117 CURVE SMOOTH",
"55 33 OFFCURVE",
"118 -15 OFFCURVE",
"214 -15 CURVE SMOOTH",
"332 -15 OFFCURVE",
"438 79 OFFCURVE",
"432 208 CURVE",
"421 208 LINE",
"421 82 OFFCURVE",
"317 3 OFFCURVE",
"215 3 CURVE SMOOTH",
"129 3 OFFCURVE",
"75 44 OFFCURVE",
"75 117 CURVE SMOOTH"
);
}
);
};
guideLines = (
{
angle = 69.444;
position = "{73, 390}";
},
{
angle = 69.4439;
position = "{93, 390}";
}
);
layerId = "E44BAAA4-594C-4E6F-BF97-5507BB124504";
name = "Universal Display Aug 9 16, 09:56";
paths = (
{
closed = 1;
nodes = (
"439 0 LINE",
"439 370 LINE SMOOTH",
"439 467 OFFCURVE",
"373 530 OFFCURVE",
"266 530 CURVE SMOOTH",
"176 530 OFFCURVE",
"111 491 OFFCURVE",
"82 414 CURVE SMOOTH",
"73 390 LINE",
"93 390 LINE",
"101 411 LINE SMOOTH",
"126 478 OFFCURVE",
"181 512 OFFCURVE",
"266 512 CURVE SMOOTH",
"365 512 OFFCURVE",
"421 455 OFFCURVE",
"421 369 CURVE SMOOTH",
"421 0 LINE"
);
},
{
closed = 1;
nodes = (
"75 176 OFFCURVE",
"101 213 OFFCURVE",
"188 234 CURVE SMOOTH",
"380 282 LINE SMOOTH",
"416 290 OFFCURVE",
"431 301 OFFCURVE",
"433 324 CURVE",
"433 341 LINE",
"428 341 LINE",
"426 317 OFFCURVE",
"411 307 OFFCURVE",
"375 298 CURVE SMOOTH",
"183 250 LINE SMOOTH",
"91 228 OFFCURVE",
"55 184 OFFCURVE",
"55 117 CURVE SMOOTH",
"55 33 OFFCURVE",
"118 -15 OFFCURVE",
"214 -15 CURVE SMOOTH",
"332 -15 OFFCURVE",
"438 79 OFFCURVE",
"432 208 CURVE",
"421 208 LINE",
"421 82 OFFCURVE",
"317 3 OFFCURVE",
"215 3 CURVE SMOOTH",
"129 3 OFFCURVE",
"75 44 OFFCURVE",
"75 117 CURVE SMOOTH"
);
}
);
width = 514;
},
{
associatedMasterId = "C76CAC8E-7AD6-478C-8F7E-02FEF6F1EA84";
background = {
paths = (
{
closed = 0;
nodes = (
"492 214 LINE",
"492 80 OFFCURVE",
"395 -13 OFFCURVE",
"264 -13 CURVE SMOOTH",
"163 -13 OFFCURVE",
"103 35 OFFCURVE",
"103 121 CURVE SMOOTH",
"103 194 OFFCURVE",
"146 233 OFFCURVE",
"236 255 CURVE SMOOTH",
"438 304 LINE SMOOTH",
"475 313 OFFCURVE",
"490 324 OFFCURVE",
"492 348 CURVE"
);
},
{
closed = 0;
nodes = (
"492 0 LINE",
"492 387 LINE SMOOTH",
"492 477 OFFCURVE",
"431 540 OFFCURVE",
"317 540 CURVE SMOOTH",
"219 540 OFFCURVE",
"153 504 OFFCURVE",
"132 434 CURVE SMOOTH",
"124 408 LINE"
);
}
);
};
layerId = "36055139-0605-4C0A-80CB-87F9743FB5F3";
name = "Universal Jul 20 16, 17:13";
paths = (
{
closed = 0;
nodes = (
"492 214 LINE",
"492 80 OFFCURVE",
"395 -13 OFFCURVE",
"264 -13 CURVE SMOOTH",
"163 -13 OFFCURVE",
"103 35 OFFCURVE",
"103 121 CURVE SMOOTH",
"103 194 OFFCURVE",
"146 233 OFFCURVE",
"236 255 CURVE SMOOTH",
"438 304 LINE SMOOTH",
"475 313 OFFCURVE",
"490 324 OFFCURVE",
"492 348 CURVE"
);
},
{
closed = 0;
nodes = (
"492 0 LINE",
"492 387 LINE SMOOTH",
"492 477 OFFCURVE",
"431 540 OFFCURVE",
"317 540 CURVE SMOOTH",
"219 540 OFFCURVE",
"153 504 OFFCURVE",
"132 434 CURVE SMOOTH",
"124 408 LINE"
);
}
);
width = 600;
},
{
associatedMasterId = "C76CAC8E-7AD6-478C-8F7E-02FEF6F1EA84";
background = {
paths = (
{
closed = 1;
nodes = (
"482 0 LINE",
"482 362 LINE SMOOTH",
"482 472 OFFCURVE",
"406 540 OFFCURVE",
"276 540 CURVE SMOOTH",
"143 540 OFFCURVE",
"70 475 OFFCURVE",
"53 379 CURVE SMOOTH",
"48 351 LINE",
"189 350 LINE",
"193 367 LINE SMOOTH",
"200 402 OFFCURVE",
"226 422 OFFCURVE",
"275 422 CURVE SMOOTH",
"324 422 OFFCURVE",
"350 396 OFFCURVE",
"350 358 CURVE SMOOTH",
"350 0 LINE"
);
},
{
closed = 1;
nodes = (
"183 183 OFFCURVE",
"201 201 OFFCURVE",
"242 210 CURVE SMOOTH",
"341 230 LINE SMOOTH",
"379 238 OFFCURVE",
"418 261 OFFCURVE",
"421 300 CURVE",
"421 363 LINE",
"394 361 LINE",
"392 337 OFFCURVE",
"376 325 OFFCURVE",
"341 318 CURVE SMOOTH",
"193 289 LINE SMOOTH",
"83 267 OFFCURVE",
"34 223 OFFCURVE",
"34 133 CURVE SMOOTH",
"34 43 OFFCURVE",
"100 -15 OFFCURVE",
"202 -15 CURVE SMOOTH",
"336 -15 OFFCURVE",
"379 80 OFFCURVE",
"373 209 CURVE",
"350 209 LINE",
"350 127 OFFCURVE",
"310 97 OFFCURVE",
"249 97 CURVE SMOOTH",
"204 97 OFFCURVE",
"183 121 OFFCURVE",
"183 153 CURVE SMOOTH"
);
}
);
};
layerId = "B459185A-4524-4D2A-AC31-B37CE5FF1B7E";
name = "Bold Universal Display Jul 24 16, 18:39";
paths = (
{
closed = 1;
nodes = (
"482 0 LINE",
"482 362 LINE SMOOTH",
"482 472 OFFCURVE",
"406 540 OFFCURVE",
"276 540 CURVE SMOOTH",
"143 540 OFFCURVE",
"70 475 OFFCURVE",
"53 379 CURVE SMOOTH",
"48 351 LINE",
"189 350 LINE",
"193 367 LINE SMOOTH",
"200 402 OFFCURVE",
"226 422 OFFCURVE",
"275 422 CURVE SMOOTH",
"324 422 OFFCURVE",
"350 396 OFFCURVE",
"350 358 CURVE SMOOTH",
"350 0 LINE"
);
},
{
closed = 1;
nodes = (
"183 183 OFFCURVE",
"201 201 OFFCURVE",
"242 210 CURVE SMOOTH",
"341 230 LINE SMOOTH",
"379 238 OFFCURVE",
"418 261 OFFCURVE",
"421 300 CURVE",
"421 363 LINE",
"394 361 LINE",
"392 337 OFFCURVE",
"376 325 OFFCURVE",
"341 318 CURVE SMOOTH",
"193 289 LINE SMOOTH",
"83 267 OFFCURVE",
"34 223 OFFCURVE",
"34 133 CURVE SMOOTH",
"34 43 OFFCURVE",
"100 -15 OFFCURVE",
"202 -15 CURVE SMOOTH",
"336 -15 OFFCURVE",
"379 80 OFFCURVE",
"373 209 CURVE",
"350 209 LINE",
"350 127 OFFCURVE",
"310 97 OFFCURVE",
"249 97 CURVE SMOOTH",
"204 97 OFFCURVE",
"183 121 OFFCURVE",
"183 153 CURVE SMOOTH"
);
}
);
width = 531;
},
{
associatedMasterId = "C76CAC8E-7AD6-478C-8F7E-02FEF6F1EA84";
background = {
paths = (
{
closed = 1;
nodes = (
"482 0 LINE",
"482 362 LINE SMOOTH",
"482 472 OFFCURVE",
"406 540 OFFCURVE",
"276 540 CURVE SMOOTH",
"157 540 OFFCURVE",
"79 485 OFFCURVE",
"52 379 CURVE SMOOTH",
"45 351 LINE",
"188 350 LINE",
"194 367 LINE SMOOTH",
"207 405 OFFCURVE",
"231 424 OFFCURVE",
"277 424 CURVE SMOOTH",
"328 424 OFFCURVE",
"350 396 OFFCURVE",
"350 358 CURVE SMOOTH",
"350 0 LINE"
);
},
{
closed = 1;
nodes = (
"183 183 OFFCURVE",
"201 202 OFFCURVE",
"242 210 CURVE SMOOTH",
"356 233 LINE SMOOTH",
"394 241 OFFCURVE",
"433 264 OFFCURVE",
"436 303 CURVE",
"436 364 LINE",
"409 364 LINE",
"407 340 OFFCURVE",
"391 328 OFFCURVE",
"356 321 CURVE SMOOTH",
"193 289 LINE SMOOTH",
"83 267 OFFCURVE",
"34 223 OFFCURVE",
"34 133 CURVE SMOOTH",
"34 43 OFFCURVE",
"100 -15 OFFCURVE",
"202 -15 CURVE SMOOTH",
"336 -15 OFFCURVE",
"379 80 OFFCURVE",
"373 209 CURVE",
"350 209 LINE",
"350 127 OFFCURVE",
"310 97 OFFCURVE",
"249 97 CURVE SMOOTH",
"204 97 OFFCURVE",
"183 121 OFFCURVE",
"183 153 CURVE SMOOTH"
);
}
);
};
layerId = "FA6C431E-A192-4FA6-B495-B8E33346AD30";
name = "Bold Universal Display Jul 25 16, 12:01";
paths = (
{
closed = 1;
nodes = (
"183 183 OFFCURVE",
"201 202 OFFCURVE",
"242 210 CURVE SMOOTH",
"356 233 LINE SMOOTH",
"394 241 OFFCURVE",
"433 264 OFFCURVE",
"436 303 CURVE",
"436 364 LINE",
"409 364 LINE",
"407 340 OFFCURVE",
"391 328 OFFCURVE",
"356 321 CURVE SMOOTH",
"193 289 LINE SMOOTH",
"83 267 OFFCURVE",
"34 223 OFFCURVE",
"34 133 CURVE SMOOTH",
"34 43 OFFCURVE",
"100 -15 OFFCURVE",
"202 -15 CURVE SMOOTH",
"336 -15 OFFCURVE",
"379 80 OFFCURVE",
"373 209 CURVE",
"350 209 LINE",
"350 127 OFFCURVE",
"310 97 OFFCURVE",
"249 97 CURVE SMOOTH",
"204 97 OFFCURVE",
"183 121 OFFCURVE",
"183 153 CURVE SMOOTH"
);
},
{
closed = 1;
nodes = (
"194 366 LINE",
"206 405 OFFCURVE",
"231 424 OFFCURVE",
"277 424 CURVE SMOOTH",
"328 424 OFFCURVE",
"350 396 OFFCURVE",
"350 358 CURVE SMOOTH",
"350 0 LINE",
"482 0 LINE",
"482 362 LINE SMOOTH",
"482 472 OFFCURVE",
"406 540 OFFCURVE",
"277 540 CURVE SMOOTH",
"161 540 OFFCURVE",
"77 484 OFFCURVE",
"53 379 CURVE SMOOTH",
"50 366 LINE"
);
}
);
width = 531;
},
{
associatedMasterId = "C76CAC8E-7AD6-478C-8F7E-02FEF6F1EA84";
background = {
paths = (
{
closed = 1;
nodes = (
"486 0 LINE",
"486 362 LINE SMOOTH",
"486 472 OFFCURVE",
"410 540 OFFCURVE",
"280 540 CURVE SMOOTH",
"161 540 OFFCURVE",
"82 485 OFFCURVE",
"56 379 CURVE SMOOTH",
"49 350 LINE",
"193 350 LINE",
"198 367 LINE SMOOTH",
"210 407 OFFCURVE",
"235 424 OFFCURVE",
"281 424 CURVE SMOOTH",
"332 424 OFFCURVE",
"354 396 OFFCURVE",
"354 358 CURVE SMOOTH",
"354 0 LINE"
);
},
{
closed = 1;
nodes = (
"180 183 OFFCURVE",
"199 202 OFFCURVE",
"242 210 CURVE SMOOTH",
"360 233 LINE SMOOTH",
"399 241 OFFCURVE",
"437 264 OFFCURVE",
"440 303 CURVE",
"440 364 LINE",
"413 364 LINE",
"411 340 OFFCURVE",
"397 328 OFFCURVE",
"360 321 CURVE SMOOTH",
"197 289 LINE SMOOTH",
"89 268 OFFCURVE",
"38 223 OFFCURVE",
"38 133 CURVE SMOOTH",
"38 44 OFFCURVE",
"104 -13 OFFCURVE",
"206 -13 CURVE SMOOTH",
"340 -13 OFFCURVE",
"383 81 OFFCURVE",
"377 209 CURVE",
"354 209 LINE",
"354 126 OFFCURVE",
"310 95 OFFCURVE",
"249 95 CURVE SMOOTH",
"202 95 OFFCURVE",
"180 120 OFFCURVE",
"180 153 CURVE SMOOTH"
);
}
);
};
layerId = "5974C69A-7A97-4722-8DB4-AF00F758B08A";
name = "Bold Universal Display Jul 27 16, 16:44";
paths = (
{
closed = 1;
nodes = (
"486 0 LINE",
"486 362 LINE SMOOTH",
"486 472 OFFCURVE",
"410 540 OFFCURVE",
"280 540 CURVE SMOOTH",
"161 540 OFFCURVE",
"82 485 OFFCURVE",
"56 379 CURVE SMOOTH",
"49 350 LINE",
"193 350 LINE",
"198 367 LINE SMOOTH",
"210 407 OFFCURVE",
"235 424 OFFCURVE",
"281 424 CURVE SMOOTH",
"332 424 OFFCURVE",
"354 396 OFFCURVE",
"354 358 CURVE SMOOTH",
"354 0 LINE"
);
},
{
closed = 1;
nodes = (
"180 183 OFFCURVE",
"199 202 OFFCURVE",
"242 210 CURVE SMOOTH",
"360 233 LINE SMOOTH",
"399 241 OFFCURVE",
"437 264 OFFCURVE",
"440 303 CURVE",
"440 364 LINE",
"413 364 LINE",
"411 340 OFFCURVE",
"397 328 OFFCURVE",
"360 321 CURVE SMOOTH",
"197 289 LINE SMOOTH",
"89 268 OFFCURVE",
"38 223 OFFCURVE",
"38 133 CURVE SMOOTH",
"38 44 OFFCURVE",
"104 -13 OFFCURVE",
"206 -13 CURVE SMOOTH",
"340 -13 OFFCURVE",
"383 81 OFFCURVE",
"377 209 CURVE",
"354 209 LINE",
"354 126 OFFCURVE",
"310 95 OFFCURVE",
"249 95 CURVE SMOOTH",
"202 95 OFFCURVE",
"180 120 OFFCURVE",
"180 153 CURVE SMOOTH"
);
}
);
width = 541;
},
{
associatedMasterId = "C76CAC8E-7AD6-478C-8F7E-02FEF6F1EA84";
background = {
paths = (
{
closed = 0;
nodes = (
"492 214 LINE",
"492 80 OFFCURVE",
"395 -13 OFFCURVE",
"264 -13 CURVE SMOOTH",
"163 -13 OFFCURVE",
"103 35 OFFCURVE",
"103 121 CURVE SMOOTH",
"103 194 OFFCURVE",
"146 233 OFFCURVE",
"236 255 CURVE SMOOTH",
"438 304 LINE SMOOTH",
"475 313 OFFCURVE",
"490 324 OFFCURVE",
"492 348 CURVE"
);
},
{
closed = 0;
nodes = (
"492 0 LINE",
"492 387 LINE SMOOTH",
"492 477 OFFCURVE",
"431 540 OFFCURVE",
"317 540 CURVE SMOOTH",
"219 540 OFFCURVE",
"153 504 OFFCURVE",
"132 434 CURVE SMOOTH",
"124 408 LINE"
);
}
);
};
layerId = "FAD8C53D-924E-4136-B008-40E2718A1DD7";
name = "Universal Jul 20 16, 17:13";
paths = (
{
closed = 0;
nodes = (
"492 214 LINE",
"492 80 OFFCURVE",
"395 -13 OFFCURVE",
"264 -13 CURVE SMOOTH",
"163 -13 OFFCURVE",
"103 35 OFFCURVE",
"103 121 CURVE SMOOTH",
"103 194 OFFCURVE",
"146 233 OFFCURVE",
"236 255 CURVE SMOOTH",
"438 304 LINE SMOOTH",
"475 313 OFFCURVE",
"490 324 OFFCURVE",
"492 348 CURVE"
);
},
{
closed = 0;
nodes = (
"492 0 LINE",
"492 387 LINE SMOOTH",
"492 477 OFFCURVE",
"431 540 OFFCURVE",
"317 540 CURVE SMOOTH",
"219 540 OFFCURVE",
"153 504 OFFCURVE",
"132 434 CURVE SMOOTH",
"124 408 LINE"
);
}
);
width = 600;
},
{
associatedMasterId = "C76CAC8E-7AD6-478C-8F7E-02FEF6F1EA84";
background = {
paths = (
{
closed = 1;
nodes = (
"439 0 LINE",
"439 370 LINE SMOOTH",
"439 467 OFFCURVE",
"373 530 OFFCURVE",
"266 530 CURVE SMOOTH",
"176 530 OFFCURVE",
"111 491 OFFCURVE",
"82 414 CURVE SMOOTH",
"73 390 LINE",
"93 390 LINE",
"101 411 LINE SMOOTH",
"126 478 OFFCURVE",
"181 512 OFFCURVE",
"266 512 CURVE SMOOTH",
"365 512 OFFCURVE",
"421 455 OFFCURVE",
"421 369 CURVE SMOOTH",
"421 0 LINE"
);
},
{
closed = 1;
nodes = (
"75 176 OFFCURVE",
"101 213 OFFCURVE",
"188 234 CURVE SMOOTH",
"380 282 LINE SMOOTH",
"416 290 OFFCURVE",
"431 301 OFFCURVE",
"433 324 CURVE",
"433 341 LINE",
"428 341 LINE",
"426 317 OFFCURVE",
"411 307 OFFCURVE",
"375 298 CURVE SMOOTH",
"183 250 LINE SMOOTH",
"91 228 OFFCURVE",
"55 184 OFFCURVE",
"55 117 CURVE SMOOTH",
"55 33 OFFCURVE",
"118 -15 OFFCURVE",
"214 -15 CURVE SMOOTH",
"332 -15 OFFCURVE",
"438 79 OFFCURVE",
"432 208 CURVE",
"421 208 LINE",
"421 82 OFFCURVE",
"317 3 OFFCURVE",
"215 3 CURVE SMOOTH",
"129 3 OFFCURVE",
"75 44 OFFCURVE",
"75 117 CURVE SMOOTH"
);
}
);
};
guideLines = (
{
angle = 69.444;
position = "{73, 390}";
},
{
angle = 69.4439;
position = "{93, 390}";
}
);
layerId = "65DA32FE-77B8-4D37-9981-506FAEC77A33";
name = "Universal Display Aug 9 16, 09:56";
paths = (
{
closed = 1;
nodes = (
"439 0 LINE",
"439 370 LINE SMOOTH",
"439 467 OFFCURVE",
"373 530 OFFCURVE",
"266 530 CURVE SMOOTH",
"176 530 OFFCURVE",
"111 491 OFFCURVE",
"82 414 CURVE SMOOTH",
"73 390 LINE",
"93 390 LINE",
"101 411 LINE SMOOTH",
"126 478 OFFCURVE",
"181 512 OFFCURVE",
"266 512 CURVE SMOOTH",
"365 512 OFFCURVE",
"421 455 OFFCURVE",
"421 369 CURVE SMOOTH",
"421 0 LINE"
);
},
{
closed = 1;
nodes = (
"75 176 OFFCURVE",
"101 213 OFFCURVE",
"188 234 CURVE SMOOTH",
"380 282 LINE SMOOTH",
"416 290 OFFCURVE",
"431 301 OFFCURVE",
"433 324 CURVE",
"433 341 LINE",
"428 341 LINE",
"426 317 OFFCURVE",
"411 307 OFFCURVE",
"375 298 CURVE SMOOTH",
"183 250 LINE SMOOTH",
"91 228 OFFCURVE",
"55 184 OFFCURVE",
"55 117 CURVE SMOOTH",
"55 33 OFFCURVE",
"118 -15 OFFCURVE",
"214 -15 CURVE SMOOTH",
"332 -15 OFFCURVE",
"438 79 OFFCURVE",
"432 208 CURVE",
"421 208 LINE",
"421 82 OFFCURVE",
"317 3 OFFCURVE",
"215 3 CURVE SMOOTH",
"129 3 OFFCURVE",
"75 44 OFFCURVE",
"75 117 CURVE SMOOTH"
);
}
);
width = 514;
},
{
associatedMasterId = "2D8239A6-199F-4292-A93F-56491AD13939";
background = {
paths = (
{
closed = 1;
nodes = (
"299 -13 OFFCURVE",
"378 22 OFFCURVE",
"406 102 CURVE",
"349 71 LINE",
"445 71 LINE",
"395 92 LINE",
"415 0 LINE",
"600 0 LINE",
"600 329 LINE SMOOTH",
"600 486 OFFCURVE",
"518 550 OFFCURVE",
"330 550 CURVE SMOOTH",
"158 550 OFFCURVE",
"87 495 OFFCURVE",
"55 377 CURVE SMOOTH",
"45 340 LINE",
"250 340 LINE",
"254 352 LINE SMOOTH",
"262 377 OFFCURVE",
"279 395 OFFCURVE",
"326 395 CURVE SMOOTH",
"380 395 OFFCURVE",
"395 379 OFFCURVE",
"395 330 CURVE SMOOTH",
"395 212 LINE SMOOTH",
"395 152 OFFCURVE",
"343 125 OFFCURVE",
"295 125 CURVE SMOOTH",
"255 125 OFFCURVE",
"237 138 OFFCURVE",
"237 165 CURVE SMOOTH",
"237 188 OFFCURVE",
"251 200 OFFCURVE",
"304 206 CURVE SMOOTH",
"427 220 LINE SMOOTH",
"467 225 OFFCURVE",
"506 253 OFFCURVE",
"509 291 CURVE",
"509 368 LINE",
"482 368 LINE",
"480 348 OFFCURVE",
"466 332 OFFCURVE",
"429 328 CURVE SMOOTH",
"205 303 LINE SMOOTH",
"71 288 OFFCURVE",
"20 228 OFFCURVE",
"20 138 CURVE SMOOTH",
"20 41 OFFCURVE",
"90 -13 OFFCURVE",
"205 -13 CURVE SMOOTH"
);
}
);
};
layerId = "C5421CED-B20A-4141-B9E7-F364F5AF8807";
name = "Bold Dec 19 16, 17:44";
paths = (
{
closed = 1;
nodes = (
"299 -13 OFFCURVE",
"378 22 OFFCURVE",
"406 102 CURVE",
"349 71 LINE",
"445 71 LINE",
"395 92 LINE",
"415 0 LINE",
"600 0 LINE",
"600 329 LINE SMOOTH",
"600 486 OFFCURVE",
"518 550 OFFCURVE",
"330 550 CURVE SMOOTH",
"158 550 OFFCURVE",
"87 495 OFFCURVE",
"55 377 CURVE SMOOTH",
"45 340 LINE",
"250 340 LINE",
"254 352 LINE SMOOTH",
"262 377 OFFCURVE",
"279 395 OFFCURVE",
"326 395 CURVE SMOOTH",
"380 395 OFFCURVE",
"395 379 OFFCURVE",
"395 330 CURVE SMOOTH",
"395 212 LINE SMOOTH",
"395 152 OFFCURVE",
"343 125 OFFCURVE",
"295 125 CURVE SMOOTH",
"255 125 OFFCURVE",
"237 138 OFFCURVE",
"237 165 CURVE SMOOTH",
"237 188 OFFCURVE",
"251 200 OFFCURVE",
"304 206 CURVE SMOOTH",
"427 220 LINE SMOOTH",
"467 225 OFFCURVE",
"506 253 OFFCURVE",
"509 291 CURVE",
"509 368 LINE",
"482 368 LINE",
"480 348 OFFCURVE",
"466 332 OFFCURVE",
"429 328 CURVE SMOOTH",
"205 303 LINE SMOOTH",
"71 288 OFFCURVE",
"20 228 OFFCURVE",
"20 138 CURVE SMOOTH",
"20 41 OFFCURVE",
"90 -13 OFFCURVE",
"205 -13 CURVE SMOOTH"
);
}
);
width = 635;
}
);
rightMetricsKey = "=n";
unicode = 0061;
},
{
glyphname = b;
lastChange = "2017-06-06 10:07:03 +0000";
layers = (
{
background = {
paths = (
{
closed = 1;
nodes = (
"213 122 LINE",
"213 730 LINE",
"73 730 LINE",
"73 0 LINE",
"196 0 LINE"
);
},
{
closed = 1;
nodes = (
"184 442 LINE",
"184 81 LINE",
"213 81 LINE",
"243 28 OFFCURVE",
"287 -15 OFFCURVE",
"368 -15 CURVE SMOOTH",
"522 -15 OFFCURVE",
"602 101 OFFCURVE",
"602 264 CURVE SMOOTH",
"602 426 OFFCURVE",
"532 540 OFFCURVE",
"378 540 CURVE SMOOTH",
"280 540 OFFCURVE",
"233 476 OFFCURVE",
"219 442 CURVE"
);
},
{
closed = 1;
nodes = (
"254 107 OFFCURVE",
"213 164 OFFCURVE",
"213 264 CURVE SMOOTH",
"213 364 OFFCURVE",
"254 418 OFFCURVE",
"338 418 CURVE SMOOTH",
"424 418 OFFCURVE",
"457 364 OFFCURVE",
"457 264 CURVE SMOOTH",
"457 164 OFFCURVE",
"424 107 OFFCURVE",
"338 107 CURVE SMOOTH"
);
}
);
};
components = (
{
name = d;
transform = "{-1, 0, 0, 1, 648, 0}";
}
);
layerId = "C76CAC8E-7AD6-478C-8F7E-02FEF6F1EA84";
width = 648;
},
{
background = {
paths = (
{
closed = 1;
nodes = (
"255 115 LINE",
"255 730 LINE",
"40 730 LINE",
"40 0 LINE",
"230 0 LINE"
);
},
{
closed = 1;
nodes = (
"330 550 OFFCURVE",
"286 498 OFFCURVE",
"261 450 CURVE",
"231 450 LINE",
"231 75 LINE",
"254 75 LINE",
"284 27 OFFCURVE",
"331 -15 OFFCURVE",
"421 -15 CURVE SMOOTH",
"558 -15 OFFCURVE",
"639 93 OFFCURVE",
"639 268 CURVE SMOOTH",
"639 443 OFFCURVE",
"568 550 OFFCURVE",
"421 550 CURVE SMOOTH"
);
},
{
closed = 1;
nodes = (
"279 155 OFFCURVE",
"255 192 OFFCURVE",
"255 268 CURVE SMOOTH",
"255 343 OFFCURVE",
"279 380 OFFCURVE",
"337 380 CURVE SMOOTH",
"395 380 OFFCURVE",
"419 343 OFFCURVE",
"419 268 CURVE SMOOTH",
"419 192 OFFCURVE",
"395 155 OFFCURVE",
"337 155 CURVE SMOOTH"
);
}
);
};
components = (
{
name = d;
transform = "{-1, 0, 0, 1, 677, 0}";
}
);
layerId = "2D8239A6-199F-4292-A93F-56491AD13939";
width = 677;
}
);
leftMetricsKey = "=n";
rightMetricsKey = "=o";
unicode = 0062;
},
{
glyphname = c;
lastChange = "2017-06-06 10:07:03 +0000";
layers = (
{
background = {
paths = (
{
closed = 1;
nodes = (
"437 -15 OFFCURVE",
"523 41 OFFCURVE",
"534 168 CURVE SMOOTH",
"535 180 LINE",
"394 180 LINE",
"393 173 LINE SMOOTH",
"386 125 OFFCURVE",
"363 100 OFFCURVE",
"302 100 CURVE SMOOTH",
"220 100 OFFCURVE",
"186 160 OFFCURVE",
"186 264 CURVE SMOOTH",
"186 368 OFFCURVE",
"220 425 OFFCURVE",
"303 425 CURVE SMOOTH",
"361 425 OFFCURVE",
"386 402 OFFCURVE",
"392 354 CURVE SMOOTH",
"393 347 LINE",
"534 347 LINE",
"533 359 LINE SMOOTH",
"522 486 OFFCURVE",
"436 540 OFFCURVE",
"299 540 CURVE SMOOTH",
"132 540 OFFCURVE",
"40 439 OFFCURVE",
"40 264 CURVE SMOOTH",
"40 88 OFFCURVE",
"132 -15 OFFCURVE",
"298 -15 CURVE SMOOTH"
);
}
);
};
layerId = "C76CAC8E-7AD6-478C-8F7E-02FEF6F1EA84";
paths = (
{
closed = 1;
nodes = (
"438 -15 OFFCURVE",
"535 41 OFFCURVE",
"546 178 CURVE SMOOTH",
"547 190 LINE",
"404 190 LINE",
"403 183 LINE SMOOTH",
"395 125 OFFCURVE",
"360 100 OFFCURVE",
"299 100 CURVE SMOOTH",
"217 100 OFFCURVE",
"186 160 OFFCURVE",
"186 264 CURVE SMOOTH",
"186 368 OFFCURVE",
"216 425 OFFCURVE",
"299 425 CURVE SMOOTH",
"357 425 OFFCURVE",
"395 400 OFFCURVE",
"403 342 CURVE SMOOTH",
"404 335 LINE",
"547 335 LINE",
"546 347 LINE SMOOTH",
"535 484 OFFCURVE",
"436 540 OFFCURVE",
"299 540 CURVE SMOOTH",
"132 540 OFFCURVE",
"40 439 OFFCURVE",
"40 264 CURVE SMOOTH",
"40 88 OFFCURVE",
"132 -15 OFFCURVE",
"299 -15 CURVE SMOOTH"
);
}
);
width = 577;
},
{
background = {
paths = (
{
closed = 1;
nodes = (
"527 -15 OFFCURVE",
"634 88 OFFCURVE",
"634 268 CURVE SMOOTH",
"634 447 OFFCURVE",
"527 550 OFFCURVE",
"332 550 CURVE SMOOTH",
"137 550 OFFCURVE",
"30 447 OFFCURVE",
"30 268 CURVE SMOOTH",
"30 88 OFFCURVE",
"137 -15 OFFCURVE",
"332 -15 CURVE SMOOTH"
);
},
{
closed = 1;
nodes = (
"274 155 OFFCURVE",
"250 192 OFFCURVE",
"250 268 CURVE SMOOTH",
"250 343 OFFCURVE",
"274 380 OFFCURVE",
"332 380 CURVE SMOOTH",
"390 380 OFFCURVE",
"414 343 OFFCURVE",
"414 268 CURVE SMOOTH",
"414 192 OFFCURVE",
"390 155 OFFCURVE",
"332 155 CURVE SMOOTH"
);
}
);
};
layerId = "2D8239A6-199F-4292-A93F-56491AD13939";
paths = (
{
closed = 1;
nodes = (
"499 -15 OFFCURVE",
"591 60 OFFCURVE",
"599 198 CURVE SMOOTH",
"600 215 LINE",
"401 215 LINE",
"400 208 LINE SMOOTH",
"396 180 OFFCURVE",
"378 155 OFFCURVE",
"327 155 CURVE SMOOTH",
"260 155 OFFCURVE",
"250 215 OFFCURVE",
"250 264 CURVE SMOOTH",
"250 323 OFFCURVE",
"260 380 OFFCURVE",
"328 380 CURVE SMOOTH",
"376 380 OFFCURVE",
"396 355 OFFCURVE",
"400 327 CURVE SMOOTH",
"401 320 LINE",
"600 320 LINE",
"599 337 LINE SMOOTH",
"592 464 OFFCURVE",
"499 550 OFFCURVE",
"318 550 CURVE SMOOTH",
"142 550 OFFCURVE",
"30 449 OFFCURVE",
"30 264 CURVE SMOOTH",
"30 88 OFFCURVE",
"142 -15 OFFCURVE",
"318 -15 CURVE SMOOTH"
);
}
);
width = 625;
}
);
leftMetricsKey = "=o";
unicode = 0063;
},
{
glyphname = d;
lastChange = "2017-06-06 10:07:03 +0000";
layers = (
{
associatedMasterId = "C76CAC8E-7AD6-478C-8F7E-02FEF6F1EA84";
layerId = "D1781237-526E-43BB-92F1-B97ED8A3A831";
name = "Bold Universal Display Aug 3 16, 18:27";
paths = (
{
closed = 1;
nodes = (
"356 -13 OFFCURVE",
"412 48 OFFCURVE",
"426 133 CURVE",
"407 223 LINE",
"407 153 OFFCURVE",
"369 113 OFFCURVE",
"297 113 CURVE SMOOTH",
"232 113 OFFCURVE",
"188 158 OFFCURVE",
"188 260 CURVE SMOOTH",
"188 356 OFFCURVE",
"234 411 OFFCURVE",
"306 411 CURVE SMOOTH",
"372 411 OFFCURVE",
"407 369 OFFCURVE",
"407 289 CURVE",
"426 379 LINE",
"414 476 OFFCURVE",
"367 537 OFFCURVE",
"268 537 CURVE SMOOTH",
"127 537 OFFCURVE",
"40 418 OFFCURVE",
"40 261 CURVE SMOOTH",
"40 91 OFFCURVE",
"125 -13 OFFCURVE",
"253 -13 CURVE SMOOTH"
);
},
{
closed = 1;
nodes = (
"547 0 LINE",
"547 720 LINE",
"407 720 LINE",
"407 0 LINE"
);
}
);
width = 612;
},
{
associatedMasterId = "C76CAC8E-7AD6-478C-8F7E-02FEF6F1EA84";
background = {
paths = (
{
closed = 1;
nodes = (
"559 0 LINE",
"559 720 LINE",
"419 720 LINE",
"419 0 LINE"
);
},
{
closed = 0;
nodes = (
"421 224 LINE",
"421 151 OFFCURVE",
"376 112 OFFCURVE",
"301 113 CURVE SMOOTH",
"227 114 OFFCURVE",
"186 167 OFFCURVE",
"186 264 CURVE SMOOTH"
);
},
{
closed = 0;
nodes = (
"38 264 LINE",
"38 110 OFFCURVE",
"121 -13 OFFCURVE",
"266 -13 CURVE SMOOTH",
"352 -13 OFFCURVE",
"425 36 OFFCURVE",
"431 119 CURVE"
);
}
);
};
layerId = "B93DE178-1C45-43C7-B222-A39E5E4202F9";
name = "Bold Universal Display Aug 3 16, 18:44";
paths = (
{
closed = 1;
nodes = (
"351 -13 OFFCURVE",
"423 47 OFFCURVE",
"429 131 CURVE",
"429 235 LINE",
"417 235 LINE",
"417 168 OFFCURVE",
"374 118 OFFCURVE",
"308 118 CURVE SMOOTH",
"231 118 OFFCURVE",
"188 168 OFFCURVE",
"188 264 CURVE SMOOTH",
"188 360 OFFCURVE",
"231 410 OFFCURVE",
"308 410 CURVE SMOOTH",
"374 410 OFFCURVE",
"417 360 OFFCURVE",
"417 293 CURVE",
"429 293 LINE",
"429 397 LINE",
"423 480 OFFCURVE",
"351 541 OFFCURVE",
"267 541 CURVE SMOOTH",
"132 541 OFFCURVE",
"40 430 OFFCURVE",
"40 264 CURVE SMOOTH",
"40 98 OFFCURVE",
"132 -13 OFFCURVE",
"268 -13 CURVE SMOOTH"
);
},
{
closed = 1;
nodes = (
"557 0 LINE",
"557 720 LINE",
"417 720 LINE",
"417 0 LINE"
);
}
);
width = 622;
},
{
associatedMasterId = "C76CAC8E-7AD6-478C-8F7E-02FEF6F1EA84";
layerId = "B5272F17-9DAE-4272-91E8-5B8E16965A5B";
name = "Bold Universal Display Aug 3 16, 18:27";
paths = (
{
closed = 1;
nodes = (
"356 -13 OFFCURVE",
"412 48 OFFCURVE",
"426 133 CURVE",
"407 223 LINE",
"407 153 OFFCURVE",
"369 113 OFFCURVE",
"297 113 CURVE SMOOTH",
"232 113 OFFCURVE",
"188 158 OFFCURVE",
"188 260 CURVE SMOOTH",
"188 356 OFFCURVE",
"234 411 OFFCURVE",
"306 411 CURVE SMOOTH",
"372 411 OFFCURVE",
"407 369 OFFCURVE",
"407 289 CURVE",
"426 379 LINE",
"414 476 OFFCURVE",
"367 537 OFFCURVE",
"268 537 CURVE SMOOTH",
"127 537 OFFCURVE",
"40 418 OFFCURVE",
"40 261 CURVE SMOOTH",
"40 91 OFFCURVE",
"125 -13 OFFCURVE",
"253 -13 CURVE SMOOTH"
);
},
{
closed = 1;
nodes = (
"547 0 LINE",
"547 720 LINE",
"407 720 LINE",
"407 0 LINE"
);
}
);
width = 612;
},
{
associatedMasterId = "C76CAC8E-7AD6-478C-8F7E-02FEF6F1EA84";
background = {
paths = (
{
closed = 1;
nodes = (
"559 0 LINE",
"559 720 LINE",
"419 720 LINE",
"419 0 LINE"
);
},
{
closed = 0;
nodes = (
"421 224 LINE",
"421 151 OFFCURVE",
"376 112 OFFCURVE",
"301 113 CURVE SMOOTH",
"227 114 OFFCURVE",
"186 167 OFFCURVE",
"186 264 CURVE SMOOTH"
);
},
{
closed = 0;
nodes = (
"38 264 LINE",
"38 110 OFFCURVE",
"121 -13 OFFCURVE",
"266 -13 CURVE SMOOTH",
"352 -13 OFFCURVE",
"425 36 OFFCURVE",
"431 119 CURVE"
);
}
);
};
layerId = "3B9642CD-4934-46DB-8D3D-E81EA434E5A0";
name = "Bold Universal Display Aug 3 16, 18:44";
paths = (
{
closed = 1;
nodes = (
"351 -13 OFFCURVE",
"423 47 OFFCURVE",
"429 131 CURVE",
"429 235 LINE",
"417 235 LINE",
"417 168 OFFCURVE",
"374 118 OFFCURVE",
"308 118 CURVE SMOOTH",
"231 118 OFFCURVE",
"188 168 OFFCURVE",
"188 264 CURVE SMOOTH",
"188 360 OFFCURVE",
"231 410 OFFCURVE",
"308 410 CURVE SMOOTH",
"374 410 OFFCURVE",
"417 360 OFFCURVE",
"417 293 CURVE",
"429 293 LINE",
"429 397 LINE",
"423 480 OFFCURVE",
"351 541 OFFCURVE",
"267 541 CURVE SMOOTH",
"132 541 OFFCURVE",
"40 430 OFFCURVE",
"40 264 CURVE SMOOTH",
"40 98 OFFCURVE",
"132 -13 OFFCURVE",
"268 -13 CURVE SMOOTH"
);
},
{
closed = 1;
nodes = (
"557 0 LINE",
"557 720 LINE",
"417 720 LINE",
"417 0 LINE"
);
}
);
width = 622;
},
{
associatedMasterId = "C76CAC8E-7AD6-478C-8F7E-02FEF6F1EA84";
layerId = "B80A36BB-8123-4304-BD15-7187B17A1387";
name = "Bold Universal Display Aug 3 16, 18:27";
paths = (
{
closed = 1;
nodes = (
"356 -13 OFFCURVE",
"412 48 OFFCURVE",
"426 133 CURVE",
"407 223 LINE",
"407 153 OFFCURVE",
"369 113 OFFCURVE",
"297 113 CURVE SMOOTH",
"232 113 OFFCURVE",
"188 158 OFFCURVE",
"188 260 CURVE SMOOTH",
"188 356 OFFCURVE",
"234 411 OFFCURVE",
"306 411 CURVE SMOOTH",
"372 411 OFFCURVE",
"407 369 OFFCURVE",
"407 289 CURVE",
"426 379 LINE",
"414 476 OFFCURVE",
"367 537 OFFCURVE",
"268 537 CURVE SMOOTH",
"127 537 OFFCURVE",
"40 418 OFFCURVE",
"40 261 CURVE SMOOTH",
"40 91 OFFCURVE",
"125 -13 OFFCURVE",
"253 -13 CURVE SMOOTH"
);
},
{
closed = 1;
nodes = (
"547 0 LINE",
"547 720 LINE",
"407 720 LINE",
"407 0 LINE"
);
}
);
width = 612;
},
{
associatedMasterId = "C76CAC8E-7AD6-478C-8F7E-02FEF6F1EA84";
background = {
paths = (
{
closed = 1;
nodes = (
"559 0 LINE",
"559 720 LINE",
"419 720 LINE",
"419 0 LINE"
);
},
{
closed = 0;
nodes = (
"421 224 LINE",
"421 151 OFFCURVE",
"376 112 OFFCURVE",
"301 113 CURVE SMOOTH",
"227 114 OFFCURVE",
"186 167 OFFCURVE",
"186 264 CURVE SMOOTH"
);
},
{
closed = 0;
nodes = (
"38 264 LINE",
"38 110 OFFCURVE",
"121 -13 OFFCURVE",
"266 -13 CURVE SMOOTH",
"352 -13 OFFCURVE",
"425 36 OFFCURVE",
"431 119 CURVE"
);
}
);
};
layerId = "4E5C0AD9-88BB-427E-8FED-97B9472EBED8";
name = "Bold Universal Display Aug 3 16, 18:44";
paths = (
{
closed = 1;
nodes = (
"351 -13 OFFCURVE",
"423 47 OFFCURVE",
"429 131 CURVE",
"429 235 LINE",
"417 235 LINE",
"417 168 OFFCURVE",
"374 118 OFFCURVE",
"308 118 CURVE SMOOTH",
"231 118 OFFCURVE",
"188 168 OFFCURVE",
"188 264 CURVE SMOOTH",
"188 360 OFFCURVE",
"231 410 OFFCURVE",
"308 410 CURVE SMOOTH",
"374 410 OFFCURVE",
"417 360 OFFCURVE",
"417 293 CURVE",
"429 293 LINE",
"429 397 LINE",
"423 480 OFFCURVE",
"351 541 OFFCURVE",
"267 541 CURVE SMOOTH",
"132 541 OFFCURVE",
"40 430 OFFCURVE",
"40 264 CURVE SMOOTH",
"40 98 OFFCURVE",
"132 -13 OFFCURVE",
"268 -13 CURVE SMOOTH"
);
},
{
closed = 1;
nodes = (
"557 0 LINE",
"557 720 LINE",
"417 720 LINE",
"417 0 LINE"
);
}
);
width = 622;
},
{
background = {
paths = (
{
closed = 1;
nodes = (
"575 730 LINE",
"435 730 LINE",
"435 96 LINE",
"452 0 LINE",
"575 0 LINE"
);
},
{
closed = 1;
nodes = (
"430 443 LINE",
"399 508 OFFCURVE",
"343 540 OFFCURVE",
"269 540 CURVE SMOOTH",
"126 540 OFFCURVE",
"40 436 OFFCURVE",
"40 263 CURVE SMOOTH",
"40 90 OFFCURVE",
"126 -14 OFFCURVE",
"269 -14 CURVE SMOOTH",
"343 -14 OFFCURVE",
"399 19 OFFCURVE",
"430 85 CURVE",
"464 85 LINE",
"464 443 LINE"
);
},
{
closed = 1;
nodes = (
"185 370 OFFCURVE",
"226 420 OFFCURVE",
"311 420 CURVE SMOOTH",
"392 420 OFFCURVE",
"435 365 OFFCURVE",
"435 263 CURVE SMOOTH",
"435 161 OFFCURVE",
"392 106 OFFCURVE",
"311 106 CURVE SMOOTH",
"226 106 OFFCURVE",
"185 156 OFFCURVE",
"185 263 CURVE SMOOTH"
);
}
);
};
guideLines = (
{
position = "{946, 418}";
}
);
layerId = "C76CAC8E-7AD6-478C-8F7E-02FEF6F1EA84";
paths = (
{
closed = 1;
nodes = (
"343 -14 OFFCURVE",
"399 19 OFFCURVE",
"430 85 CURVE",
"464 85 LINE",
"464 446 LINE",
"430 446 LINE",
"399 508 OFFCURVE",
"343 540 OFFCURVE",
"269 540 CURVE SMOOTH",
"126 540 OFFCURVE",
"40 436 OFFCURVE",
"40 263 CURVE SMOOTH",
"40 90 OFFCURVE",
"126 -14 OFFCURVE",
"269 -14 CURVE SMOOTH"
);
},
{
closed = 1;
nodes = (
"226 106 OFFCURVE",
"185 156 OFFCURVE",
"185 263 CURVE SMOOTH",
"185 370 OFFCURVE",
"226 420 OFFCURVE",
"311 420 CURVE SMOOTH",
"392 420 OFFCURVE",
"435 365 OFFCURVE",
"435 263 CURVE SMOOTH",
"435 161 OFFCURVE",
"392 106 OFFCURVE",
"311 106 CURVE SMOOTH"
);
},
{
closed = 1;
nodes = (
"575 0 LINE",
"575 730 LINE",
"435 730 LINE",
"435 96 LINE",
"452 0 LINE"
);
}
);
width = 648;
},
{
associatedMasterId = "C76CAC8E-7AD6-478C-8F7E-02FEF6F1EA84";
layerId = "0CAAC70D-8B8E-44AF-B819-FE0B2594F2C6";
name = "Bold Universal Display Aug 3 16, 18:27";
paths = (
{
closed = 1;
nodes = (
"356 -13 OFFCURVE",
"412 48 OFFCURVE",
"426 133 CURVE",
"407 223 LINE",
"407 153 OFFCURVE",
"369 113 OFFCURVE",
"297 113 CURVE SMOOTH",
"232 113 OFFCURVE",
"188 158 OFFCURVE",
"188 260 CURVE SMOOTH",
"188 356 OFFCURVE",
"234 411 OFFCURVE",
"306 411 CURVE SMOOTH",
"372 411 OFFCURVE",
"407 369 OFFCURVE",
"407 289 CURVE",
"426 379 LINE",
"414 476 OFFCURVE",
"367 537 OFFCURVE",
"268 537 CURVE SMOOTH",
"127 537 OFFCURVE",
"40 418 OFFCURVE",
"40 261 CURVE SMOOTH",
"40 91 OFFCURVE",
"125 -13 OFFCURVE",
"253 -13 CURVE SMOOTH"
);
},
{
closed = 1;
nodes = (
"547 0 LINE",
"547 720 LINE",
"407 720 LINE",
"407 0 LINE"
);
}
);
width = 612;
},
{
associatedMasterId = "C76CAC8E-7AD6-478C-8F7E-02FEF6F1EA84";
background = {
paths = (
{
closed = 1;
nodes = (
"559 0 LINE",
"559 720 LINE",
"419 720 LINE",
"419 0 LINE"
);
},
{
closed = 0;
nodes = (
"421 224 LINE",
"421 151 OFFCURVE",
"376 112 OFFCURVE",
"301 113 CURVE SMOOTH",
"227 114 OFFCURVE",
"186 167 OFFCURVE",
"186 264 CURVE SMOOTH"
);
},
{
closed = 0;
nodes = (
"38 264 LINE",
"38 110 OFFCURVE",
"121 -13 OFFCURVE",
"266 -13 CURVE SMOOTH",
"352 -13 OFFCURVE",
"425 36 OFFCURVE",
"431 119 CURVE"
);
}
);
};
layerId = "49C41623-9B8C-4B39-B80A-4A18A61F17D7";
name = "Bold Universal Display Aug 3 16, 18:44";
paths = (
{
closed = 1;
nodes = (
"351 -13 OFFCURVE",
"423 47 OFFCURVE",
"429 131 CURVE",
"429 235 LINE",
"417 235 LINE",
"417 168 OFFCURVE",
"374 118 OFFCURVE",
"308 118 CURVE SMOOTH",
"231 118 OFFCURVE",
"188 168 OFFCURVE",
"188 264 CURVE SMOOTH",
"188 360 OFFCURVE",
"231 410 OFFCURVE",
"308 410 CURVE SMOOTH",
"374 410 OFFCURVE",
"417 360 OFFCURVE",
"417 293 CURVE",
"429 293 LINE",
"429 397 LINE",
"423 480 OFFCURVE",
"351 541 OFFCURVE",
"267 541 CURVE SMOOTH",
"132 541 OFFCURVE",
"40 430 OFFCURVE",
"40 264 CURVE SMOOTH",
"40 98 OFFCURVE",
"132 -13 OFFCURVE",
"268 -13 CURVE SMOOTH"
);
},
{
closed = 1;
nodes = (
"557 0 LINE",
"557 720 LINE",
"417 720 LINE",
"417 0 LINE"
);
}
);
width = 622;
},
{
associatedMasterId = "C76CAC8E-7AD6-478C-8F7E-02FEF6F1EA84";
layerId = "56D83774-C6DD-4BB0-8291-7127C1A6DD89";
name = "Bold Universal Display Aug 3 16, 18:27";
paths = (
{
closed = 1;
nodes = (
"356 -13 OFFCURVE",
"412 48 OFFCURVE",
"426 133 CURVE",
"407 223 LINE",
"407 153 OFFCURVE",
"369 113 OFFCURVE",
"297 113 CURVE SMOOTH",
"232 113 OFFCURVE",
"188 158 OFFCURVE",
"188 260 CURVE SMOOTH",
"188 356 OFFCURVE",
"234 411 OFFCURVE",
"306 411 CURVE SMOOTH",
"372 411 OFFCURVE",
"407 369 OFFCURVE",
"407 289 CURVE",
"426 379 LINE",
"414 476 OFFCURVE",
"367 537 OFFCURVE",
"268 537 CURVE SMOOTH",
"127 537 OFFCURVE",
"40 418 OFFCURVE",
"40 261 CURVE SMOOTH",
"40 91 OFFCURVE",
"125 -13 OFFCURVE",
"253 -13 CURVE SMOOTH"
);
},
{
closed = 1;
nodes = (
"547 0 LINE",
"547 720 LINE",
"407 720 LINE",
"407 0 LINE"
);
}
);
width = 612;
},
{
associatedMasterId = "C76CAC8E-7AD6-478C-8F7E-02FEF6F1EA84";
background = {
paths = (
{
closed = 1;
nodes = (
"559 0 LINE",
"559 720 LINE",
"419 720 LINE",
"419 0 LINE"
);
},
{
closed = 0;
nodes = (
"421 224 LINE",
"421 151 OFFCURVE",
"376 112 OFFCURVE",
"301 113 CURVE SMOOTH",
"227 114 OFFCURVE",
"186 167 OFFCURVE",
"186 264 CURVE SMOOTH"
);
},
{
closed = 0;
nodes = (
"38 264 LINE",
"38 110 OFFCURVE",
"121 -13 OFFCURVE",
"266 -13 CURVE SMOOTH",
"352 -13 OFFCURVE",
"425 36 OFFCURVE",
"431 119 CURVE"
);
}
);
};
layerId = "1AD7F935-AC9F-4FBA-99AE-29AF51F4BA3B";
name = "Bold Universal Display Aug 3 16, 18:44";
paths = (
{
closed = 1;
nodes = (
"351 -13 OFFCURVE",
"423 47 OFFCURVE",
"429 131 CURVE",
"429 235 LINE",
"417 235 LINE",
"417 168 OFFCURVE",
"374 118 OFFCURVE",
"308 118 CURVE SMOOTH",
"231 118 OFFCURVE",
"188 168 OFFCURVE",
"188 264 CURVE SMOOTH",
"188 360 OFFCURVE",
"231 410 OFFCURVE",
"308 410 CURVE SMOOTH",
"374 410 OFFCURVE",
"417 360 OFFCURVE",
"417 293 CURVE",
"429 293 LINE",
"429 397 LINE",
"423 480 OFFCURVE",
"351 541 OFFCURVE",
"267 541 CURVE SMOOTH",
"132 541 OFFCURVE",
"40 430 OFFCURVE",
"40 264 CURVE SMOOTH",
"40 98 OFFCURVE",
"132 -13 OFFCURVE",
"268 -13 CURVE SMOOTH"
);
},
{
closed = 1;
nodes = (
"557 0 LINE",
"557 720 LINE",
"417 720 LINE",
"417 0 LINE"
);
}
);
width = 622;
},
{
associatedMasterId = "C76CAC8E-7AD6-478C-8F7E-02FEF6F1EA84";
layerId = "7FD27437-3839-4D45-AD3F-436A6621E7F8";
name = "Bold Universal Display Aug 3 16, 18:27";
paths = (
{
closed = 1;
nodes = (
"356 -13 OFFCURVE",
"412 48 OFFCURVE",
"426 133 CURVE",
"407 223 LINE",
"407 153 OFFCURVE",
"369 113 OFFCURVE",
"297 113 CURVE SMOOTH",
"232 113 OFFCURVE",
"188 158 OFFCURVE",
"188 260 CURVE SMOOTH",
"188 356 OFFCURVE",
"234 411 OFFCURVE",
"306 411 CURVE SMOOTH",
"372 411 OFFCURVE",
"407 369 OFFCURVE",
"407 289 CURVE",
"426 379 LINE",
"414 476 OFFCURVE",
"367 537 OFFCURVE",
"268 537 CURVE SMOOTH",
"127 537 OFFCURVE",
"40 418 OFFCURVE",
"40 261 CURVE SMOOTH",
"40 91 OFFCURVE",
"125 -13 OFFCURVE",
"253 -13 CURVE SMOOTH"
);
},
{
closed = 1;
nodes = (
"547 0 LINE",
"547 720 LINE",
"407 720 LINE",
"407 0 LINE"
);
}
);
width = 612;
},
{
associatedMasterId = "C76CAC8E-7AD6-478C-8F7E-02FEF6F1EA84";
background = {
paths = (
{
closed = 1;
nodes = (
"559 0 LINE",
"559 720 LINE",
"419 720 LINE",
"419 0 LINE"
);
},
{
closed = 0;
nodes = (
"421 224 LINE",
"421 151 OFFCURVE",
"376 112 OFFCURVE",
"301 113 CURVE SMOOTH",
"227 114 OFFCURVE",
"186 167 OFFCURVE",
"186 264 CURVE SMOOTH"
);
},
{
closed = 0;
nodes = (
"38 264 LINE",
"38 110 OFFCURVE",
"121 -13 OFFCURVE",
"266 -13 CURVE SMOOTH",
"352 -13 OFFCURVE",
"425 36 OFFCURVE",
"431 119 CURVE"
);
}
);
};
layerId = "071238B3-C364-46D5-88A9-7AE68E0DB230";
name = "Bold Universal Display Aug 3 16, 18:44";
paths = (
{
closed = 1;
nodes = (
"351 -13 OFFCURVE",
"423 47 OFFCURVE",
"429 131 CURVE",
"429 235 LINE",
"417 235 LINE",
"417 168 OFFCURVE",
"374 118 OFFCURVE",
"308 118 CURVE SMOOTH",
"231 118 OFFCURVE",
"188 168 OFFCURVE",
"188 264 CURVE SMOOTH",
"188 360 OFFCURVE",
"231 410 OFFCURVE",
"308 410 CURVE SMOOTH",
"374 410 OFFCURVE",
"417 360 OFFCURVE",
"417 293 CURVE",
"429 293 LINE",
"429 397 LINE",
"423 480 OFFCURVE",
"351 541 OFFCURVE",
"267 541 CURVE SMOOTH",
"132 541 OFFCURVE",
"40 430 OFFCURVE",
"40 264 CURVE SMOOTH",
"40 98 OFFCURVE",
"132 -13 OFFCURVE",
"268 -13 CURVE SMOOTH"
);
},
{
closed = 1;
nodes = (
"557 0 LINE",
"557 720 LINE",
"417 720 LINE",
"417 0 LINE"
);
}
);
width = 622;
},
{
background = {
paths = (
{
closed = 1;
nodes = (
"446 456 LINE",
"416 456 LINE",
"395 501 OFFCURVE",
"343 550 OFFCURVE",
"261 550 CURVE SMOOTH",
"114 550 OFFCURVE",
"30 443 OFFCURVE",
"30 268 CURVE SMOOTH",
"30 93 OFFCURVE",
"114 -14 OFFCURVE",
"261 -14 CURVE SMOOTH",
"343 -14 OFFCURVE",
"395 35 OFFCURVE",
"416 80 CURVE",
"446 80 LINE"
);
},
{
closed = 1;
nodes = (
"422 194 OFFCURVE",
"393 158 OFFCURVE",
"336 158 CURVE SMOOTH",
"276 158 OFFCURVE",
"250 194 OFFCURVE",
"250 268 CURVE SMOOTH",
"250 342 OFFCURVE",
"276 378 OFFCURVE",
"336 378 CURVE SMOOTH",
"393 378 OFFCURVE",
"422 342 OFFCURVE",
"422 268 CURVE SMOOTH"
);
},
{
closed = 1;
nodes = (
"637 0 LINE",
"637 730 LINE",
"422 730 LINE",
"422 115 LINE",
"447 0 LINE"
);
}
);
};
layerId = "2D8239A6-199F-4292-A93F-56491AD13939";
paths = (
{
closed = 1;
nodes = (
"341 -14 OFFCURVE",
"395 35 OFFCURVE",
"416 80 CURVE",
"446 80 LINE",
"446 456 LINE",
"416 456 LINE",
"395 501 OFFCURVE",
"341 550 OFFCURVE",
"251 550 CURVE SMOOTH",
"112 550 OFFCURVE",
"30 443 OFFCURVE",
"30 268 CURVE SMOOTH",
"30 93 OFFCURVE",
"112 -14 OFFCURVE",
"251 -14 CURVE SMOOTH"
);
},
{
closed = 1;
nodes = (
"276 158 OFFCURVE",
"250 194 OFFCURVE",
"250 268 CURVE SMOOTH",
"250 342 OFFCURVE",
"276 378 OFFCURVE",
"336 378 CURVE SMOOTH",
"393 378 OFFCURVE",
"422 342 OFFCURVE",
"422 268 CURVE SMOOTH",
"422 194 OFFCURVE",
"393 158 OFFCURVE",
"336 158 CURVE SMOOTH"
);
},
{
closed = 1;
nodes = (
"637 0 LINE",
"637 730 LINE",
"422 730 LINE",
"422 115 LINE",
"447 0 LINE"
);
}
);
width = 677;
},
{
associatedMasterId = "C76CAC8E-7AD6-478C-8F7E-02FEF6F1EA84";
layerId = "F343A55E-2859-4492-8245-8BF3FFCA1D09";
name = "Bold Universal Display Aug 3 16, 18:27";
paths = (
{
closed = 1;
nodes = (
"356 -13 OFFCURVE",
"412 48 OFFCURVE",
"426 133 CURVE",
"407 223 LINE",
"407 153 OFFCURVE",
"369 113 OFFCURVE",
"297 113 CURVE SMOOTH",
"232 113 OFFCURVE",
"188 158 OFFCURVE",
"188 260 CURVE SMOOTH",
"188 356 OFFCURVE",
"234 411 OFFCURVE",
"306 411 CURVE SMOOTH",
"372 411 OFFCURVE",
"407 369 OFFCURVE",
"407 289 CURVE",
"426 379 LINE",
"414 476 OFFCURVE",
"367 537 OFFCURVE",
"268 537 CURVE SMOOTH",
"127 537 OFFCURVE",
"40 418 OFFCURVE",
"40 261 CURVE SMOOTH",
"40 91 OFFCURVE",
"125 -13 OFFCURVE",
"253 -13 CURVE SMOOTH"
);
},
{
closed = 1;
nodes = (
"547 0 LINE",
"547 720 LINE",
"407 720 LINE",
"407 0 LINE"
);
}
);
width = 612;
},
{
associatedMasterId = "C76CAC8E-7AD6-478C-8F7E-02FEF6F1EA84";
background = {
paths = (
{
closed = 1;
nodes = (
"559 0 LINE",
"559 720 LINE",
"419 720 LINE",
"419 0 LINE"
);
},
{
closed = 0;
nodes = (
"421 224 LINE",
"421 151 OFFCURVE",
"376 112 OFFCURVE",
"301 113 CURVE SMOOTH",
"227 114 OFFCURVE",
"186 167 OFFCURVE",
"186 264 CURVE SMOOTH"
);
},
{
closed = 0;
nodes = (
"38 264 LINE",
"38 110 OFFCURVE",
"121 -13 OFFCURVE",
"266 -13 CURVE SMOOTH",
"352 -13 OFFCURVE",
"425 36 OFFCURVE",
"431 119 CURVE"
);
}
);
};
layerId = "CC5FB802-511A-422F-B019-08B998541226";
name = "Bold Universal Display Aug 3 16, 18:44";
paths = (
{
closed = 1;
nodes = (
"351 -13 OFFCURVE",
"423 47 OFFCURVE",
"429 131 CURVE",
"429 235 LINE",
"417 235 LINE",
"417 168 OFFCURVE",
"374 118 OFFCURVE",
"308 118 CURVE SMOOTH",
"231 118 OFFCURVE",
"188 168 OFFCURVE",
"188 264 CURVE SMOOTH",
"188 360 OFFCURVE",
"231 410 OFFCURVE",
"308 410 CURVE SMOOTH",
"374 410 OFFCURVE",
"417 360 OFFCURVE",
"417 293 CURVE",
"429 293 LINE",
"429 397 LINE",
"423 480 OFFCURVE",
"351 541 OFFCURVE",
"267 541 CURVE SMOOTH",
"132 541 OFFCURVE",
"40 430 OFFCURVE",
"40 264 CURVE SMOOTH",
"40 98 OFFCURVE",
"132 -13 OFFCURVE",
"268 -13 CURVE SMOOTH"
);
},
{
closed = 1;
nodes = (
"557 0 LINE",
"557 720 LINE",
"417 720 LINE",
"417 0 LINE"
);
}
);
width = 622;
},
{
associatedMasterId = "C76CAC8E-7AD6-478C-8F7E-02FEF6F1EA84";
layerId = "9FF977DA-FA84-4895-8AA8-95949469374F";
name = "Bold Universal Display Aug 3 16, 18:27";
paths = (
{
closed = 1;
nodes = (
"356 -13 OFFCURVE",
"412 48 OFFCURVE",
"426 133 CURVE",
"407 223 LINE",
"407 153 OFFCURVE",
"369 113 OFFCURVE",
"297 113 CURVE SMOOTH",
"232 113 OFFCURVE",
"188 158 OFFCURVE",
"188 260 CURVE SMOOTH",
"188 356 OFFCURVE",
"234 411 OFFCURVE",
"306 411 CURVE SMOOTH",
"372 411 OFFCURVE",
"407 369 OFFCURVE",
"407 289 CURVE",
"426 379 LINE",
"414 476 OFFCURVE",
"367 537 OFFCURVE",
"268 537 CURVE SMOOTH",
"127 537 OFFCURVE",
"40 418 OFFCURVE",
"40 261 CURVE SMOOTH",
"40 91 OFFCURVE",
"125 -13 OFFCURVE",
"253 -13 CURVE SMOOTH"
);
},
{
closed = 1;
nodes = (
"547 0 LINE",
"547 720 LINE",
"407 720 LINE",
"407 0 LINE"
);
}
);
width = 612;
},
{
associatedMasterId = "C76CAC8E-7AD6-478C-8F7E-02FEF6F1EA84";
background = {
paths = (
{
closed = 1;
nodes = (
"559 0 LINE",
"559 720 LINE",
"419 720 LINE",
"419 0 LINE"
);
},
{
closed = 0;
nodes = (
"421 224 LINE",
"421 151 OFFCURVE",
"376 112 OFFCURVE",
"301 113 CURVE SMOOTH",
"227 114 OFFCURVE",
"186 167 OFFCURVE",
"186 264 CURVE SMOOTH"
);
},
{
closed = 0;
nodes = (
"38 264 LINE",
"38 110 OFFCURVE",
"121 -13 OFFCURVE",
"266 -13 CURVE SMOOTH",
"352 -13 OFFCURVE",
"425 36 OFFCURVE",
"431 119 CURVE"
);
}
);
};
layerId = "7C6F8F0C-9AA1-41F6-BB30-AD6878C5DA03";
name = "Bold Universal Display Aug 3 16, 18:44";
paths = (
{
closed = 1;
nodes = (
"351 -13 OFFCURVE",
"423 47 OFFCURVE",
"429 131 CURVE",
"429 235 LINE",
"417 235 LINE",
"417 168 OFFCURVE",
"374 118 OFFCURVE",
"308 118 CURVE SMOOTH",
"231 118 OFFCURVE",
"188 168 OFFCURVE",
"188 264 CURVE SMOOTH",
"188 360 OFFCURVE",
"231 410 OFFCURVE",
"308 410 CURVE SMOOTH",
"374 410 OFFCURVE",
"417 360 OFFCURVE",
"417 293 CURVE",
"429 293 LINE",
"429 397 LINE",
"423 480 OFFCURVE",
"351 541 OFFCURVE",
"267 541 CURVE SMOOTH",
"132 541 OFFCURVE",
"40 430 OFFCURVE",
"40 264 CURVE SMOOTH",
"40 98 OFFCURVE",
"132 -13 OFFCURVE",
"268 -13 CURVE SMOOTH"
);
},
{
closed = 1;
nodes = (
"557 0 LINE",
"557 720 LINE",
"417 720 LINE",
"417 0 LINE"
);
}
);
width = 622;
},
{
associatedMasterId = "C76CAC8E-7AD6-478C-8F7E-02FEF6F1EA84";
layerId = "316CEF92-DFDE-437C-A523-D68782D4378E";
name = "Bold Universal Display Aug 3 16, 18:27";
paths = (
{
closed = 1;
nodes = (
"356 -13 OFFCURVE",
"412 48 OFFCURVE",
"426 133 CURVE",
"407 223 LINE",
"407 153 OFFCURVE",
"369 113 OFFCURVE",
"297 113 CURVE SMOOTH",
"232 113 OFFCURVE",
"188 158 OFFCURVE",
"188 260 CURVE SMOOTH",
"188 356 OFFCURVE",
"234 411 OFFCURVE",
"306 411 CURVE SMOOTH",
"372 411 OFFCURVE",
"407 369 OFFCURVE",
"407 289 CURVE",
"426 379 LINE",
"414 476 OFFCURVE",
"367 537 OFFCURVE",
"268 537 CURVE SMOOTH",
"127 537 OFFCURVE",
"40 418 OFFCURVE",
"40 261 CURVE SMOOTH",
"40 91 OFFCURVE",
"125 -13 OFFCURVE",
"253 -13 CURVE SMOOTH"
);
},
{
closed = 1;
nodes = (
"547 0 LINE",
"547 720 LINE",
"407 720 LINE",
"407 0 LINE"
);
}
);
width = 612;
},
{
associatedMasterId = "C76CAC8E-7AD6-478C-8F7E-02FEF6F1EA84";
background = {
paths = (
{
closed = 1;
nodes = (
"559 0 LINE",
"559 720 LINE",
"419 720 LINE",
"419 0 LINE"
);
},
{
closed = 0;
nodes = (
"421 224 LINE",
"421 151 OFFCURVE",
"376 112 OFFCURVE",
"301 113 CURVE SMOOTH",
"227 114 OFFCURVE",
"186 167 OFFCURVE",
"186 264 CURVE SMOOTH"
);
},
{
closed = 0;
nodes = (
"38 264 LINE",
"38 110 OFFCURVE",
"121 -13 OFFCURVE",
"266 -13 CURVE SMOOTH",
"352 -13 OFFCURVE",
"425 36 OFFCURVE",
"431 119 CURVE"
);
}
);
};
layerId = "DF6D9B75-7CE1-4E04-A2CC-82D489A6C0D1";
name = "Bold Universal Display Aug 3 16, 18:44";
paths = (
{
closed = 1;
nodes = (
"351 -13 OFFCURVE",
"423 47 OFFCURVE",
"429 131 CURVE",
"429 235 LINE",
"417 235 LINE",
"417 168 OFFCURVE",
"374 118 OFFCURVE",
"308 118 CURVE SMOOTH",
"231 118 OFFCURVE",
"188 168 OFFCURVE",
"188 264 CURVE SMOOTH",
"188 360 OFFCURVE",
"231 410 OFFCURVE",
"308 410 CURVE SMOOTH",
"374 410 OFFCURVE",
"417 360 OFFCURVE",
"417 293 CURVE",
"429 293 LINE",
"429 397 LINE",
"423 480 OFFCURVE",
"351 541 OFFCURVE",
"267 541 CURVE SMOOTH",
"132 541 OFFCURVE",
"40 430 OFFCURVE",
"40 264 CURVE SMOOTH",
"40 98 OFFCURVE",
"132 -13 OFFCURVE",
"268 -13 CURVE SMOOTH"
);
},
{
closed = 1;
nodes = (
"557 0 LINE",
"557 720 LINE",
"417 720 LINE",
"417 0 LINE"
);
}
);
width = 622;
},
{
associatedMasterId = "C76CAC8E-7AD6-478C-8F7E-02FEF6F1EA84";
layerId = "F026801B-57A9-4C37-A330-6CD50B11A940";
name = "Bold Universal Display Aug 3 16, 18:27";
paths = (
{
closed = 1;
nodes = (
"356 -13 OFFCURVE",
"412 48 OFFCURVE",
"426 133 CURVE",
"407 223 LINE",
"407 153 OFFCURVE",
"369 113 OFFCURVE",
"297 113 CURVE SMOOTH",
"232 113 OFFCURVE",
"188 158 OFFCURVE",
"188 260 CURVE SMOOTH",
"188 356 OFFCURVE",
"234 411 OFFCURVE",
"306 411 CURVE SMOOTH",
"372 411 OFFCURVE",
"407 369 OFFCURVE",
"407 289 CURVE",
"426 379 LINE",
"414 476 OFFCURVE",
"367 537 OFFCURVE",
"268 537 CURVE SMOOTH",
"127 537 OFFCURVE",
"40 418 OFFCURVE",
"40 261 CURVE SMOOTH",
"40 91 OFFCURVE",
"125 -13 OFFCURVE",
"253 -13 CURVE SMOOTH"
);
},
{
closed = 1;
nodes = (
"547 0 LINE",
"547 720 LINE",
"407 720 LINE",
"407 0 LINE"
);
}
);
width = 612;
},
{
associatedMasterId = "C76CAC8E-7AD6-478C-8F7E-02FEF6F1EA84";
background = {
paths = (
{
closed = 1;
nodes = (
"559 0 LINE",
"559 720 LINE",
"419 720 LINE",
"419 0 LINE"
);
},
{
closed = 0;
nodes = (
"421 224 LINE",
"421 151 OFFCURVE",
"376 112 OFFCURVE",
"301 113 CURVE SMOOTH",
"227 114 OFFCURVE",
"186 167 OFFCURVE",
"186 264 CURVE SMOOTH"
);
},
{
closed = 0;
nodes = (
"38 264 LINE",
"38 110 OFFCURVE",
"121 -13 OFFCURVE",
"266 -13 CURVE SMOOTH",
"352 -13 OFFCURVE",
"425 36 OFFCURVE",
"431 119 CURVE"
);
}
);
};
layerId = "5729813E-E0DF-42B5-A6B9-E7F4DA88A373";
name = "Bold Universal Display Aug 3 16, 18:44";
paths = (
{
closed = 1;
nodes = (
"351 -13 OFFCURVE",
"423 47 OFFCURVE",
"429 131 CURVE",
"429 235 LINE",
"417 235 LINE",
"417 168 OFFCURVE",
"374 118 OFFCURVE",
"308 118 CURVE SMOOTH",
"231 118 OFFCURVE",
"188 168 OFFCURVE",
"188 264 CURVE SMOOTH",
"188 360 OFFCURVE",
"231 410 OFFCURVE",
"308 410 CURVE SMOOTH",
"374 410 OFFCURVE",
"417 360 OFFCURVE",
"417 293 CURVE",
"429 293 LINE",
"429 397 LINE",
"423 480 OFFCURVE",
"351 541 OFFCURVE",
"267 541 CURVE SMOOTH",
"132 541 OFFCURVE",
"40 430 OFFCURVE",
"40 264 CURVE SMOOTH",
"40 98 OFFCURVE",
"132 -13 OFFCURVE",
"268 -13 CURVE SMOOTH"
);
},
{
closed = 1;
nodes = (
"557 0 LINE",
"557 720 LINE",
"417 720 LINE",
"417 0 LINE"
);
}
);
width = 622;
},
{
associatedMasterId = "C76CAC8E-7AD6-478C-8F7E-02FEF6F1EA84";
layerId = "746DDC11-DAD0-4E80-B77A-0CAA2A01AA39";
name = "Bold Universal Display Aug 3 16, 18:27";
paths = (
{
closed = 1;
nodes = (
"356 -13 OFFCURVE",
"412 48 OFFCURVE",
"426 133 CURVE",
"407 223 LINE",
"407 153 OFFCURVE",
"369 113 OFFCURVE",
"297 113 CURVE SMOOTH",
"232 113 OFFCURVE",
"188 158 OFFCURVE",
"188 260 CURVE SMOOTH",
"188 356 OFFCURVE",
"234 411 OFFCURVE",
"306 411 CURVE SMOOTH",
"372 411 OFFCURVE",
"407 369 OFFCURVE",
"407 289 CURVE",
"426 379 LINE",
"414 476 OFFCURVE",
"367 537 OFFCURVE",
"268 537 CURVE SMOOTH",
"127 537 OFFCURVE",
"40 418 OFFCURVE",
"40 261 CURVE SMOOTH",
"40 91 OFFCURVE",
"125 -13 OFFCURVE",
"253 -13 CURVE SMOOTH"
);
},
{
closed = 1;
nodes = (
"547 0 LINE",
"547 720 LINE",
"407 720 LINE",
"407 0 LINE"
);
}
);
width = 612;
},
{
associatedMasterId = "C76CAC8E-7AD6-478C-8F7E-02FEF6F1EA84";
background = {
paths = (
{
closed = 1;
nodes = (
"559 0 LINE",
"559 720 LINE",
"419 720 LINE",
"419 0 LINE"
);
},
{
closed = 0;
nodes = (
"421 224 LINE",
"421 151 OFFCURVE",
"376 112 OFFCURVE",
"301 113 CURVE SMOOTH",
"227 114 OFFCURVE",
"186 167 OFFCURVE",
"186 264 CURVE SMOOTH"
);
},
{
closed = 0;
nodes = (
"38 264 LINE",
"38 110 OFFCURVE",
"121 -13 OFFCURVE",
"266 -13 CURVE SMOOTH",
"352 -13 OFFCURVE",
"425 36 OFFCURVE",
"431 119 CURVE"
);
}
);
};
layerId = "2C88A1C7-CA70-4CF8-A54F-077F50188D3C";
name = "Bold Universal Display Aug 3 16, 18:44";
paths = (
{
closed = 1;
nodes = (
"351 -13 OFFCURVE",
"423 47 OFFCURVE",
"429 131 CURVE",
"429 235 LINE",
"417 235 LINE",
"417 168 OFFCURVE",
"374 118 OFFCURVE",
"308 118 CURVE SMOOTH",
"231 118 OFFCURVE",
"188 168 OFFCURVE",
"188 264 CURVE SMOOTH",
"188 360 OFFCURVE",
"231 410 OFFCURVE",
"308 410 CURVE SMOOTH",
"374 410 OFFCURVE",
"417 360 OFFCURVE",
"417 293 CURVE",
"429 293 LINE",
"429 397 LINE",
"423 480 OFFCURVE",
"351 541 OFFCURVE",
"267 541 CURVE SMOOTH",
"132 541 OFFCURVE",
"40 430 OFFCURVE",
"40 264 CURVE SMOOTH",
"40 98 OFFCURVE",
"132 -13 OFFCURVE",
"268 -13 CURVE SMOOTH"
);
},
{
closed = 1;
nodes = (
"557 0 LINE",
"557 720 LINE",
"417 720 LINE",
"417 0 LINE"
);
}
);
width = 622;
},
{
associatedMasterId = "C76CAC8E-7AD6-478C-8F7E-02FEF6F1EA84";
layerId = "074DE20E-39A5-4058-A9EB-54547D6CC67F";
name = "Bold Universal Display Aug 3 16, 18:27";
paths = (
{
closed = 1;
nodes = (
"356 -13 OFFCURVE",
"412 48 OFFCURVE",
"426 133 CURVE",
"407 223 LINE",
"407 153 OFFCURVE",
"369 113 OFFCURVE",
"297 113 CURVE SMOOTH",
"232 113 OFFCURVE",
"188 158 OFFCURVE",
"188 260 CURVE SMOOTH",
"188 356 OFFCURVE",
"234 411 OFFCURVE",
"306 411 CURVE SMOOTH",
"372 411 OFFCURVE",
"407 369 OFFCURVE",
"407 289 CURVE",
"426 379 LINE",
"414 476 OFFCURVE",
"367 537 OFFCURVE",
"268 537 CURVE SMOOTH",
"127 537 OFFCURVE",
"40 418 OFFCURVE",
"40 261 CURVE SMOOTH",
"40 91 OFFCURVE",
"125 -13 OFFCURVE",
"253 -13 CURVE SMOOTH"
);
},
{
closed = 1;
nodes = (
"547 0 LINE",
"547 720 LINE",
"407 720 LINE",
"407 0 LINE"
);
}
);
width = 612;
},
{
associatedMasterId = "C76CAC8E-7AD6-478C-8F7E-02FEF6F1EA84";
background = {
paths = (
{
closed = 1;
nodes = (
"559 0 LINE",
"559 720 LINE",
"419 720 LINE",
"419 0 LINE"
);
},
{
closed = 0;
nodes = (
"421 224 LINE",
"421 151 OFFCURVE",
"376 112 OFFCURVE",
"301 113 CURVE SMOOTH",
"227 114 OFFCURVE",
"186 167 OFFCURVE",
"186 264 CURVE SMOOTH"
);
},
{
closed = 0;
nodes = (
"38 264 LINE",
"38 110 OFFCURVE",
"121 -13 OFFCURVE",
"266 -13 CURVE SMOOTH",
"352 -13 OFFCURVE",
"425 36 OFFCURVE",
"431 119 CURVE"
);
}
);
};
layerId = "E4E27D94-B49E-4E38-9467-506E306AEA9D";
name = "Bold Universal Display Aug 3 16, 18:44";
paths = (
{
closed = 1;
nodes = (
"351 -13 OFFCURVE",
"423 47 OFFCURVE",
"429 131 CURVE",
"429 235 LINE",
"417 235 LINE",
"417 168 OFFCURVE",
"374 118 OFFCURVE",
"308 118 CURVE SMOOTH",
"231 118 OFFCURVE",
"188 168 OFFCURVE",
"188 264 CURVE SMOOTH",
"188 360 OFFCURVE",
"231 410 OFFCURVE",
"308 410 CURVE SMOOTH",
"374 410 OFFCURVE",
"417 360 OFFCURVE",
"417 293 CURVE",
"429 293 LINE",
"429 397 LINE",
"423 480 OFFCURVE",
"351 541 OFFCURVE",
"267 541 CURVE SMOOTH",
"132 541 OFFCURVE",
"40 430 OFFCURVE",
"40 264 CURVE SMOOTH",
"40 98 OFFCURVE",
"132 -13 OFFCURVE",
"268 -13 CURVE SMOOTH"
);
},
{
closed = 1;
nodes = (
"557 0 LINE",
"557 720 LINE",
"417 720 LINE",
"417 0 LINE"
);
}
);
width = 622;
},
{
associatedMasterId = "2D8239A6-199F-4292-A93F-56491AD13939";
background = {
paths = (
{
closed = 1;
nodes = (
"629 0 LINE",
"629 730 LINE",
"414 730 LINE",
"414 115 LINE",
"439 0 LINE"
);
},
{
closed = 1;
nodes = (
"111 550 OFFCURVE",
"30 443 OFFCURVE",
"30 268 CURVE SMOOTH",
"30 93 OFFCURVE",
"111 -15 OFFCURVE",
"258 -15 CURVE SMOOTH",
"348 -15 OFFCURVE",
"385 37 OFFCURVE",
"410 85 CURVE",
"438 85 LINE",
"438 450 LINE",
"408 450 LINE",
"388 498 OFFCURVE",
"339 550 OFFCURVE",
"258 550 CURVE SMOOTH"
);
},
{
closed = 1;
nodes = (
"274 155 OFFCURVE",
"250 192 OFFCURVE",
"250 268 CURVE SMOOTH",
"250 343 OFFCURVE",
"274 380 OFFCURVE",
"332 380 CURVE SMOOTH",
"390 380 OFFCURVE",
"414 343 OFFCURVE",
"414 268 CURVE SMOOTH",
"414 192 OFFCURVE",
"390 155 OFFCURVE",
"332 155 CURVE SMOOTH"
);
}
);
};
layerId = "557AFBFE-03CB-4EEF-B3C9-B1C139E0C058";
name = "Bold Dec 20 16, 09:15";
paths = (
{
closed = 1;
nodes = (
"629 0 LINE",
"629 730 LINE",
"414 730 LINE",
"414 115 LINE",
"439 0 LINE"
);
},
{
closed = 1;
nodes = (
"111 550 OFFCURVE",
"30 443 OFFCURVE",
"30 268 CURVE SMOOTH",
"30 93 OFFCURVE",
"111 -15 OFFCURVE",
"258 -15 CURVE SMOOTH",
"348 -15 OFFCURVE",
"385 37 OFFCURVE",
"410 85 CURVE",
"438 85 LINE",
"438 450 LINE",
"408 450 LINE",
"388 498 OFFCURVE",
"339 550 OFFCURVE",
"258 550 CURVE SMOOTH"
);
},
{
closed = 1;
nodes = (
"274 155 OFFCURVE",
"250 192 OFFCURVE",
"250 268 CURVE SMOOTH",
"250 343 OFFCURVE",
"274 380 OFFCURVE",
"332 380 CURVE SMOOTH",
"390 380 OFFCURVE",
"414 343 OFFCURVE",
"414 268 CURVE SMOOTH",
"414 192 OFFCURVE",
"390 155 OFFCURVE",
"332 155 CURVE SMOOTH"
);
}
);
width = 669;
}
);
leftMetricsKey = "=o";
unicode = 0064;
},
{
glyphname = e;
lastChange = "2017-06-06 10:07:03 +0000";
layers = (
{
background = {
paths = (
{
closed = 1;
nodes = (
"443 -15 OFFCURVE",
"530 25 OFFCURVE",
"545 143 CURVE SMOOTH",
"546 151 LINE",
"405 151 LINE",
"401 140 LINE SMOOTH",
"389 109 OFFCURVE",
"368 100 OFFCURVE",
"306 100 CURVE SMOOTH",
"240 100 OFFCURVE",
"180 135 OFFCURVE",
"180 228 CURVE SMOOTH",
"180 297 LINE SMOOTH",
"180 382 OFFCURVE",
"223 428 OFFCURVE",
"304 428 CURVE SMOOTH",
"381 428 OFFCURVE",
"414 385 OFFCURVE",
"414 305 CURVE SMOOTH",
"414 287 LINE",
"431 311 LINE",
"148 311 LINE",
"148 221 LINE",
"553 221 LINE",
"552 287 LINE SMOOTH",
"549 456 OFFCURVE",
"454 540 OFFCURVE",
"303 540 CURVE SMOOTH",
"146 540 OFFCURVE",
"40 448 OFFCURVE",
"40 263 CURVE SMOOTH",
"40 78 OFFCURVE",
"138 -15 OFFCURVE",
"303 -15 CURVE SMOOTH"
);
}
);
};
guideLines = (
{
angle = 91.7357;
position = "{529, 225}";
}
);
layerId = "C76CAC8E-7AD6-478C-8F7E-02FEF6F1EA84";
paths = (
{
closed = 1;
nodes = (
"441 -15 OFFCURVE",
"526 39 OFFCURVE",
"543 136 CURVE SMOOTH",
"545 147 LINE",
"404 147 LINE",
"402 141 LINE SMOOTH",
"393 113 OFFCURVE",
"360 100 OFFCURVE",
"305 100 CURVE SMOOTH",
"224 100 OFFCURVE",
"182 141 OFFCURVE",
"182 225 CURVE SMOOTH",
"182 306 LINE SMOOTH",
"182 387 OFFCURVE",
"233 429 OFFCURVE",
"300 429 CURVE SMOOTH",
"381 429 OFFCURVE",
"410 391 OFFCURVE",
"410 306 CURVE SMOOTH",
"410 287 LINE",
"427 311 LINE",
"148 311 LINE",
"148 221 LINE",
"549 221 LINE",
"549 284 LINE SMOOTH",
"549 442 OFFCURVE",
"472 540 OFFCURVE",
"302 540 CURVE SMOOTH",
"145 540 OFFCURVE",
"40 444 OFFCURVE",
"40 259 CURVE SMOOTH",
"40 93 OFFCURVE",
"125 -15 OFFCURVE",
"306 -15 CURVE SMOOTH"
);
}
);
width = 592;
},
{
associatedMasterId = "C76CAC8E-7AD6-478C-8F7E-02FEF6F1EA84";
background = {
paths = (
{
closed = 1;
nodes = (
"439 -13 OFFCURVE",
"527 39 OFFCURVE",
"540 139 CURVE SMOOTH",
"541 147 LINE",
"401 147 LINE",
"399 141 LINE SMOOTH",
"390 113 OFFCURVE",
"359 99 OFFCURVE",
"305 99 CURVE SMOOTH",
"220 99 OFFCURVE",
"183 140 OFFCURVE",
"183 225 CURVE SMOOTH",
"183 310 LINE SMOOTH",
"183 389 OFFCURVE",
"223 430 OFFCURVE",
"301 430 CURVE SMOOTH",
"379 430 OFFCURVE",
"410 392 OFFCURVE",
"410 309 CURVE SMOOTH",
"410 287 LINE",
"425 311 LINE",
"178 311 LINE",
"178 223 LINE",
"545 223 LINE",
"545 287 LINE SMOOTH",
"545 446 OFFCURVE",
"469 540 OFFCURVE",
"300 540 CURVE SMOOTH",
"137 540 OFFCURVE",
"40 444 OFFCURVE",
"40 259 CURVE SMOOTH",
"40 94 OFFCURVE",
"119 -13 OFFCURVE",
"306 -13 CURVE SMOOTH"
);
}
);
};
guideLines = (
{
angle = 91.7357;
position = "{529, 225}";
}
);
layerId = "FABCE2CF-5EC0-4D66-8A96-758AEA6AA117";
name = "Text Autospaced Nov 11 16, 12:43";
paths = (
{
closed = 1;
nodes = (
"439 -13 OFFCURVE",
"527 39 OFFCURVE",
"540 139 CURVE SMOOTH",
"541 147 LINE",
"401 147 LINE",
"399 141 LINE SMOOTH",
"390 113 OFFCURVE",
"359 99 OFFCURVE",
"305 99 CURVE SMOOTH",
"220 99 OFFCURVE",
"183 140 OFFCURVE",
"183 225 CURVE SMOOTH",
"183 310 LINE SMOOTH",
"183 389 OFFCURVE",
"223 430 OFFCURVE",
"301 430 CURVE SMOOTH",
"379 430 OFFCURVE",
"410 392 OFFCURVE",
"410 309 CURVE SMOOTH",
"410 287 LINE",
"425 311 LINE",
"178 311 LINE",
"178 223 LINE",
"545 223 LINE",
"545 287 LINE SMOOTH",
"545 446 OFFCURVE",
"469 540 OFFCURVE",
"300 540 CURVE SMOOTH",
"137 540 OFFCURVE",
"40 444 OFFCURVE",
"40 259 CURVE SMOOTH",
"40 94 OFFCURVE",
"119 -13 OFFCURVE",
"306 -13 CURVE SMOOTH"
);
}
);
width = 590;
},
{
associatedMasterId = "C76CAC8E-7AD6-478C-8F7E-02FEF6F1EA84";
background = {
paths = (
{
closed = 1;
nodes = (
"439 -13 OFFCURVE",
"527 39 OFFCURVE",
"540 139 CURVE SMOOTH",
"541 147 LINE",
"401 147 LINE",
"399 141 LINE SMOOTH",
"390 113 OFFCURVE",
"359 99 OFFCURVE",
"305 99 CURVE SMOOTH",
"220 99 OFFCURVE",
"183 140 OFFCURVE",
"183 225 CURVE SMOOTH",
"183 310 LINE SMOOTH",
"183 389 OFFCURVE",
"223 430 OFFCURVE",
"301 430 CURVE SMOOTH",
"379 430 OFFCURVE",
"410 392 OFFCURVE",
"410 309 CURVE SMOOTH",
"410 287 LINE",
"425 311 LINE",
"178 311 LINE",
"178 223 LINE",
"545 223 LINE",
"545 287 LINE SMOOTH",
"545 446 OFFCURVE",
"469 540 OFFCURVE",
"300 540 CURVE SMOOTH",
"137 540 OFFCURVE",
"40 444 OFFCURVE",
"40 259 CURVE SMOOTH",
"40 94 OFFCURVE",
"119 -13 OFFCURVE",
"306 -13 CURVE SMOOTH"
);
}
);
};
guideLines = (
{
angle = 91.7357;
position = "{529, 225}";
}
);
layerId = "62808AA6-BA43-407D-B2FB-C8300714CF60";
name = "Text Autospaced Nov 11 16, 12:43";
paths = (
{
closed = 1;
nodes = (
"439 -13 OFFCURVE",
"527 39 OFFCURVE",
"540 139 CURVE SMOOTH",
"541 147 LINE",
"401 147 LINE",
"399 141 LINE SMOOTH",
"390 113 OFFCURVE",
"359 99 OFFCURVE",
"305 99 CURVE SMOOTH",
"220 99 OFFCURVE",
"183 140 OFFCURVE",
"183 225 CURVE SMOOTH",
"183 310 LINE SMOOTH",
"183 389 OFFCURVE",
"223 430 OFFCURVE",
"301 430 CURVE SMOOTH",
"379 430 OFFCURVE",
"410 392 OFFCURVE",
"410 309 CURVE SMOOTH",
"410 287 LINE",
"425 311 LINE",
"178 311 LINE",
"178 223 LINE",
"545 223 LINE",
"545 287 LINE SMOOTH",
"545 446 OFFCURVE",
"469 540 OFFCURVE",
"300 540 CURVE SMOOTH",
"137 540 OFFCURVE",
"40 444 OFFCURVE",
"40 259 CURVE SMOOTH",
"40 94 OFFCURVE",
"119 -13 OFFCURVE",
"306 -13 CURVE SMOOTH"
);
}
);
width = 590;
},
{
background = {
paths = (
{
closed = 1;
nodes = (
"507 -16 OFFCURVE",
"594 69 OFFCURVE",
"610 174 CURVE SMOOTH",
"612 187 LINE",
"407 187 LINE",
"401 178 LINE SMOOTH",
"389 160 OFFCURVE",
"378 145 OFFCURVE",
"323 145 CURVE SMOOTH",
"268 145 OFFCURVE",
"240 177 OFFCURVE",
"240 267 CURVE SMOOTH",
"240 357 OFFCURVE",
"271 390 OFFCURVE",
"326 390 CURVE SMOOTH",
"381 390 OFFCURVE",
"402 359 OFFCURVE",
"407 313 CURVE SMOOTH",
"410 286 LINE",
"454 316 LINE",
"212 316 LINE",
"212 226 LINE",
"612 226 LINE",
"611 276 LINE SMOOTH",
"608 450 OFFCURVE",
"506 550 OFFCURVE",
"321 550 CURVE SMOOTH",
"138 550 OFFCURVE",
"30 440 OFFCURVE",
"30 267 CURVE SMOOTH",
"30 94 OFFCURVE",
"138 -16 OFFCURVE",
"321 -16 CURVE SMOOTH"
);
}
);
};
layerId = "2D8239A6-199F-4292-A93F-56491AD13939";
paths = (
{
closed = 1;
nodes = (
"519 -16 OFFCURVE",
"594 67 OFFCURVE",
"610 172 CURVE SMOOTH",
"612 185 LINE",
"412 185 LINE",
"408 176 LINE SMOOTH",
"396 151 OFFCURVE",
"371 142 OFFCURVE",
"330 142 CURVE SMOOTH",
"268 142 OFFCURVE",
"237 171 OFFCURVE",
"237 234 CURVE SMOOTH",
"237 301 LINE SMOOTH",
"237 361 OFFCURVE",
"265 393 OFFCURVE",
"329 393 CURVE SMOOTH",
"389 393 OFFCURVE",
"412 361 OFFCURVE",
"412 313 CURVE SMOOTH",
"412 286 LINE",
"454 316 LINE",
"212 316 LINE",
"212 226 LINE",
"614 226 LINE",
"613 290 LINE SMOOTH",
"610 453 OFFCURVE",
"504 550 OFFCURVE",
"325 550 CURVE SMOOTH",
"142 550 OFFCURVE",
"30 444 OFFCURVE",
"30 267 CURVE SMOOTH",
"30 94 OFFCURVE",
"133 -16 OFFCURVE",
"325 -16 CURVE SMOOTH"
);
}
);
width = 632;
},
{
associatedMasterId = "C76CAC8E-7AD6-478C-8F7E-02FEF6F1EA84";
background = {
paths = (
{
closed = 1;
nodes = (
"439 -13 OFFCURVE",
"527 39 OFFCURVE",
"540 139 CURVE SMOOTH",
"541 147 LINE",
"401 147 LINE",
"399 141 LINE SMOOTH",
"390 113 OFFCURVE",
"359 99 OFFCURVE",
"305 99 CURVE SMOOTH",
"220 99 OFFCURVE",
"183 140 OFFCURVE",
"183 225 CURVE SMOOTH",
"183 310 LINE SMOOTH",
"183 389 OFFCURVE",
"223 430 OFFCURVE",
"301 430 CURVE SMOOTH",
"379 430 OFFCURVE",
"410 392 OFFCURVE",
"410 309 CURVE SMOOTH",
"410 287 LINE",
"425 311 LINE",
"178 311 LINE",
"178 223 LINE",
"545 223 LINE",
"545 287 LINE SMOOTH",
"545 446 OFFCURVE",
"469 540 OFFCURVE",
"300 540 CURVE SMOOTH",
"137 540 OFFCURVE",
"40 444 OFFCURVE",
"40 259 CURVE SMOOTH",
"40 94 OFFCURVE",
"119 -13 OFFCURVE",
"306 -13 CURVE SMOOTH"
);
}
);
};
guideLines = (
{
angle = 91.7357;
position = "{529, 225}";
}
);
layerId = "56D47FDE-6D7C-4CEA-BCFF-1B964035B080";
name = "Text Autospaced Nov 11 16, 12:43";
paths = (
{
closed = 1;
nodes = (
"439 -13 OFFCURVE",
"527 39 OFFCURVE",
"540 139 CURVE SMOOTH",
"541 147 LINE",
"401 147 LINE",
"399 141 LINE SMOOTH",
"390 113 OFFCURVE",
"359 99 OFFCURVE",
"305 99 CURVE SMOOTH",
"220 99 OFFCURVE",
"183 140 OFFCURVE",
"183 225 CURVE SMOOTH",
"183 310 LINE SMOOTH",
"183 389 OFFCURVE",
"223 430 OFFCURVE",
"301 430 CURVE SMOOTH",
"379 430 OFFCURVE",
"410 392 OFFCURVE",
"410 309 CURVE SMOOTH",
"410 287 LINE",
"425 311 LINE",
"178 311 LINE",
"178 223 LINE",
"545 223 LINE",
"545 287 LINE SMOOTH",
"545 446 OFFCURVE",
"469 540 OFFCURVE",
"300 540 CURVE SMOOTH",
"137 540 OFFCURVE",
"40 444 OFFCURVE",
"40 259 CURVE SMOOTH",
"40 94 OFFCURVE",
"119 -13 OFFCURVE",
"306 -13 CURVE SMOOTH"
);
}
);
width = 590;
},
{
associatedMasterId = "C76CAC8E-7AD6-478C-8F7E-02FEF6F1EA84";
background = {
paths = (
{
closed = 1;
nodes = (
"439 -13 OFFCURVE",
"527 39 OFFCURVE",
"540 139 CURVE SMOOTH",
"541 147 LINE",
"401 147 LINE",
"399 141 LINE SMOOTH",
"390 113 OFFCURVE",
"359 99 OFFCURVE",
"305 99 CURVE SMOOTH",
"220 99 OFFCURVE",
"183 140 OFFCURVE",
"183 225 CURVE SMOOTH",
"183 310 LINE SMOOTH",
"183 389 OFFCURVE",
"223 430 OFFCURVE",
"301 430 CURVE SMOOTH",
"379 430 OFFCURVE",
"410 392 OFFCURVE",
"410 309 CURVE SMOOTH",
"410 287 LINE",
"425 311 LINE",
"178 311 LINE",
"178 223 LINE",
"545 223 LINE",
"545 287 LINE SMOOTH",
"545 446 OFFCURVE",
"469 540 OFFCURVE",
"300 540 CURVE SMOOTH",
"137 540 OFFCURVE",
"40 444 OFFCURVE",
"40 259 CURVE SMOOTH",
"40 94 OFFCURVE",
"119 -13 OFFCURVE",
"306 -13 CURVE SMOOTH"
);
}
);
};
guideLines = (
{
angle = 91.7357;
position = "{529, 225}";
}
);
layerId = "91A9DE19-73CD-4CAA-899A-759C7AFC21DB";
name = "Text Autospaced Nov 11 16, 12:43";
paths = (
{
closed = 1;
nodes = (
"439 -13 OFFCURVE",
"527 39 OFFCURVE",
"540 139 CURVE SMOOTH",
"541 147 LINE",
"401 147 LINE",
"399 141 LINE SMOOTH",
"390 113 OFFCURVE",
"359 99 OFFCURVE",
"305 99 CURVE SMOOTH",
"220 99 OFFCURVE",
"183 140 OFFCURVE",
"183 225 CURVE SMOOTH",
"183 310 LINE SMOOTH",
"183 389 OFFCURVE",
"223 430 OFFCURVE",
"301 430 CURVE SMOOTH",
"379 430 OFFCURVE",
"410 392 OFFCURVE",
"410 309 CURVE SMOOTH",
"410 287 LINE",
"425 311 LINE",
"178 311 LINE",
"178 223 LINE",
"545 223 LINE",
"545 287 LINE SMOOTH",
"545 446 OFFCURVE",
"469 540 OFFCURVE",
"300 540 CURVE SMOOTH",
"137 540 OFFCURVE",
"40 444 OFFCURVE",
"40 259 CURVE SMOOTH",
"40 94 OFFCURVE",
"119 -13 OFFCURVE",
"306 -13 CURVE SMOOTH"
);
}
);
width = 590;
}
);
leftMetricsKey = "=o";
unicode = 0065;
},
{
glyphname = f;
lastChange = "2017-06-06 10:07:03 +0000";
layers = (
{
background = {
paths = (
{
closed = 1;
nodes = (
"415 410 LINE",
"415 525 LINE",
"30 525 LINE",
"30 410 LINE"
);
},
{
closed = 1;
nodes = (
"411 739 OFFCURVE",
"357 745 OFFCURVE",
"326 745 CURVE SMOOTH",
"191 745 OFFCURVE",
"120 699 OFFCURVE",
"120 539 CURVE SMOOTH",
"120 0 LINE",
"260 0 LINE",
"260 536 LINE SMOOTH",
"260 613 OFFCURVE",
"273 630 OFFCURVE",
"353 630 CURVE SMOOTH",
"373 630 OFFCURVE",
"416 627 OFFCURVE",
"430 625 CURVE",
"430 735 LINE"
);
}
);
};
layerId = "C76CAC8E-7AD6-478C-8F7E-02FEF6F1EA84";
paths = (
{
closed = 1;
nodes = (
"388 410 LINE",
"388 525 LINE",
"31 525 LINE",
"31 410 LINE"
);
},
{
closed = 1;
nodes = (
"374 742 OFFCURVE",
"337 746 OFFCURVE",
"304 746 CURVE SMOOTH",
"179 746 OFFCURVE",
"120 680 OFFCURVE",
"120 562 CURVE SMOOTH",
"120 0 LINE",
"260 0 LINE",
"260 553 LINE SMOOTH",
"260 612 OFFCURVE",
"285 629 OFFCURVE",
"335 629 CURVE SMOOTH",
"357 629 OFFCURVE",
"383 626 OFFCURVE",
"394 624 CURVE",
"394 738 LINE"
);
}
);
width = 404;
},
{
background = {
paths = (
{
closed = 1;
nodes = (
"435 380 LINE",
"435 535 LINE",
"40 535 LINE",
"40 380 LINE"
);
},
{
closed = 1;
nodes = (
"441 739 OFFCURVE",
"377 745 OFFCURVE",
"336 745 CURVE SMOOTH",
"181 745 OFFCURVE",
"105 709 OFFCURVE",
"105 549 CURVE SMOOTH",
"105 0 LINE",
"320 0 LINE",
"320 526 LINE SMOOTH",
"320 573 OFFCURVE",
"323 590 OFFCURVE",
"373 590 CURVE SMOOTH",
"403 590 OFFCURVE",
"446 587 OFFCURVE",
"460 585 CURVE",
"460 735 LINE"
);
}
);
};
layerId = "2D8239A6-199F-4292-A93F-56491AD13939";
paths = (
{
closed = 1;
nodes = (
"447 375 LINE",
"447 535 LINE",
"20 535 LINE",
"20 375 LINE"
);
},
{
closed = 1;
nodes = (
"441 737 OFFCURVE",
"397 745 OFFCURVE",
"336 745 CURVE SMOOTH",
"181 745 OFFCURVE",
"105 709 OFFCURVE",
"105 549 CURVE SMOOTH",
"105 0 LINE",
"320 0 LINE",
"320 526 LINE SMOOTH",
"320 573 OFFCURVE",
"323 590 OFFCURVE",
"373 590 CURVE SMOOTH",
"423 590 OFFCURVE",
"446 585 OFFCURVE",
"460 583 CURVE",
"460 733 LINE"
);
}
);
width = 480;
}
);
unicode = 0066;
},
{
glyphname = g;
lastChange = "2017-06-06 10:07:03 +0000";
layers = (
{
background = {
paths = (
{
closed = 1;
nodes = (
"458 103 LINE",
"458 434 LINE",
"427 434 LINE",
"407 497 OFFCURVE",
"350 540 OFFCURVE",
"264 540 CURVE SMOOTH",
"110 540 OFFCURVE",
"40 424 OFFCURVE",
"40 276 CURVE SMOOTH",
"40 129 OFFCURVE",
"110 15 OFFCURVE",
"264 15 CURVE SMOOTH",
"362 15 OFFCURVE",
"404 69 OFFCURVE",
"423 103 CURVE"
);
},
{
closed = 1;
nodes = (
"388 418 OFFCURVE",
"429 361 OFFCURVE",
"429 276 CURVE SMOOTH",
"429 191 OFFCURVE",
"388 137 OFFCURVE",
"304 137 CURVE SMOOTH",
"218 137 OFFCURVE",
"185 191 OFFCURVE",
"185 276 CURVE SMOOTH",
"185 361 OFFCURVE",
"218 418 OFFCURVE",
"304 418 CURVE SMOOTH"
);
},
{
closed = 1;
nodes = (
"429 -42 OFFCURVE",
"394 -95 OFFCURVE",
"306 -95 CURVE SMOOTH",
"239 -95 OFFCURVE",
"214 -74 OFFCURVE",
"209 -42 CURVE SMOOTH",
"208 -35 LINE",
"60 -35 LINE",
"61 -52 LINE SMOOTH",
"67 -152 OFFCURVE",
"145 -210 OFFCURVE",
"306 -210 CURVE SMOOTH",
"490 -210 OFFCURVE",
"569 -112 OFFCURVE",
"569 49 CURVE SMOOTH",
"569 525 LINE",
"446 525 LINE",
"429 403 LINE",
"429 35 LINE SMOOTH"
);
}
);
};
guideLines = (
{
angle = 270;
position = "{40, 54}";
}
);
layerId = "C76CAC8E-7AD6-478C-8F7E-02FEF6F1EA84";
paths = (
{
closed = 1;
nodes = (
"458 103 LINE",
"458 434 LINE",
"427 434 LINE",
"407 497 OFFCURVE",
"350 540 OFFCURVE",
"264 540 CURVE SMOOTH",
"110 540 OFFCURVE",
"40 424 OFFCURVE",
"40 276 CURVE SMOOTH",
"40 129 OFFCURVE",
"110 15 OFFCURVE",
"264 15 CURVE SMOOTH",
"362 15 OFFCURVE",
"404 69 OFFCURVE",
"423 103 CURVE"
);
},
{
closed = 1;
nodes = (
"388 418 OFFCURVE",
"429 361 OFFCURVE",
"429 276 CURVE SMOOTH",
"429 191 OFFCURVE",
"388 137 OFFCURVE",
"304 137 CURVE SMOOTH",
"218 137 OFFCURVE",
"185 191 OFFCURVE",
"185 276 CURVE SMOOTH",
"185 361 OFFCURVE",
"218 418 OFFCURVE",
"304 418 CURVE SMOOTH"
);
},
{
closed = 1;
nodes = (
"429 -42 OFFCURVE",
"394 -95 OFFCURVE",
"306 -95 CURVE SMOOTH",
"239 -95 OFFCURVE",
"214 -74 OFFCURVE",
"209 -42 CURVE SMOOTH",
"208 -35 LINE",
"60 -35 LINE",
"61 -52 LINE SMOOTH",
"67 -152 OFFCURVE",
"145 -210 OFFCURVE",
"306 -210 CURVE SMOOTH",
"490 -210 OFFCURVE",
"569 -112 OFFCURVE",
"569 49 CURVE SMOOTH",
"569 525 LINE",
"446 525 LINE",
"429 403 LINE",
"429 35 LINE SMOOTH"
);
}
);
width = 642;
},
{
background = {
paths = (
{
closed = 1;
nodes = (
"329 35 OFFCURVE",
"378 67 OFFCURVE",
"408 115 CURVE",
"438 115 LINE",
"438 450 LINE",
"410 450 LINE",
"385 498 OFFCURVE",
"348 550 OFFCURVE",
"258 550 CURVE SMOOTH",
"111 550 OFFCURVE",
"30 442 OFFCURVE",
"30 287 CURVE SMOOTH",
"30 132 OFFCURVE",
"101 35 OFFCURVE",
"248 35 CURVE SMOOTH"
);
},
{
closed = 1;
nodes = (
"390 380 OFFCURVE",
"414 343 OFFCURVE",
"414 287 CURVE SMOOTH",
"414 232 OFFCURVE",
"390 195 OFFCURVE",
"332 195 CURVE SMOOTH",
"274 195 OFFCURVE",
"250 232 OFFCURVE",
"250 287 CURVE SMOOTH",
"250 343 OFFCURVE",
"274 380 OFFCURVE",
"332 380 CURVE SMOOTH"
);
},
{
closed = 1;
nodes = (
"629 535 LINE",
"439 535 LINE",
"414 420 LINE",
"414 45 LINE SMOOTH",
"414 -27 OFFCURVE",
"394 -50 OFFCURVE",
"336 -50 CURVE SMOOTH",
"289 -50 OFFCURVE",
"271 -33 OFFCURVE",
"265 -12 CURVE SMOOTH",
"263 -5 LINE",
"45 -5 LINE",
"46 -22 LINE SMOOTH",
"52 -132 OFFCURVE",
"140 -210 OFFCURVE",
"331 -210 CURVE SMOOTH",
"545 -210 OFFCURVE",
"629 -109 OFFCURVE",
"629 82 CURVE SMOOTH"
);
}
);
};
guideLines = (
{
angle = 270;
position = "{30, 54}";
}
);
layerId = "2D8239A6-199F-4292-A93F-56491AD13939";
paths = (
{
closed = 1;
nodes = (
"329 35 OFFCURVE",
"378 67 OFFCURVE",
"408 115 CURVE",
"438 115 LINE",
"438 450 LINE",
"410 450 LINE",
"385 498 OFFCURVE",
"348 550 OFFCURVE",
"258 550 CURVE SMOOTH",
"111 550 OFFCURVE",
"30 442 OFFCURVE",
"30 287 CURVE SMOOTH",
"30 132 OFFCURVE",
"106 35 OFFCURVE",
"248 35 CURVE SMOOTH"
);
},
{
closed = 1;
nodes = (
"390 380 OFFCURVE",
"414 343 OFFCURVE",
"414 287 CURVE SMOOTH",
"414 232 OFFCURVE",
"390 195 OFFCURVE",
"332 195 CURVE SMOOTH",
"274 195 OFFCURVE",
"250 232 OFFCURVE",
"250 287 CURVE SMOOTH",
"250 343 OFFCURVE",
"274 380 OFFCURVE",
"332 380 CURVE SMOOTH"
);
},
{
closed = 1;
nodes = (
"629 535 LINE",
"439 535 LINE",
"414 420 LINE",
"414 45 LINE SMOOTH",
"414 -27 OFFCURVE",
"394 -50 OFFCURVE",
"336 -50 CURVE SMOOTH",
"289 -50 OFFCURVE",
"271 -33 OFFCURVE",
"265 -12 CURVE SMOOTH",
"263 -5 LINE",
"45 -5 LINE",
"46 -22 LINE SMOOTH",
"53 -142 OFFCURVE",
"140 -210 OFFCURVE",
"331 -210 CURVE SMOOTH",
"545 -210 OFFCURVE",
"629 -109 OFFCURVE",
"629 82 CURVE SMOOTH"
);
}
);
width = 669;
}
);
leftMetricsKey = "=o";
rightMetricsKey = "=|n";
unicode = 0067;
},
{
glyphname = h;
lastChange = "2017-06-06 10:07:03 +0000";
layers = (
{
background = {
paths = (
{
closed = 1;
nodes = (
"213 0 LINE",
"213 288 LINE SMOOTH",
"213 363 OFFCURVE",
"259 415 OFFCURVE",
"332 415 CURVE SMOOTH",
"404 415 OFFCURVE",
"430 379 OFFCURVE",
"430 302 CURVE SMOOTH",
"430 0 LINE",
"570 0 LINE",
"570 350 LINE SMOOTH",
"570 471 OFFCURVE",
"514 540 OFFCURVE",
"397 540 CURVE SMOOTH",
"292 540 OFFCURVE",
"249 493 OFFCURVE",
"212 421 CURVE",
"230 434 LINE",
"195 434 LINE",
"214 424 LINE",
"214 730 LINE",
"73 730 LINE",
"73 0 LINE"
);
}
);
};
layerId = "C76CAC8E-7AD6-478C-8F7E-02FEF6F1EA84";
paths = (
{
closed = 1;
nodes = (
"213 0 LINE",
"213 288 LINE SMOOTH",
"213 368 OFFCURVE",
"259 415 OFFCURVE",
"332 415 CURVE SMOOTH",
"398 415 OFFCURVE",
"426 381 OFFCURVE",
"426 302 CURVE SMOOTH",
"426 0 LINE",
"566 0 LINE",
"566 350 LINE SMOOTH",
"566 471 OFFCURVE",
"509 540 OFFCURVE",
"392 540 CURVE SMOOTH",
"293 540 OFFCURVE",
"247 494 OFFCURVE",
"210 424 CURVE",
"230 437 LINE",
"195 437 LINE",
"213 433 LINE",
"213 730 LINE",
"73 730 LINE",
"73 0 LINE"
);
}
);
width = 631;
},
{
background = {
paths = (
{
closed = 1;
nodes = (
"331 550 OFFCURVE",
"282 487 OFFCURVE",
"249 393 CURVE",
"275 426 LINE",
"235 426 LINE",
"255 402 LINE",
"255 730 LINE",
"40 730 LINE",
"40 0 LINE",
"255 0 LINE",
"255 280 LINE SMOOTH",
"255 330 OFFCURVE",
"300 360 OFFCURVE",
"345 360 CURVE SMOOTH",
"385 360 OFFCURVE",
"405 340 OFFCURVE",
"405 290 CURVE SMOOTH",
"405 0 LINE",
"620 0 LINE",
"620 346 LINE SMOOTH",
"620 469 OFFCURVE",
"573 550 OFFCURVE",
"443 550 CURVE SMOOTH"
);
}
);
};
layerId = "2D8239A6-199F-4292-A93F-56491AD13939";
paths = (
{
closed = 1;
nodes = (
"255 0 LINE",
"255 278 LINE SMOOTH",
"255 328 OFFCURVE",
"289 360 OFFCURVE",
"342 360 CURVE SMOOTH",
"390 360 OFFCURVE",
"405 336 OFFCURVE",
"405 290 CURVE SMOOTH",
"405 0 LINE",
"620 0 LINE",
"620 346 LINE SMOOTH",
"620 469 OFFCURVE",
"573 550 OFFCURVE",
"442 550 CURVE SMOOTH",
"334 550 OFFCURVE",
"284 490 OFFCURVE",
"247 401 CURVE",
"270 434 LINE",
"235 434 LINE",
"255 410 LINE",
"255 730 LINE",
"40 730 LINE",
"40 0 LINE"
);
}
);
width = 657;
}
);
leftMetricsKey = "=n";
rightMetricsKey = "=n";
unicode = 0068;
},
{
glyphname = i;
lastChange = "2017-06-06 10:07:03 +0000";
layers = (
{
background = {
paths = (
{
closed = 1;
nodes = (
"213 0 LINE",
"213 525 LINE",
"73 525 LINE",
"73 0 LINE"
);
},
{
closed = 1;
nodes = (
"204 588 OFFCURVE",
"228 622 OFFCURVE",
"228 667 CURVE SMOOTH",
"228 723 OFFCURVE",
"194 746 OFFCURVE",
"143 746 CURVE SMOOTH",
"82 746 OFFCURVE",
"58 712 OFFCURVE",
"58 667 CURVE SMOOTH",
"58 611 OFFCURVE",
"92 588 OFFCURVE",
"143 588 CURVE SMOOTH"
);
}
);
};
layerId = "C76CAC8E-7AD6-478C-8F7E-02FEF6F1EA84";
paths = (
{
closed = 1;
nodes = (
"213 0 LINE",
"213 525 LINE",
"73 525 LINE",
"73 0 LINE"
);
},
{
closed = 1;
nodes = (
"194 588 OFFCURVE",
"228 610 OFFCURVE",
"228 664 CURVE SMOOTH",
"228 718 OFFCURVE",
"194 740 OFFCURVE",
"143 740 CURVE SMOOTH",
"92 740 OFFCURVE",
"58 718 OFFCURVE",
"58 664 CURVE SMOOTH",
"58 610 OFFCURVE",
"92 588 OFFCURVE",
"143 588 CURVE SMOOTH"
);
}
);
width = 286;
},
{
background = {
paths = (
{
closed = 1;
nodes = (
"255 0 LINE",
"255 535 LINE",
"40 535 LINE",
"40 0 LINE"
);
},
{
closed = 1;
nodes = (
"226 601 OFFCURVE",
"269 637 OFFCURVE",
"269 701 CURVE SMOOTH",
"269 765 OFFCURVE",
"226 801 OFFCURVE",
"148 801 CURVE SMOOTH",
"70 801 OFFCURVE",
"27 765 OFFCURVE",
"27 701 CURVE SMOOTH",
"27 637 OFFCURVE",
"70 601 OFFCURVE",
"148 601 CURVE SMOOTH"
);
}
);
};
layerId = "2D8239A6-199F-4292-A93F-56491AD13939";
paths = (
{
closed = 1;
nodes = (
"255 0 LINE",
"255 535 LINE",
"40 535 LINE",
"40 0 LINE"
);
},
{
closed = 1;
nodes = (
"226 601 OFFCURVE",
"269 637 OFFCURVE",
"269 701 CURVE SMOOTH",
"269 765 OFFCURVE",
"226 801 OFFCURVE",
"148 801 CURVE SMOOTH",
"69 801 OFFCURVE",
"26 765 OFFCURVE",
"26 701 CURVE SMOOTH",
"26 637 OFFCURVE",
"69 601 OFFCURVE",
"148 601 CURVE SMOOTH"
);
}
);
width = 295;
}
);
unicode = 0069;
},
{
glyphname = j;
lastChange = "2017-06-06 10:07:03 +0000";
layers = (
{
background = {
paths = (
{
closed = 1;
nodes = (
"-29 -180 LINE",
"-16 -185 OFFCURVE",
"12 -189 OFFCURVE",
"38 -189 CURVE SMOOTH",
"154 -189 OFFCURVE",
"213 -133 OFFCURVE",
"213 -13 CURVE SMOOTH",
"213 525 LINE",
"73 525 LINE",
"73 5 LINE SMOOTH",
"73 -42 OFFCURVE",
"52 -66 OFFCURVE",
"6 -66 CURVE SMOOTH",
"-7 -66 OFFCURVE",
"-17 -65 OFFCURVE",
"-29 -63 CURVE"
);
},
{
closed = 1;
nodes = (
"92 588 OFFCURVE",
"58 610 OFFCURVE",
"58 664 CURVE SMOOTH",
"58 718 OFFCURVE",
"92 740 OFFCURVE",
"143 740 CURVE SMOOTH",
"194 740 OFFCURVE",
"228 718 OFFCURVE",
"228 664 CURVE SMOOTH",
"228 610 OFFCURVE",
"194 588 OFFCURVE",
"143 588 CURVE SMOOTH"
);
}
);
};
layerId = "C76CAC8E-7AD6-478C-8F7E-02FEF6F1EA84";
paths = (
{
closed = 1;
nodes = (
"-29 -200 LINE",
"-13 -205 OFFCURVE",
"22 -210 OFFCURVE",
"48 -210 CURVE SMOOTH",
"164 -210 OFFCURVE",
"213 -154 OFFCURVE",
"213 -34 CURVE SMOOTH",
"213 525 LINE",
"73 525 LINE",
"73 -26 LINE SMOOTH",
"73 -81 OFFCURVE",
"52 -95 OFFCURVE",
"16 -95 CURVE SMOOTH",
"3 -95 OFFCURVE",
"-16 -94 OFFCURVE",
"-29 -93 CURVE"
);
},
{
closed = 1;
nodes = (
"194 588 OFFCURVE",
"228 610 OFFCURVE",
"228 664 CURVE SMOOTH",
"228 718 OFFCURVE",
"194 740 OFFCURVE",
"143 740 CURVE SMOOTH",
"92 740 OFFCURVE",
"58 718 OFFCURVE",
"58 664 CURVE SMOOTH",
"58 610 OFFCURVE",
"92 588 OFFCURVE",
"143 588 CURVE SMOOTH"
);
}
);
width = 286;
},
{
background = {
paths = (
{
closed = 1;
nodes = (
"267 0 LINE",
"267 535 LINE",
"52 535 LINE",
"52 0 LINE"
);
},
{
closed = 1;
nodes = (
"238 601 OFFCURVE",
"281 637 OFFCURVE",
"281 701 CURVE SMOOTH",
"281 765 OFFCURVE",
"238 801 OFFCURVE",
"160 801 CURVE SMOOTH",
"82 801 OFFCURVE",
"39 765 OFFCURVE",
"39 701 CURVE SMOOTH",
"39 637 OFFCURVE",
"82 601 OFFCURVE",
"160 601 CURVE SMOOTH"
);
}
);
};
layerId = "2D8239A6-199F-4292-A93F-56491AD13939";
paths = (
{
closed = 1;
nodes = (
"-20 -200 LINE",
"-4 -205 OFFCURVE",
"41 -210 OFFCURVE",
"77 -210 CURVE SMOOTH",
"228 -210 OFFCURVE",
"267 -124 OFFCURVE",
"267 -4 CURVE SMOOTH",
"267 535 LINE",
"52 535 LINE",
"52 9 LINE SMOOTH",
"52 -36 OFFCURVE",
"41 -50 OFFCURVE",
"5 -50 CURVE SMOOTH",
"-1 -50 OFFCURVE",
"-13 -49 OFFCURVE",
"-20 -48 CURVE"
);
},
{
closed = 1;
nodes = (
"238 601 OFFCURVE",
"281 637 OFFCURVE",
"281 701 CURVE SMOOTH",
"281 765 OFFCURVE",
"238 801 OFFCURVE",
"160 801 CURVE SMOOTH",
"81 801 OFFCURVE",
"38 765 OFFCURVE",
"38 701 CURVE SMOOTH",
"38 637 OFFCURVE",
"81 601 OFFCURVE",
"160 601 CURVE SMOOTH"
);
}
);
width = 307;
}
);
rightMetricsKey = "=i";
unicode = 006A;
},
{
color = 7;
glyphname = k;
lastChange = "2017-06-08 13:58:49 +0000";
layers = (
{
annotations = (
{
position = "{315, 609}";
text = "I like the solution";
type = Text;
}
);
guideLines = (
{
angle = 46.5765;
position = "{329, 273}";
},
{
angle = 124.957;
position = "{392, 0}";
}
);
layerId = "C76CAC8E-7AD6-478C-8F7E-02FEF6F1EA84";
paths = (
{
closed = 1;
nodes = (
"286 221 LINE",
"563 525 LINE",
"403 525 LINE",
"219 323 LINE",
"186 323 LINE",
"186 221 LINE"
);
},
{
closed = 1;
nodes = (
"213 0 LINE",
"213 730 LINE",
"73 730 LINE",
"73 0 LINE"
);
},
{
closed = 1;
nodes = (
"573 0 LINE",
"359 319 LINE",
"240 253 LINE",
"413 0 LINE"
);
}
);
width = 593;
},
{
associatedMasterId = "C76CAC8E-7AD6-478C-8F7E-02FEF6F1EA84";
background = {
paths = (
{
closed = 1;
nodes = (
"205 0 LINE",
"205 272 LINE",
"187 272 LINE",
"404 0 LINE",
"587 0 LINE",
"351 282 LINE",
"351 269 LINE",
"571 525 LINE",
"391 525 LINE",
"187 276 LINE",
"205 276 LINE",
"205 720 LINE",
"65 720 LINE",
"65 0 LINE"
);
}
);
};
layerId = "E86AA8EF-C19D-4038-BC4B-935301E70026";
name = "Text Autospaced Nov 11 16, 13:48";
paths = (
{
closed = 1;
nodes = (
"205 0 LINE",
"205 272 LINE",
"187 272 LINE",
"404 0 LINE",
"587 0 LINE",
"351 282 LINE",
"351 269 LINE",
"571 525 LINE",
"391 525 LINE",
"187 276 LINE",
"205 276 LINE",
"205 720 LINE",
"65 720 LINE",
"65 0 LINE"
);
}
);
width = 592;
},
{
associatedMasterId = "C76CAC8E-7AD6-478C-8F7E-02FEF6F1EA84";
background = {
paths = (
{
closed = 1;
nodes = (
"205 0 LINE",
"205 272 LINE",
"187 272 LINE",
"404 0 LINE",
"587 0 LINE",
"351 282 LINE",
"351 269 LINE",
"571 525 LINE",
"391 525 LINE",
"187 276 LINE",
"205 276 LINE",
"205 720 LINE",
"65 720 LINE",
"65 0 LINE"
);
}
);
};
layerId = "14B729B7-F441-4874-98D0-97CC3157FEC4";
name = "Text Autospaced Nov 11 16, 13:48";
paths = (
{
closed = 1;
nodes = (
"205 0 LINE",
"205 272 LINE",
"187 272 LINE",
"404 0 LINE",
"587 0 LINE",
"351 282 LINE",
"351 269 LINE",
"571 525 LINE",
"391 525 LINE",
"187 276 LINE",
"205 276 LINE",
"205 720 LINE",
"65 720 LINE",
"65 0 LINE"
);
}
);
width = 592;
},
{
background = {
paths = (
{
closed = 1;
nodes = (
"410 201 LINE",
"625 535 LINE",
"390 535 LINE",
"250 288 LINE",
"250 201 LINE"
);
},
{
closed = 1;
nodes = (
"255 0 LINE",
"255 730 LINE",
"40 730 LINE",
"40 0 LINE"
);
},
{
closed = 1;
nodes = (
"635 0 LINE",
"481 319 LINE",
"282 253 LINE",
"400 0 LINE"
);
},
{
closed = 1;
nodes = (
"277 201 LINE",
"277 311 LINE",
"214 311 LINE",
"214 201 LINE"
);
}
);
};
layerId = "2D8239A6-199F-4292-A93F-56491AD13939";
paths = (
{
closed = 1;
nodes = (
"400 201 LINE",
"625 535 LINE",
"390 535 LINE",
"261 346 LINE",
"220 346 LINE",
"220 201 LINE"
);
},
{
closed = 1;
nodes = (
"255 0 LINE",
"255 730 LINE",
"40 730 LINE",
"40 0 LINE"
);
},
{
closed = 1;
nodes = (
"635 0 LINE",
"451 339 LINE",
"262 253 LINE",
"400 0 LINE"
);
}
);
width = 635;
},
{
associatedMasterId = "C76CAC8E-7AD6-478C-8F7E-02FEF6F1EA84";
background = {
paths = (
{
closed = 1;
nodes = (
"205 0 LINE",
"205 272 LINE",
"187 272 LINE",
"404 0 LINE",
"587 0 LINE",
"351 282 LINE",
"351 269 LINE",
"571 525 LINE",
"391 525 LINE",
"187 276 LINE",
"205 276 LINE",
"205 720 LINE",
"65 720 LINE",
"65 0 LINE"
);
}
);
};
layerId = "BADCDA1B-8FEE-48CF-83AA-10FB081CFCC0";
name = "Text Autospaced Nov 11 16, 13:48";
paths = (
{
closed = 1;
nodes = (
"205 0 LINE",
"205 272 LINE",
"187 272 LINE",
"404 0 LINE",
"587 0 LINE",
"351 282 LINE",
"351 269 LINE",
"571 525 LINE",
"391 525 LINE",
"187 276 LINE",
"205 276 LINE",
"205 720 LINE",
"65 720 LINE",
"65 0 LINE"
);
}
);
width = 592;
},
{
associatedMasterId = "C76CAC8E-7AD6-478C-8F7E-02FEF6F1EA84";
background = {
paths = (
{
closed = 1;
nodes = (
"205 0 LINE",
"205 272 LINE",
"187 272 LINE",
"404 0 LINE",
"587 0 LINE",
"351 282 LINE",
"351 269 LINE",
"571 525 LINE",
"391 525 LINE",
"187 276 LINE",
"205 276 LINE",
"205 720 LINE",
"65 720 LINE",
"65 0 LINE"
);
}
);
};
layerId = "D986D89B-AC53-47DF-A671-F29B726DE3AB";
name = "Text Autospaced Nov 11 16, 13:48";
paths = (
{
closed = 1;
nodes = (
"205 0 LINE",
"205 272 LINE",
"187 272 LINE",
"404 0 LINE",
"587 0 LINE",
"351 282 LINE",
"351 269 LINE",
"571 525 LINE",
"391 525 LINE",
"187 276 LINE",
"205 276 LINE",
"205 720 LINE",
"65 720 LINE",
"65 0 LINE"
);
}
);
width = 592;
}
);
leftMetricsKey = "=n";
unicode = 006B;
},
{
glyphname = l;
lastChange = "2017-06-06 10:07:03 +0000";
layers = (
{
background = {
paths = (
{
closed = 1;
nodes = (
"112 0 LINE",
"112 730 LINE",
"94 730 LINE",
"94 0 LINE"
);
}
);
};
layerId = "C76CAC8E-7AD6-478C-8F7E-02FEF6F1EA84";
paths = (
{
closed = 1;
nodes = (
"213 0 LINE",
"213 730 LINE",
"73 730 LINE",
"73 0 LINE"
);
}
);
width = 286;
},
{
layerId = "2D8239A6-199F-4292-A93F-56491AD13939";
paths = (
{
closed = 1;
nodes = (
"255 0 LINE",
"255 730 LINE",
"40 730 LINE",
"40 0 LINE"
);
}
);
width = 295;
}
);
leftMetricsKey = "=n";
rightMetricsKey = "=|n";
unicode = 006C;
},
{
glyphname = m;
lastChange = "2017-06-06 10:07:03 +0000";
layers = (
{
background = {
paths = (
{
closed = 1;
nodes = (
"197 436 LINE",
"197 408 LINE",
"233 408 LINE",
"233 436 LINE"
);
},
{
closed = 1;
nodes = (
"533 429 LINE",
"533 401 LINE",
"569 401 LINE",
"569 429 LINE"
);
},
{
closed = 1;
nodes = (
"645 540 OFFCURVE",
"584 502 OFFCURVE",
"551 414 CURVE",
"537 491 OFFCURVE",
"481 540 OFFCURVE",
"390 540 CURVE SMOOTH",
"299 540 OFFCURVE",
"243 499 OFFCURVE",
"215 418 CURVE",
"196 525 LINE",
"73 525 LINE",
"73 0 LINE",
"213 0 LINE",
"213 308 LINE SMOOTH",
"213 373 OFFCURVE",
"252 413 OFFCURVE",
"325 413 CURVE SMOOTH",
"392 413 OFFCURVE",
"416 379 OFFCURVE",
"416 322 CURVE SMOOTH",
"416 0 LINE",
"556 0 LINE",
"556 308 LINE SMOOTH",
"556 373 OFFCURVE",
"595 413 OFFCURVE",
"668 413 CURVE SMOOTH",
"735 413 OFFCURVE",
"759 379 OFFCURVE",
"759 322 CURVE SMOOTH",
"759 0 LINE",
"899 0 LINE",
"899 370 LINE SMOOTH",
"899 471 OFFCURVE",
"841 540 OFFCURVE",
"733 540 CURVE SMOOTH"
);
}
);
};
layerId = "C76CAC8E-7AD6-478C-8F7E-02FEF6F1EA84";
paths = (
{
closed = 1;
nodes = (
"621 540 OFFCURVE",
"571 494 OFFCURVE",
"533 387 CURVE",
"591 421 LINE",
"497 421 LINE",
"548 388 LINE",
"537 486 OFFCURVE",
"486 540 OFFCURVE",
"387 540 CURVE SMOOTH",
"280 540 OFFCURVE",
"242 487 OFFCURVE",
"203 406 CURVE",
"262 434 LINE",
"166 434 LINE",
"218 390 LINE",
"196 525 LINE",
"73 525 LINE",
"73 0 LINE",
"213 0 LINE",
"213 288 LINE SMOOTH",
"213 363 OFFCURVE",
"259 415 OFFCURVE",
"322 415 CURVE SMOOTH",
"389 415 OFFCURVE",
"415 379 OFFCURVE",
"415 302 CURVE SMOOTH",
"415 0 LINE",
"555 0 LINE",
"555 288 LINE SMOOTH",
"555 363 OFFCURVE",
"601 415 OFFCURVE",
"664 415 CURVE SMOOTH",
"731 415 OFFCURVE",
"757 379 OFFCURVE",
"757 302 CURVE SMOOTH",
"757 0 LINE",
"897 0 LINE",
"897 350 LINE SMOOTH",
"897 471 OFFCURVE",
"841 540 OFFCURVE",
"729 540 CURVE SMOOTH"
);
}
);
width = 962;
},
{
background = {
paths = (
{
closed = 1;
nodes = (
"331 550 OFFCURVE",
"279 487 OFFCURVE",
"242 393 CURVE",
"265 426 LINE",
"235 426 LINE",
"255 402 LINE",
"230 535 LINE",
"40 535 LINE",
"40 0 LINE",
"255 0 LINE",
"255 280 LINE SMOOTH",
"255 330 OFFCURVE",
"300 360 OFFCURVE",
"345 360 CURVE SMOOTH",
"385 360 OFFCURVE",
"405 340 OFFCURVE",
"405 290 CURVE SMOOTH",
"405 0 LINE",
"620 0 LINE",
"620 346 LINE SMOOTH",
"620 469 OFFCURVE",
"573 550 OFFCURVE",
"443 550 CURVE SMOOTH"
);
},
{
closed = 1;
nodes = (
"696 550 OFFCURVE",
"641 481 OFFCURVE",
"604 387 CURVE",
"627 420 LINE",
"597 420 LINE",
"617 396 LINE",
"539 492 LINE",
"405 535 LINE",
"405 0 LINE",
"620 0 LINE",
"620 280 LINE SMOOTH",
"620 330 OFFCURVE",
"665 360 OFFCURVE",
"710 360 CURVE SMOOTH",
"750 360 OFFCURVE",
"770 340 OFFCURVE",
"770 290 CURVE SMOOTH",
"770 0 LINE",
"985 0 LINE",
"985 346 LINE SMOOTH",
"985 469 OFFCURVE",
"938 550 OFFCURVE",
"808 550 CURVE SMOOTH"
);
}
);
};
layerId = "2D8239A6-199F-4292-A93F-56491AD13939";
paths = (
{
closed = 1;
nodes = (
"673 550 OFFCURVE",
"627 493 OFFCURVE",
"593 391 CURVE",
"643 420 LINE",
"553 420 LINE",
"603 388 LINE",
"593 486 OFFCURVE",
"543 550 OFFCURVE",
"433 550 CURVE SMOOTH",
"323 550 OFFCURVE",
"281 488 OFFCURVE",
"243 397 CURVE",
"296 426 LINE",
"205 426 LINE",
"258 382 LINE",
"230 535 LINE",
"40 535 LINE",
"40 0 LINE",
"255 0 LINE",
"255 280 LINE SMOOTH",
"255 330 OFFCURVE",
"295 360 OFFCURVE",
"335 360 CURVE SMOOTH",
"370 360 OFFCURVE",
"390 340 OFFCURVE",
"390 290 CURVE SMOOTH",
"390 0 LINE",
"605 0 LINE",
"605 280 LINE SMOOTH",
"605 330 OFFCURVE",
"645 360 OFFCURVE",
"685 360 CURVE SMOOTH",
"720 360 OFFCURVE",
"740 340 OFFCURVE",
"740 290 CURVE SMOOTH",
"740 0 LINE",
"955 0 LINE",
"955 346 LINE SMOOTH",
"955 469 OFFCURVE",
"908 550 OFFCURVE",
"783 550 CURVE SMOOTH"
);
}
);
width = 992;
}
);
leftMetricsKey = "=n";
rightMetricsKey = "=n";
unicode = 006D;
},
